{"glyphs":{"、":{"ha":1389,"x_min":68,"x_max":317,"o":"m 68 149 q 208 -43 171 61 q 257 -90 228 -90 q 317 -28 317 -90 q 281 56 317 19 q 82 169 207 129 l 68 149 z "},"。":{"ha":1389,"x_min":51,"x_max":364,"o":"m 207 169 q 272 149 243 169 q 319 57 319 115 q 281 -28 319 8 q 207 -56 249 -56 q 113 -3 146 -56 q 99 26 104 11 q 94 57 94 42 q 125 133 94 103 q 207 169 160 169 m 206 214 q 125 189 164 214 q 51 57 51 143 q 140 -82 51 -39 q 207 -99 172 -99 q 319 -50 275 -99 q 364 57 364 -3 q 288 190 364 144 q 206 214 249 214 z "},"・":{"ha":1389,"x_min":535,"x_max":715,"o":"m 625 565 q 574 549 599 565 q 535 475 535 522 q 568 406 535 435 q 625 385 592 385 q 703 428 674 385 q 713 451 710 439 q 715 475 715 463 q 690 536 715 508 q 625 565 661 565 z "},"゛":{"ha":1389,"x_min":61,"x_max":349,"o":"m 181 1006 q 267 901 240 963 q 310 861 283 861 q 349 904 349 861 q 194 1029 349 981 l 181 1006 m 61 928 q 150 813 118 885 q 193 775 167 775 q 231 818 231 775 q 76 950 231 897 l 61 928 z "},"゜":{"ha":1389,"x_min":57,"x_max":307,"o":"m 183 1001 q 242 976 217 1001 q 267 918 267 949 q 219 843 267 865 q 182 833 204 833 q 121 861 146 833 q 99 918 99 888 q 139 989 99 965 q 183 1001 160 1001 m 181 1043 q 96 1008 131 1043 q 57 918 57 971 q 108 818 57 857 q 182 793 142 793 q 292 857 254 793 q 307 918 307 885 q 243 1026 307 989 q 214 1038 229 1033 q 181 1043 199 1043 z "},"ヽ":{"ha":1389,"x_min":343,"x_max":878,"o":"m 343 779 q 623 515 515 651 q 772 232 731 379 q 826 168 792 168 q 861 193 847 168 q 878 243 878 214 q 786 444 878 321 q 367 804 658 622 l 343 779 z "},"ヾ":{"ha":1389,"x_min":343,"x_max":1032,"o":"m 864 899 q 950 793 922 856 q 993 754 967 754 q 1032 796 1032 754 q 879 921 1032 875 l 864 899 m 744 819 q 833 706 806 774 q 878 668 849 668 q 915 710 915 668 q 760 843 915 786 l 744 819 m 343 779 q 623 515 515 651 q 772 232 731 379 q 826 168 792 168 q 861 193 847 168 q 878 243 878 214 q 786 444 878 321 q 367 804 658 622 l 343 779 z "},"ゝ":{"ha":1389,"x_min":407,"x_max":806,"o":"m 542 147 q 714 257 672 257 q 742 251 726 257 q 772 242 761 242 q 806 311 806 242 q 669 513 806 410 q 439 843 499 642 l 407 832 q 511 569 444 667 q 656 408 550 514 q 689 361 689 378 q 517 168 689 328 l 542 147 z "},"ゞ":{"ha":1389,"x_min":407,"x_max":992,"o":"m 704 793 q 793 678 763 747 q 836 640 808 640 q 874 682 874 640 q 718 815 874 761 l 704 793 m 822 871 q 908 767 882 829 q 953 726 925 726 q 992 768 992 726 q 838 893 992 847 l 822 871 m 542 147 q 714 257 672 257 q 742 251 726 257 q 772 242 761 242 q 806 311 806 242 q 669 513 806 410 q 439 843 499 642 l 407 832 q 511 569 444 667 q 656 408 550 514 q 689 361 689 378 q 517 168 689 328 l 542 147 z "},"ー":{"ha":1389,"x_min":146,"x_max":1103,"o":"m 1061 501 q 1000 513 1039 511 q 918 515 961 515 q 860 514 897 515 q 781 511 824 513 q 701 508 739 510 q 642 506 664 507 q 567 503 611 506 q 480 499 524 501 q 407 496 436 497 q 323 499 367 494 q 256 511 279 504 q 202 526 229 518 q 157 519 175 533 q 153 491 146 511 q 181 456 160 471 q 235 430 201 440 q 306 419 268 419 q 384 428 342 421 q 465 440 426 436 q 539 447 497 444 q 619 451 581 449 q 682 454 657 453 q 748 455 708 456 q 828 452 788 454 q 893 447 868 450 q 949 442 918 444 q 1008 435 981 439 q 1050 429 1036 431 q 1101 446 1097 421 q 1093 476 1103 461 q 1061 501 1083 492 z "},"〈":{"ha":1389,"x_min":693,"x_max":1182,"o":"m 1118 1040 l 693 475 l 1118 -90 l 1182 -90 l 757 475 l 1182 1040 l 1118 1040 z "},"〉":{"ha":1389,"x_min":68,"x_max":557,"o":"m 493 475 l 68 -90 l 132 -90 l 557 475 l 132 1040 l 68 1040 l 493 475 z "},"《":{"ha":1389,"x_min":668,"x_max":1206,"o":"m 1206 -90 l 882 475 l 1206 1040 l 1150 1040 l 828 475 l 1150 -90 l 1206 -90 m 1046 -90 l 724 475 l 1046 1040 l 992 1040 l 668 475 l 992 -90 l 1046 -90 z "},"》":{"ha":1389,"x_min":44,"x_max":581,"o":"m 258 -90 l 581 475 l 258 1040 l 204 1040 l 526 475 l 204 -90 l 258 -90 m 100 -90 l 422 475 l 100 1040 l 44 1040 l 368 475 l 44 -90 l 100 -90 z "},"「":{"ha":1389,"x_min":838,"x_max":1146,"o":"m 838 1032 l 838 132 l 893 132 l 893 978 l 1146 978 l 1146 1032 l 838 1032 z "},"」":{"ha":1389,"x_min":104,"x_max":413,"o":"m 413 -82 l 413 818 l 357 818 l 357 -28 l 104 -28 l 104 -82 l 413 -82 z "},"【":{"ha":1389,"x_min":883,"x_max":1139,"o":"m 883 -90 l 1139 -90 q 928 476 928 129 q 1139 1040 928 821 l 883 1040 l 883 -90 z "},"】":{"ha":1389,"x_min":111,"x_max":367,"o":"m 367 1040 l 111 1040 q 322 474 322 819 q 111 -90 322 129 l 367 -90 l 367 1040 z "},"±":{"ha":1389,"x_min":196,"x_max":1054,"o":"m 196 76 l 1054 76 l 1054 133 l 196 133 l 196 76 m 654 931 l 596 931 l 596 619 l 196 619 l 196 563 l 596 563 l 596 253 l 654 253 l 654 563 l 1054 563 l 1054 619 l 654 619 l 654 931 z "},"×":{"ha":1389,"x_min":253,"x_max":997,"o":"m 293 847 l 253 806 l 583 475 l 253 143 l 293 103 l 625 433 l 956 103 l 997 143 l 667 475 l 997 806 l 956 847 l 625 517 l 293 847 z "},"÷":{"ha":1389,"x_min":196,"x_max":1054,"o":"m 625 299 q 576 281 596 299 q 553 226 553 260 q 592 163 553 185 q 625 154 606 154 q 678 175 656 154 q 699 226 699 196 q 656 292 699 272 q 625 299 642 299 m 625 796 q 576 778 596 796 q 553 724 553 757 q 592 660 553 682 q 625 651 606 651 q 678 672 656 651 q 699 724 699 693 q 656 789 699 769 q 625 796 642 796 m 196 446 l 1054 446 l 1054 504 l 196 504 l 196 446 z "},"＝":{"ha":1389,"x_min":196,"x_max":1054,"o":"m 196 322 l 1054 322 l 1054 381 l 196 381 l 196 322 m 196 569 l 1054 569 l 1054 628 l 196 628 l 196 569 z "},"≠":{"ha":1389,"x_min":196,"x_max":1054,"o":"m 196 628 l 196 569 l 642 569 l 544 381 l 196 381 l 196 322 l 517 322 l 375 40 l 439 40 l 581 322 l 1054 322 l 1054 381 l 608 381 l 706 569 l 1054 569 l 1054 628 l 733 628 l 875 910 l 811 910 l 669 628 l 196 628 z "},"＜":{"ha":1389,"x_min":103,"x_max":1132,"o":"m 103 475 l 1132 -75 l 1132 -12 l 217 475 l 1132 963 l 1132 1025 l 103 475 z "},"ぁ":{"ha":1389,"x_min":253,"x_max":1000,"o":"m 336 288 q 431 414 364 363 q 463 435 447 425 q 493 451 478 444 q 492 381 493 417 q 492 331 492 344 q 492 301 492 321 q 492 258 492 282 q 459 219 478 239 q 425 186 440 200 q 382 164 410 172 q 336 167 354 156 q 321 215 319 178 q 336 288 322 251 m 557 368 q 553 358 556 367 q 553 413 553 381 q 553 472 553 446 q 593 481 575 479 q 593 475 593 478 q 593 469 593 472 q 581 422 589 450 q 557 368 572 393 m 303 88 q 383 83 340 65 q 456 132 426 100 q 493 178 475 153 q 493 174 493 175 q 493 172 493 174 q 494 137 493 153 q 503 118 496 121 q 523 117 510 114 q 546 136 536 121 q 558 211 563 167 q 556 238 557 222 q 556 272 556 254 q 568 297 561 285 q 582 324 575 310 q 619 413 608 378 q 628 486 631 449 q 712 489 671 490 q 790 479 753 488 q 865 447 831 469 q 917 385 900 425 q 935 282 938 333 q 901 182 932 231 q 817 94 869 131 q 707 44 764 58 q 601 26 650 31 q 543 21 553 21 q 525 11 525 21 q 546 -4 525 0 q 583 -4 554 -6 q 647 1 611 -3 q 714 11 683 4 q 818 47 772 25 q 917 114 864 69 q 982 216 964 156 q 993 335 1000 276 q 952 439 985 394 q 863 506 919 483 q 747 534 806 528 q 624 532 688 540 l 622 532 q 610 561 619 547 q 594 576 603 571 q 576 574 585 581 q 574 560 571 571 q 585 538 578 549 q 587 533 586 536 q 589 528 588 531 q 572 523 581 525 q 554 518 563 521 q 555 575 554 546 q 556 624 556 604 q 556 627 556 625 q 556 631 556 629 q 594 642 575 636 q 631 656 614 649 q 672 678 654 665 q 699 701 690 692 q 700 738 717 724 q 677 745 690 744 q 649 742 664 746 q 599 708 622 731 q 581 694 592 703 q 556 679 569 686 q 558 711 557 696 q 560 736 558 726 q 565 771 561 756 q 564 797 568 786 q 549 822 560 811 q 526 839 539 832 q 497 853 513 847 q 474 853 481 860 q 471 838 469 847 q 482 822 472 828 q 498 804 490 815 q 506 776 506 793 q 505 745 506 767 q 503 701 504 724 q 501 661 503 678 q 464 657 483 657 q 415 665 431 657 q 395 673 408 668 q 374 668 382 678 q 377 649 369 661 q 400 631 385 638 q 444 618 418 621 q 500 618 471 615 q 496 560 497 593 q 493 506 494 526 q 493 503 493 504 q 493 501 493 503 q 440 476 465 490 q 392 442 414 461 q 313 356 347 403 q 267 257 279 308 q 259 158 253 207 q 303 88 265 110 z "},"あ":{"ha":1389,"x_min":188,"x_max":1065,"o":"m 286 311 q 397 458 318 399 q 433 484 417 472 q 469 504 450 496 q 468 420 468 463 q 468 363 468 378 q 468 329 468 353 q 468 278 468 306 q 430 233 451 256 q 389 193 408 211 q 338 165 369 175 q 286 168 307 156 q 268 225 265 182 q 286 311 271 268 m 546 407 q 543 401 544 406 q 539 394 542 397 q 539 460 539 422 q 540 529 539 497 q 563 534 551 532 q 588 539 575 536 q 587 533 588 536 q 586 526 586 529 q 572 469 582 504 q 546 407 563 435 m 246 76 q 342 71 290 51 q 426 129 393 90 q 448 155 438 142 q 469 181 458 168 q 469 178 469 179 q 469 175 469 178 q 471 134 471 153 q 481 111 471 115 q 506 110 490 106 q 532 133 522 114 q 545 174 543 153 q 546 221 547 194 q 544 253 546 235 q 543 293 543 272 q 558 323 550 308 q 575 354 567 338 q 619 460 607 419 q 629 544 631 501 q 727 549 679 550 q 818 536 775 547 q 908 499 865 525 q 968 426 950 472 q 988 305 992 365 q 950 188 985 244 q 851 84 913 126 q 722 26 789 42 q 636 10 678 17 q 565 1 594 4 q 529 -1 536 -1 q 513 -6 519 -3 q 506 -14 506 -8 q 532 -31 506 -29 q 575 -31 542 -32 q 651 -26 608 -29 q 729 -14 693 -22 q 852 28 797 1 q 968 107 907 54 q 1044 226 1024 156 q 1056 367 1065 297 q 1008 489 1046 436 q 906 568 971 542 q 768 602 838 594 q 622 600 699 610 q 607 632 617 621 q 589 649 600 643 q 568 647 578 656 q 565 631 561 643 q 578 606 569 619 q 580 599 579 603 q 582 593 581 596 q 562 589 572 592 q 540 583 551 586 q 542 650 542 617 q 543 707 543 683 q 543 711 543 708 q 543 715 543 714 q 589 729 567 722 q 631 743 611 736 q 711 797 690 769 q 713 840 732 826 q 686 850 703 850 q 653 844 669 850 q 622 829 636 839 q 594 806 608 819 q 573 790 586 800 q 544 772 560 779 q 546 810 544 792 q 549 840 547 828 q 554 880 550 863 q 553 911 558 897 q 535 938 547 926 q 508 960 522 950 q 474 977 494 969 q 446 976 453 985 q 456 940 433 958 q 476 919 467 931 q 485 886 485 907 q 484 850 485 875 q 482 797 483 825 q 481 751 481 769 q 458 748 469 750 q 435 746 446 746 q 401 749 415 746 q 379 756 388 751 q 355 764 371 758 q 331 758 339 769 q 333 738 325 751 q 360 714 342 724 q 478 701 407 690 q 473 632 475 671 q 471 568 471 593 q 470 565 471 567 q 469 563 469 564 q 406 532 436 549 q 349 493 375 515 q 256 392 296 449 q 203 276 217 336 q 194 159 188 217 q 246 76 201 101 z "},"ぃ":{"ha":1389,"x_min":213,"x_max":1036,"o":"m 843 486 q 875 477 854 483 q 915 457 896 471 q 944 425 933 444 q 956 376 956 406 q 951 323 954 347 q 953 285 949 299 q 996 256 963 256 q 1035 292 1031 256 q 1035 341 1036 310 q 1022 394 1033 372 q 993 442 1011 418 q 940 486 975 465 q 894 505 919 499 q 854 513 869 511 q 826 503 828 514 q 843 486 824 490 m 233 581 q 249 558 242 574 q 257 514 257 542 q 260 436 258 486 q 261 347 261 386 q 266 269 263 308 q 278 199 269 229 q 310 134 285 169 q 363 75 335 99 q 425 41 392 51 q 493 28 458 31 q 533 29 515 25 q 553 46 550 33 q 548 72 556 60 q 533 93 540 83 q 522 122 526 103 q 518 156 517 140 q 524 182 519 169 q 533 200 529 194 q 535 218 542 211 q 513 210 525 222 q 481 163 493 190 q 476 147 478 154 q 474 133 475 139 q 471 125 474 131 q 461 118 468 119 q 438 117 456 117 q 406 122 419 117 q 376 138 392 128 q 351 160 361 149 q 331 200 342 171 q 319 282 321 229 q 320 376 318 336 q 324 454 322 417 q 323 522 325 490 q 308 571 321 553 q 283 599 297 589 q 260 615 269 610 q 235 624 250 621 q 217 618 221 628 q 219 600 213 611 q 233 581 225 589 z "},"い":{"ha":1389,"x_min":140,"x_max":1110,"o":"m 882 664 q 919 653 896 661 q 965 631 942 644 q 1001 591 989 614 q 1013 533 1014 568 q 1008 471 1011 500 q 1010 426 1004 442 q 1061 393 1021 393 q 1107 433 1103 390 q 1107 492 1110 456 q 1093 556 1104 528 q 1058 611 1081 583 q 996 664 1036 639 q 941 685 971 679 q 893 693 911 692 q 861 682 863 697 q 882 664 858 668 m 164 775 q 183 747 175 765 q 193 696 192 728 q 194 640 193 675 q 194 567 194 604 q 196 499 194 529 q 202 407 197 454 q 217 325 207 360 q 254 249 226 290 q 317 181 282 208 q 389 139 350 153 q 471 122 428 125 q 517 126 497 121 q 540 144 538 131 q 535 175 543 161 q 518 200 526 189 q 503 233 508 211 q 500 274 499 256 q 507 306 501 292 q 518 326 513 319 q 518 346 529 340 q 508 347 517 349 q 493 338 500 344 q 472 313 483 328 q 456 282 461 297 q 447 249 447 264 q 443 238 446 244 q 432 231 440 232 q 403 228 424 228 q 368 235 383 228 q 333 253 351 242 q 303 279 314 264 q 279 326 292 293 q 267 424 267 360 q 266 533 265 486 q 269 625 267 581 q 269 703 272 668 q 253 763 267 739 q 222 797 238 786 q 194 815 206 808 q 167 825 183 821 q 143 818 150 829 q 147 797 140 810 q 164 775 154 783 z "},"ぅ":{"ha":1389,"x_min":338,"x_max":928,"o":"m 367 464 q 409 451 385 454 q 458 461 433 449 q 505 482 476 469 q 561 504 533 494 q 607 519 589 514 q 671 532 633 528 q 746 525 708 536 q 808 481 785 514 q 829 383 831 447 q 813 266 828 319 q 764 168 797 213 q 682 93 731 124 q 594 47 633 63 q 522 22 556 33 q 472 7 488 10 q 458 1 461 7 q 456 -8 456 -6 q 478 -17 456 -19 q 530 -7 504 -14 q 596 14 556 0 q 687 50 647 32 q 778 104 726 68 q 860 190 829 140 q 904 294 892 240 q 869 499 928 408 q 799 560 842 543 q 714 581 757 578 q 626 574 669 583 q 551 551 583 565 q 492 528 519 536 q 450 518 464 519 q 388 519 418 514 q 364 524 375 522 q 344 519 353 525 q 342 493 338 513 q 367 464 347 474 m 536 779 q 560 766 544 774 q 583 756 575 758 q 599 749 592 753 q 606 740 606 744 q 597 718 606 728 q 588 699 594 713 q 588 681 582 685 q 606 690 593 678 q 621 704 619 701 q 637 715 628 711 q 656 718 646 719 q 680 719 667 718 q 706 725 693 719 q 723 747 718 731 q 714 779 728 764 q 671 803 700 794 q 618 814 642 811 q 540 813 569 818 q 527 810 535 811 q 518 803 519 808 q 536 779 514 786 z "},"う":{"ha":1389,"x_min":286,"x_max":982,"o":"m 319 550 q 371 535 342 539 q 431 546 400 531 q 483 569 450 556 q 550 596 517 583 q 604 615 583 608 q 678 631 635 625 q 768 621 722 636 q 840 569 814 607 q 865 456 867 531 q 845 317 864 381 q 788 201 826 253 q 692 113 749 149 q 589 58 636 78 q 503 28 543 40 q 444 13 464 15 q 430 5 433 11 q 426 -7 426 -1 q 451 -15 426 -17 q 513 -5 482 -12 q 592 19 543 3 q 698 62 651 40 q 806 126 744 83 q 901 228 864 169 q 953 351 939 286 q 914 590 982 482 q 830 663 881 642 q 729 688 779 685 q 626 680 678 690 q 538 653 574 669 q 469 624 503 636 q 418 611 436 613 q 384 611 403 610 q 346 617 365 613 q 317 621 331 619 q 296 615 303 622 q 292 584 286 607 q 319 550 299 561 m 519 918 q 549 905 531 914 q 576 893 567 896 q 594 885 586 890 q 603 875 601 881 q 601 862 604 869 q 593 849 597 854 q 582 826 589 843 q 581 806 575 810 q 595 808 586 803 q 612 822 604 814 q 621 831 619 829 q 660 850 636 847 q 689 851 672 851 q 719 856 706 850 q 740 883 735 863 q 729 919 744 903 q 678 949 713 939 q 618 961 644 958 q 525 960 560 968 q 511 956 519 958 q 500 947 503 953 q 502 931 496 938 q 519 918 508 925 z "},"ぇ":{"ha":1389,"x_min":276,"x_max":992,"o":"m 336 526 q 332 504 331 521 q 343 472 333 488 q 370 440 353 458 q 417 421 388 422 q 472 431 444 419 q 518 456 499 443 q 569 481 536 467 q 624 499 603 496 q 658 501 643 501 q 678 492 674 500 q 671 463 683 479 q 636 431 658 446 q 572 385 614 414 q 500 332 531 356 q 450 288 481 317 q 389 227 419 260 q 340 168 358 194 q 294 97 313 128 q 278 40 276 65 q 288 2 278 15 q 313 -11 297 -11 q 339 -1 326 -11 q 354 38 351 10 q 368 101 356 65 q 394 156 381 138 q 432 194 408 174 q 479 222 456 214 q 588 253 531 243 q 633 255 613 257 q 663 243 653 253 q 679 207 675 228 q 683 158 683 186 q 685 96 685 129 q 697 43 686 63 q 772 -1 715 7 q 847 -7 801 -6 q 915 -7 892 -8 q 956 -3 939 -6 q 982 7 974 0 q 983 31 992 15 q 965 56 975 46 q 938 70 956 64 q 901 74 919 76 q 851 63 883 71 q 796 56 819 56 q 751 70 774 54 q 725 104 729 86 q 723 150 721 122 q 725 206 725 178 q 714 256 725 236 q 690 283 703 276 q 648 290 675 292 q 586 278 621 288 q 537 267 551 268 q 519 274 522 267 q 561 321 515 288 q 618 362 583 338 q 685 406 653 386 q 743 440 717 425 q 781 465 769 454 q 788 498 792 476 q 761 535 783 519 q 699 550 739 550 q 618 538 658 550 q 541 511 578 525 q 485 493 504 497 q 447 488 465 488 q 418 493 429 489 q 394 506 404 499 q 378 519 383 514 q 358 531 368 528 q 336 526 347 535 m 549 806 q 549 794 546 801 q 558 779 551 786 q 576 761 565 772 q 594 739 588 750 q 610 716 603 728 q 611 700 618 704 q 595 690 604 696 q 579 679 586 685 q 557 643 549 650 q 578 645 563 638 q 603 656 593 653 q 619 661 611 658 q 631 665 626 664 q 641 665 636 665 q 649 663 646 664 q 667 658 657 658 q 690 664 678 657 q 701 689 701 671 q 689 722 700 707 q 643 775 667 756 q 583 806 611 799 q 563 809 572 808 q 549 806 553 810 z "},"え":{"ha":1389,"x_min":210,"x_max":1047,"o":"m 281 626 q 274 600 271 619 q 288 563 276 581 q 319 525 299 544 q 372 503 339 506 q 438 515 407 500 q 492 543 469 529 q 529 563 506 551 q 576 583 553 574 q 617 593 600 592 q 657 595 639 597 q 679 583 675 593 q 672 550 686 569 q 631 513 658 531 q 585 480 614 500 q 525 438 556 460 q 471 397 494 417 q 412 345 447 379 q 341 274 376 311 q 283 206 306 236 q 230 122 250 158 q 210 56 210 85 q 224 11 211 26 q 251 -4 236 -4 q 283 8 267 -4 q 301 53 299 19 q 318 128 304 85 q 349 192 332 171 q 392 235 365 211 q 446 268 419 258 q 508 288 472 278 q 574 304 543 299 q 628 308 604 308 q 663 293 651 307 q 681 251 676 275 q 686 193 686 228 q 690 120 688 160 q 703 58 692 81 q 735 24 714 36 q 790 7 756 13 q 846 2 814 3 q 908 1 878 1 q 957 3 939 1 q 1005 6 985 4 q 1036 18 1025 8 q 1038 44 1047 28 q 1017 72 1028 61 q 984 91 1006 83 q 942 94 963 99 q 882 83 919 92 q 818 74 844 75 q 766 90 792 72 q 735 131 740 108 q 733 185 731 153 q 735 251 735 217 q 722 309 735 286 q 693 342 708 332 q 644 348 678 351 q 572 335 611 344 q 515 324 532 325 q 494 329 497 322 q 505 351 493 336 q 543 385 517 367 q 610 432 568 403 q 689 485 651 461 q 756 524 725 508 q 800 554 786 540 q 808 592 814 567 q 776 635 803 618 q 703 652 750 651 q 610 638 657 653 q 519 607 563 622 q 454 586 476 592 q 375 586 404 575 q 347 601 360 592 q 328 618 335 611 q 304 631 317 628 q 281 626 292 635 m 529 953 q 528 938 525 947 q 540 921 532 928 q 560 901 547 914 q 582 874 572 888 q 601 846 592 860 q 603 829 611 832 q 581 817 592 825 q 564 803 571 810 q 538 761 528 769 q 563 764 544 756 q 592 776 581 772 q 611 783 603 779 q 625 788 619 786 q 636 787 631 788 q 644 785 642 786 q 667 779 654 781 q 693 786 679 778 q 706 815 708 794 q 693 856 704 836 q 638 917 669 892 q 603 938 622 928 q 568 951 583 949 q 544 956 556 954 q 529 953 532 958 z "},"ぉ":{"ha":1389,"x_min":196,"x_max":1068,"o":"m 299 154 q 278 144 286 147 q 260 140 269 142 q 238 144 242 138 q 253 156 235 151 q 299 154 271 161 m 449 193 q 463 203 456 199 q 479 214 471 208 q 481 163 481 186 q 481 128 481 139 q 471 99 481 103 q 438 115 467 97 q 413 130 426 122 q 385 144 400 138 q 415 167 400 156 q 449 193 431 178 m 569 578 q 581 563 581 571 q 572 550 581 556 q 550 538 561 544 q 528 525 539 531 q 527 536 528 531 q 526 546 526 542 q 526 580 526 561 q 524 617 525 599 q 549 594 538 604 q 569 578 561 583 m 251 96 q 295 99 275 94 q 338 114 315 103 q 348 120 343 117 q 358 126 353 124 q 392 89 379 108 q 417 54 406 69 q 436 24 428 36 q 447 7 444 11 q 467 -3 457 -3 q 478 -2 472 -3 q 492 3 485 -1 q 521 40 507 14 q 533 67 528 51 q 535 101 538 83 q 531 139 532 119 q 529 176 529 158 q 528 203 528 183 q 529 247 529 222 q 569 272 549 260 q 607 294 589 283 q 689 331 647 317 q 768 347 731 344 q 835 342 803 350 q 888 318 868 335 q 922 229 926 288 q 904 169 919 203 q 858 108 889 136 q 793 68 828 81 q 728 64 758 56 q 694 90 706 69 q 681 138 683 111 q 682 188 678 164 q 697 240 690 224 q 711 267 704 256 q 710 283 718 275 q 693 281 703 290 q 674 245 685 269 q 656 189 663 221 q 651 61 639 124 q 688 14 658 31 q 761 3 717 -3 q 853 30 813 8 q 928 94 893 51 q 976 174 961 139 q 989 250 990 210 q 963 321 988 289 q 901 369 938 353 q 810 393 861 389 q 707 379 758 397 q 613 338 657 361 q 529 290 568 314 q 530 357 531 325 q 529 401 529 389 q 528 433 528 415 q 528 468 529 450 q 535 471 533 471 q 600 498 569 485 q 650 524 631 511 q 681 578 689 550 q 671 596 678 592 q 651 601 664 600 q 622 604 638 603 q 586 615 606 606 q 555 632 572 622 q 522 651 538 642 q 522 664 522 658 q 521 672 521 669 q 499 721 517 706 q 476 738 492 728 q 446 751 461 749 q 413 746 421 757 q 407 731 407 739 q 418 717 407 722 q 441 694 429 710 q 456 661 453 679 q 463 620 460 643 q 468 578 467 597 q 469 546 468 567 q 471 499 469 525 q 442 486 456 492 q 418 478 429 481 q 385 474 403 474 q 351 481 368 474 q 324 494 333 488 q 306 506 314 500 q 289 513 297 511 q 274 507 281 514 q 271 492 267 500 q 281 479 275 485 q 299 463 285 474 q 329 444 313 451 q 370 435 349 436 q 411 436 392 433 q 438 442 422 439 q 474 451 454 444 q 474 428 474 440 q 474 406 474 417 q 476 325 475 363 q 478 257 476 288 q 424 226 449 240 q 389 206 399 211 q 358 188 375 197 q 326 171 342 178 q 283 182 308 179 q 239 179 258 185 q 208 160 219 174 q 197 131 196 146 q 251 96 201 100 m 1043 553 q 956 604 1017 590 q 892 610 921 611 q 843 599 864 610 q 808 575 819 586 q 792 553 797 564 q 793 533 786 540 q 811 540 801 528 q 856 564 826 556 q 889 566 869 568 q 926 553 908 564 q 958 530 946 542 q 982 503 971 518 q 1015 485 996 486 q 1043 493 1033 483 q 1043 553 1068 514 z "},"お":{"ha":1389,"x_min":119,"x_max":1132,"o":"m 240 214 q 194 199 213 200 q 169 204 175 194 q 188 217 167 211 q 240 214 208 224 m 418 258 q 435 271 426 264 q 454 285 444 278 q 456 223 456 251 q 456 182 456 194 q 453 161 456 171 q 443 149 451 151 q 404 168 436 146 q 376 185 390 176 q 343 204 361 194 q 377 228 358 214 q 418 258 396 243 m 560 713 q 574 695 575 704 q 563 681 572 686 q 538 665 551 674 q 510 650 525 657 q 509 663 510 656 q 508 676 508 669 q 508 716 508 694 q 506 758 507 738 q 535 732 521 744 q 560 713 550 719 m 185 144 q 236 148 211 143 q 288 168 261 153 q 311 182 300 174 q 351 137 335 160 q 379 96 368 114 q 417 42 406 53 q 439 31 424 31 q 452 31 444 31 q 468 36 460 31 q 485 53 475 42 q 503 81 496 65 q 516 113 510 94 q 518 151 522 131 q 514 195 515 172 q 513 240 513 218 q 513 271 513 249 q 513 324 513 293 q 560 353 536 339 q 606 381 583 367 q 701 423 651 407 q 793 443 750 439 q 873 437 835 446 q 933 408 911 428 q 967 361 957 389 q 975 303 978 333 q 954 232 972 269 q 900 161 936 194 q 823 115 864 129 q 744 108 782 100 q 706 139 719 114 q 690 195 693 164 q 693 254 686 226 q 710 316 701 297 q 726 346 718 335 q 725 366 733 357 q 706 361 717 375 q 682 321 694 349 q 660 256 669 293 q 656 106 640 179 q 699 49 664 69 q 786 35 733 28 q 893 67 844 42 q 981 144 942 93 q 1038 238 1019 196 q 1053 326 1056 281 q 1022 410 1050 372 q 950 468 993 449 q 844 496 904 492 q 722 479 783 500 q 609 430 663 458 q 513 374 556 401 q 513 454 513 417 q 513 506 513 492 q 512 540 513 519 q 511 585 511 561 q 515 586 514 586 q 518 588 517 586 q 595 617 560 601 q 654 649 631 633 q 690 713 700 676 q 656 740 683 739 q 621 743 640 742 q 581 756 601 744 q 542 776 563 765 q 504 799 522 786 q 503 813 504 807 q 503 824 503 819 q 476 881 499 861 q 449 901 467 890 q 415 917 431 913 q 375 910 383 922 q 368 893 369 903 q 381 875 367 883 q 408 849 394 867 q 426 811 421 832 q 435 763 431 789 q 440 713 439 736 q 442 674 440 699 q 444 619 443 650 q 381 594 408 603 q 342 591 363 590 q 303 599 322 592 q 270 614 282 607 q 249 628 258 621 q 230 635 239 633 q 213 629 221 638 q 208 613 204 622 q 218 596 211 603 q 242 577 225 590 q 276 556 258 564 q 325 544 300 546 q 372 546 350 543 q 405 553 386 547 q 446 564 424 558 q 447 536 447 550 q 447 508 447 522 q 449 416 449 460 q 451 336 450 372 q 388 299 417 315 q 346 275 358 282 q 311 253 331 265 q 274 235 292 242 q 222 247 251 244 q 169 243 193 250 q 133 221 147 236 q 121 186 119 206 q 140 158 122 168 q 185 144 158 147 m 1115 682 q 1074 719 1100 703 q 1013 743 1047 736 q 940 752 972 753 q 881 738 907 751 q 840 708 853 722 q 821 683 828 694 q 818 669 817 675 q 821 661 819 664 q 843 668 832 654 q 865 683 853 678 q 894 694 878 689 q 934 698 913 700 q 979 683 956 696 q 1017 656 1004 669 q 1044 625 1031 643 q 1082 604 1060 606 q 1118 614 1104 603 q 1131 644 1132 625 q 1115 682 1129 663 z "},"か":{"ha":1389,"x_min":108,"x_max":1150,"o":"m 1067 600 q 1019 649 1039 632 q 986 674 999 667 q 963 685 974 681 q 946 685 951 690 q 944 665 938 675 q 958 647 950 654 q 985 622 972 636 q 1007 589 997 608 q 1022 544 1018 569 q 1024 493 1025 518 q 1010 431 1022 446 q 990 419 1003 424 q 965 414 976 415 q 945 410 956 411 q 925 408 935 408 q 910 403 915 408 q 903 390 904 397 q 929 368 903 374 q 970 363 942 367 q 1018 356 999 358 q 1063 353 1038 354 q 1110 357 1089 351 q 1140 443 1150 369 q 1115 524 1135 481 q 1067 600 1096 567 m 244 268 q 206 204 229 236 q 165 150 182 172 q 128 101 147 128 q 108 61 108 75 q 119 30 108 40 q 144 18 131 19 q 174 34 158 15 q 199 71 189 53 q 220 110 206 83 q 250 166 235 138 q 275 214 265 194 q 321 302 297 256 q 365 394 344 349 q 407 495 386 440 q 444 596 428 550 q 447 603 446 600 q 450 611 449 607 q 462 617 456 614 q 472 621 468 619 q 542 644 504 633 q 608 643 579 656 q 652 598 636 632 q 669 518 668 564 q 664 419 671 474 q 642 313 657 364 q 595 225 625 261 q 542 175 565 189 q 501 172 525 167 q 456 185 478 176 q 422 199 433 194 q 387 204 403 206 q 368 193 371 203 q 381 173 365 183 q 417 151 397 163 q 453 126 433 142 q 483 96 472 111 q 508 70 494 81 q 538 60 522 60 q 578 77 554 60 q 622 113 603 94 q 674 180 649 139 q 718 285 700 221 q 743 408 736 350 q 740 522 750 465 q 706 628 731 581 q 631 690 681 675 q 558 695 592 701 q 506 682 525 689 q 490 677 500 681 q 469 668 481 674 q 489 731 481 700 q 499 788 497 761 q 497 858 503 829 q 483 904 490 886 q 456 928 478 919 q 419 926 433 936 q 410 903 406 917 q 422 875 414 889 q 436 837 431 863 q 439 785 442 811 q 432 724 436 758 q 415 647 428 689 q 390 638 401 643 q 369 631 379 633 q 312 608 346 619 q 250 592 278 597 q 203 588 222 586 q 169 592 183 589 q 142 589 156 594 q 124 571 129 583 q 129 546 121 561 q 164 519 138 531 q 215 509 189 508 q 256 517 240 510 q 296 535 272 522 q 342 558 319 547 q 392 583 361 569 q 358 506 376 546 q 325 433 340 467 q 282 343 303 388 q 244 268 261 299 z "},"が":{"ha":1389,"x_min":111,"x_max":1222,"o":"m 1194 801 q 1215 820 1208 806 q 1211 853 1222 835 q 1174 884 1200 869 q 1126 906 1149 899 q 1050 918 1083 918 q 1037 917 1044 918 q 1026 911 1029 917 q 1026 897 1022 906 q 1039 885 1031 889 q 1090 859 1069 871 q 1125 828 1110 847 q 1160 804 1139 813 q 1194 801 1181 796 m 1085 743 q 1108 763 1100 749 q 1106 793 1115 776 q 1069 827 1094 811 q 1021 850 1043 843 q 981 862 1000 857 q 946 868 963 867 q 933 867 940 868 q 922 861 926 867 q 933 835 914 849 q 981 801 961 817 q 1015 769 1000 785 q 1050 747 1031 756 q 1085 743 1069 739 m 1068 600 q 1020 649 1040 632 q 988 674 1000 667 q 964 685 975 681 q 947 685 953 690 q 946 664 939 675 q 960 647 953 653 q 987 622 974 636 q 1010 589 1000 608 q 1023 544 1019 569 q 1025 493 1026 518 q 1022 453 1024 468 q 1013 431 1019 439 q 992 419 1006 422 q 968 414 978 415 q 947 410 958 411 q 926 408 936 408 q 911 403 917 408 q 906 390 906 397 q 931 368 903 375 q 972 363 943 367 q 1019 356 1000 358 q 1065 353 1039 354 q 1111 357 1090 351 q 1143 443 1153 369 q 1118 524 1138 481 q 1068 600 1099 568 m 247 268 q 208 204 231 236 q 168 150 185 172 q 131 101 150 128 q 111 61 111 75 q 122 30 111 40 q 146 18 132 19 q 176 33 161 15 q 201 71 192 51 q 223 110 208 83 q 253 166 238 138 q 278 214 268 194 q 322 301 299 254 q 367 394 346 349 q 407 496 386 440 q 446 596 428 551 q 449 603 447 600 q 453 611 450 607 q 464 617 458 614 q 475 621 469 619 q 543 644 506 633 q 610 643 581 656 q 654 598 639 632 q 671 518 669 564 q 665 419 672 474 q 643 313 658 364 q 597 224 626 261 q 543 175 568 188 q 503 172 526 167 q 458 185 479 176 q 425 199 436 194 q 388 204 404 206 q 369 193 372 203 q 383 173 367 183 q 418 151 400 163 q 455 126 436 140 q 485 96 474 111 q 510 70 497 81 q 540 60 524 60 q 581 77 557 60 q 625 113 606 94 q 676 179 650 138 q 719 285 703 221 q 744 408 738 350 q 742 522 751 465 q 708 628 732 581 q 632 690 683 675 q 560 695 594 701 q 507 682 525 689 q 492 677 501 681 q 472 668 483 674 q 491 731 483 700 q 501 788 499 761 q 499 858 506 829 q 486 904 493 886 q 458 928 481 919 q 421 926 435 936 q 412 903 407 917 q 424 875 417 889 q 438 836 431 861 q 442 785 444 811 q 435 724 439 758 q 418 647 431 689 q 392 638 404 643 q 372 631 381 633 q 314 608 347 619 q 253 592 281 597 q 206 588 225 586 q 171 592 186 589 q 144 589 158 594 q 125 571 131 583 q 131 546 121 561 q 165 519 140 531 q 217 509 192 508 q 257 517 242 510 q 298 535 274 522 q 343 558 322 547 q 365 569 353 563 q 393 583 378 576 q 360 506 378 546 q 328 433 343 467 q 285 343 306 388 q 247 268 264 299 z "},"き":{"ha":1389,"x_min":267,"x_max":985,"o":"m 703 715 q 750 696 718 708 q 803 676 782 683 q 839 664 822 669 q 857 653 856 658 q 847 640 858 647 q 825 626 836 632 q 784 608 813 619 q 717 582 756 596 q 683 658 700 617 q 657 718 667 699 q 654 727 656 722 q 650 736 653 732 q 651 736 651 736 q 653 736 651 736 q 678 724 664 731 q 703 715 693 718 m 431 924 q 463 905 447 915 q 493 882 478 894 q 554 808 538 846 q 558 797 556 804 q 567 781 561 790 q 510 765 539 771 q 457 758 481 758 q 381 772 407 760 q 358 779 369 778 q 342 774 347 781 q 360 738 325 753 q 402 722 376 731 q 457 711 428 714 q 519 711 485 708 q 593 722 553 714 q 600 703 596 713 q 608 685 604 694 q 634 626 621 658 q 661 564 647 594 q 611 549 638 557 q 561 538 585 542 q 490 528 529 531 q 422 529 451 526 q 360 544 394 531 q 307 571 325 557 q 289 582 299 578 q 271 579 279 586 q 269 562 267 574 q 282 539 271 550 q 360 496 308 514 q 417 481 386 486 q 483 475 449 475 q 560 483 518 475 q 633 499 603 490 q 656 504 643 501 q 682 511 668 507 q 703 456 692 486 q 724 402 715 426 q 736 368 733 378 q 746 333 742 350 q 743 310 750 317 q 725 306 733 303 q 708 313 717 310 q 661 322 699 315 q 586 331 624 329 q 501 328 549 333 q 418 310 453 322 q 352 275 383 297 q 307 214 321 253 q 301 133 294 175 q 332 60 307 90 q 405 11 357 31 q 506 -17 453 -8 q 615 -24 557 -24 q 708 -21 672 -25 q 763 -12 744 -18 q 789 3 782 -6 q 792 26 796 11 q 771 54 789 42 q 696 72 733 78 q 642 64 676 69 q 581 57 608 58 q 511 58 553 56 q 435 71 469 61 q 377 99 400 82 q 346 146 354 115 q 350 206 339 176 q 388 251 361 235 q 468 281 425 274 q 556 286 511 289 q 630 273 600 283 q 688 244 660 263 q 742 219 717 226 q 785 217 767 211 q 840 267 829 231 q 838 303 844 282 q 822 344 832 324 q 802 390 817 356 q 770 462 788 424 q 742 528 753 500 q 779 539 761 533 q 817 551 797 544 q 903 585 867 568 q 961 618 939 603 q 984 657 983 636 q 960 685 985 678 q 903 699 935 693 q 847 710 872 706 q 802 718 831 713 q 748 730 774 724 q 714 738 722 736 q 701 742 708 739 q 686 747 693 744 q 728 764 710 756 q 757 779 747 772 q 781 806 775 790 q 763 832 788 822 q 718 841 739 843 q 683 832 697 839 q 658 820 674 828 q 622 804 642 813 q 610 838 617 822 q 597 864 603 853 q 570 913 585 889 q 532 946 556 936 q 483 964 506 958 q 449 971 461 969 q 427 973 439 972 q 410 965 415 974 q 409 944 406 956 q 431 924 413 932 z "},"ぎ":{"ha":1389,"x_min":265,"x_max":1143,"o":"m 1115 835 q 1137 855 1131 840 q 1132 886 1143 869 q 1096 918 1122 904 q 1047 939 1069 932 q 1006 949 1025 946 q 969 951 988 951 q 958 951 965 951 q 947 944 950 950 q 947 931 944 939 q 960 918 950 922 q 1010 893 990 906 q 1044 861 1031 881 q 1079 838 1058 844 q 1115 835 1100 831 m 1006 778 q 1028 796 1019 782 q 1025 828 1036 810 q 989 861 1014 846 q 943 883 964 876 q 902 895 921 890 q 867 901 883 900 q 853 901 861 901 q 843 894 846 900 q 856 868 836 883 q 901 835 882 850 q 935 804 919 819 q 971 781 950 789 q 1006 778 992 774 m 701 715 q 749 696 718 708 q 801 676 781 683 q 838 664 822 669 q 856 653 854 658 q 847 640 858 647 q 825 626 835 632 q 784 608 813 619 q 717 582 756 596 q 683 658 700 617 q 656 718 665 699 q 650 736 656 725 l 651 736 q 678 724 664 731 q 701 715 692 718 m 429 924 q 493 882 464 906 q 530 845 514 865 q 553 808 546 825 q 558 797 556 804 q 565 781 561 790 q 508 765 539 771 q 456 758 478 758 q 381 772 404 761 q 358 779 368 778 q 340 774 347 781 q 338 755 333 765 q 358 738 342 744 q 401 722 375 731 q 456 711 426 714 q 518 711 483 708 q 592 722 553 714 q 599 703 596 713 q 607 685 603 694 q 633 626 619 658 q 660 564 647 594 q 610 549 636 557 q 561 538 583 542 q 490 528 529 531 q 422 529 450 526 q 360 543 394 531 q 306 571 325 556 q 288 582 299 578 q 271 579 278 586 q 267 562 265 574 q 281 539 269 550 q 358 496 307 514 q 417 481 386 486 q 482 475 449 475 q 559 483 517 475 q 632 499 601 490 q 654 504 642 501 q 681 511 667 507 q 703 456 692 486 q 723 402 714 426 q 735 368 732 378 q 746 333 742 350 q 743 310 750 315 q 724 306 733 303 q 707 313 715 310 q 660 322 699 315 q 585 331 622 329 q 500 328 547 333 q 417 310 453 324 q 350 275 381 297 q 306 214 319 253 q 300 133 293 175 q 332 60 307 90 q 404 10 357 31 q 504 -17 451 -10 q 613 -24 556 -24 q 707 -21 671 -25 q 763 -11 744 -17 q 788 3 781 -6 q 792 26 794 11 q 769 54 789 42 q 694 72 732 78 q 642 64 675 69 q 581 57 608 58 q 511 58 553 56 q 433 71 469 61 q 375 99 397 82 q 344 146 353 115 q 349 206 338 176 q 386 251 360 236 q 467 282 424 275 q 554 286 510 289 q 628 273 597 283 q 688 244 660 263 q 740 219 715 228 q 785 217 765 211 q 839 267 826 228 q 836 303 843 282 q 821 344 829 325 q 802 390 817 357 q 770 462 788 424 q 740 528 753 500 q 778 539 758 533 q 817 551 797 544 q 902 585 865 568 q 961 618 939 601 q 983 656 983 635 q 958 685 983 678 q 902 699 933 693 q 846 710 871 706 q 802 718 831 713 q 748 730 774 724 q 713 738 722 736 q 699 742 707 739 q 685 747 692 744 q 757 779 736 764 q 780 806 774 790 q 761 832 786 822 q 717 841 738 843 q 682 832 697 839 q 658 820 674 828 q 622 804 642 813 q 609 838 615 822 q 596 864 603 853 q 569 913 583 889 q 532 946 556 936 q 483 965 506 960 q 447 971 461 969 q 425 973 436 972 q 408 965 414 974 q 408 944 404 956 q 429 924 413 932 z "},"く":{"ha":1389,"x_min":450,"x_max":803,"o":"m 639 726 q 701 777 667 751 q 756 822 735 803 q 800 897 799 861 q 769 968 803 940 q 741 992 756 983 q 714 993 726 1000 q 706 978 706 988 q 707 957 706 968 q 712 931 710 947 q 704 899 714 914 q 664 851 694 885 q 608 786 633 817 q 571 737 592 767 q 530 676 550 707 q 497 621 510 644 q 464 547 478 586 q 451 483 450 508 q 474 433 453 458 q 508 385 494 407 q 550 324 522 364 q 597 243 578 283 q 637 165 618 203 q 665 93 656 128 q 681 35 675 58 q 693 -8 688 11 q 710 -38 697 -28 q 742 -46 724 -49 q 775 22 775 -42 q 763 93 775 54 q 731 174 751 132 q 686 247 711 211 q 635 315 661 282 q 581 380 607 349 q 543 428 554 411 q 516 461 531 444 q 501 490 501 478 q 510 533 501 503 q 538 594 519 564 q 583 663 556 625 q 639 726 611 701 z "},"ぐ":{"ha":1389,"x_min":447,"x_max":1119,"o":"m 1092 718 q 1113 737 1106 722 q 1108 768 1119 751 q 1072 800 1097 786 q 1024 819 1046 814 q 946 833 981 833 q 934 833 942 833 q 924 828 926 832 q 936 801 914 811 q 986 774 967 788 q 1021 743 1006 761 q 1057 719 1036 726 q 1092 718 1078 713 m 982 660 q 1004 678 997 664 q 1001 710 1011 692 q 966 743 992 728 q 918 767 940 758 q 878 778 897 774 q 843 783 860 783 q 830 783 838 783 q 819 778 822 782 q 831 751 810 761 q 878 717 858 733 q 911 686 897 700 q 946 665 925 672 q 982 660 967 657 m 638 726 q 699 777 664 751 q 756 822 735 803 q 799 897 797 861 q 768 968 801 940 q 739 992 753 983 q 713 993 725 1000 q 703 978 704 988 q 706 957 703 968 q 710 931 708 947 q 703 899 713 914 q 663 851 693 885 q 607 786 632 817 q 570 737 592 767 q 528 676 549 707 q 496 621 508 644 q 463 547 478 586 q 450 483 447 508 q 472 433 453 458 q 507 385 492 407 q 550 324 522 364 q 596 243 578 283 q 634 165 615 203 q 664 93 653 128 q 681 35 675 58 q 692 -8 686 11 q 709 -38 696 -28 q 739 -46 722 -49 q 774 22 774 -42 q 762 94 774 54 q 729 174 750 133 q 685 247 710 211 q 633 315 661 282 q 580 380 606 349 q 542 428 554 411 q 514 461 528 444 q 500 490 500 478 q 509 533 500 503 q 536 594 518 564 q 583 663 554 625 q 638 726 611 701 z "},"け":{"ha":1389,"x_min":172,"x_max":1072,"o":"m 957 697 q 933 686 947 692 q 901 675 918 681 q 899 726 900 701 q 897 772 899 750 q 915 758 907 764 q 931 746 924 751 q 950 731 942 738 q 963 722 958 725 q 967 711 967 719 q 957 697 967 703 m 894 818 q 886 897 892 861 q 865 950 881 933 q 800 988 836 981 q 754 981 761 994 q 756 958 747 969 q 776 938 764 947 q 800 908 790 926 q 813 863 810 889 q 819 792 817 831 q 822 722 822 753 q 822 692 822 710 q 822 654 822 674 q 781 644 803 647 q 732 639 758 642 q 674 636 701 636 q 618 644 647 636 q 589 639 596 651 q 598 617 585 629 q 638 601 611 606 q 718 594 674 594 q 806 594 763 593 q 815 596 810 596 q 822 596 819 596 q 823 563 824 579 q 822 531 822 546 q 817 425 822 486 q 806 319 811 364 q 779 228 799 275 q 733 149 760 182 q 688 92 710 117 q 649 51 667 67 q 610 17 631 35 q 579 -7 590 0 q 560 -22 567 -15 q 556 -35 553 -28 q 604 -31 565 -51 q 657 4 622 -19 q 740 74 692 28 q 819 180 789 121 q 868 294 850 239 q 895 415 886 353 q 904 538 904 478 q 903 570 904 553 q 903 606 903 588 q 963 618 933 611 q 1010 631 992 625 q 1058 657 1044 642 q 1071 688 1072 672 q 1024 739 1071 718 q 979 758 1003 747 q 938 781 956 769 q 915 799 926 789 q 894 818 904 808 m 418 532 q 428 569 436 563 q 414 567 424 574 q 394 550 404 561 q 359 505 385 539 q 308 428 333 471 q 274 359 286 385 q 250 306 261 333 q 253 412 247 364 q 275 515 260 460 q 308 608 290 571 q 336 669 325 644 q 351 726 347 696 q 349 801 356 757 q 324 885 342 849 q 289 942 306 922 q 238 965 254 982 q 243 922 226 953 q 258 883 250 908 q 269 831 267 857 q 273 769 274 804 q 263 696 272 733 q 240 619 253 658 q 217 536 226 579 q 198 447 207 493 q 183 350 189 401 q 200 143 172 243 q 233 63 214 93 q 265 18 251 32 q 293 3 278 6 q 319 6 308 0 q 336 29 332 10 q 332 72 340 49 q 313 135 325 96 q 301 218 300 175 q 315 316 303 260 q 346 407 328 372 q 386 480 364 443 q 418 532 408 517 z "},"げ":{"ha":1389,"x_min":171,"x_max":1219,"o":"m 1192 838 q 1213 857 1206 842 q 1208 889 1219 872 q 1171 919 1197 906 q 1122 940 1144 933 q 1081 951 1100 947 q 1046 954 1063 954 q 1034 953 1042 954 q 1024 947 1026 953 q 1036 921 1014 931 q 1086 895 1067 907 q 1121 864 1106 883 q 1156 840 1135 847 q 1192 838 1176 832 m 1081 781 q 1103 798 1096 783 q 1101 831 1111 813 q 1066 864 1092 849 q 1018 886 1040 879 q 978 898 997 893 q 943 903 958 903 q 929 903 936 904 q 918 897 922 903 q 931 871 911 882 q 1011 806 985 835 q 1046 784 1025 792 q 1081 781 1067 776 m 956 697 q 900 675 936 686 q 898 726 899 701 q 896 772 897 750 q 914 758 906 764 q 929 746 922 751 q 949 731 940 738 q 961 722 957 725 q 966 711 965 719 q 956 697 967 703 m 893 818 q 885 897 892 861 q 864 950 879 933 q 799 988 835 981 q 753 981 760 994 q 755 958 747 969 q 775 938 763 947 q 799 908 789 926 q 811 863 808 889 q 818 792 815 831 q 821 722 821 753 q 821 692 821 710 q 821 654 821 674 q 780 644 801 647 q 731 639 758 642 q 674 636 700 636 q 618 644 647 636 q 588 639 594 651 q 597 617 583 629 q 636 601 610 606 q 717 594 672 594 q 806 594 761 593 q 813 596 808 596 q 822 596 818 596 q 822 563 822 579 q 821 531 822 546 q 816 425 821 486 q 804 319 811 364 q 778 228 797 275 q 733 149 760 182 q 647 51 683 83 q 609 17 629 35 q 578 -7 589 0 q 558 -22 565 -15 q 556 -35 551 -28 q 572 -42 558 -42 q 603 -31 585 -42 q 656 4 622 -19 q 739 74 690 28 q 819 180 788 121 q 868 294 850 239 q 903 538 906 415 q 902 570 903 553 q 901 606 901 588 q 962 618 933 611 q 1008 631 990 625 q 1057 657 1043 642 q 1069 688 1071 672 q 1022 739 1069 718 q 978 758 1001 747 q 936 781 956 769 q 914 799 925 789 q 893 818 903 808 m 417 532 q 426 569 436 561 q 413 567 422 574 q 393 550 403 561 q 358 505 383 539 q 307 428 332 471 q 272 359 283 385 q 249 306 260 333 q 253 412 246 364 q 275 515 260 460 q 307 608 290 571 q 335 669 324 644 q 349 726 346 696 q 347 801 353 757 q 323 885 342 849 q 288 942 304 922 q 236 965 253 982 q 242 922 225 953 q 257 883 249 908 q 268 831 265 857 q 272 769 272 804 q 261 696 272 733 q 238 619 251 658 q 215 536 225 579 q 197 447 206 493 q 182 350 189 401 q 199 143 171 243 q 231 63 213 93 q 264 18 250 32 q 292 3 276 6 q 318 6 308 0 q 335 29 331 10 q 331 72 339 49 q 311 135 324 96 q 300 218 299 175 q 313 316 301 260 q 344 407 325 372 q 385 480 364 443 q 417 532 406 517 z "},"こ":{"ha":1389,"x_min":271,"x_max":981,"o":"m 307 281 q 299 300 304 290 q 283 308 293 310 q 274 297 278 308 q 274 265 271 285 q 285 224 276 247 q 311 181 293 200 q 363 144 329 163 q 446 111 397 126 q 562 83 507 92 q 682 71 617 74 q 813 76 750 68 q 918 94 876 83 q 969 119 958 107 q 979 143 981 132 q 963 164 976 153 q 936 182 950 175 q 900 190 922 189 q 858 182 878 190 q 790 162 839 175 q 697 144 742 149 q 588 149 653 142 q 465 174 524 157 q 397 198 431 183 q 336 236 364 213 q 317 260 322 247 q 307 281 311 272 m 656 742 q 656 719 644 728 q 667 717 660 717 q 688 728 675 718 q 717 748 699 736 q 747 769 735 760 q 769 788 761 781 q 792 801 778 794 q 823 819 810 811 q 831 847 836 828 q 815 873 826 865 q 779 878 804 881 q 717 864 754 875 q 649 847 681 853 q 589 838 617 842 q 540 835 561 835 q 497 838 519 835 q 463 846 474 842 q 438 853 450 851 q 418 844 426 854 q 421 826 411 839 q 451 806 431 813 q 507 794 472 800 q 576 782 542 788 q 638 774 613 776 q 686 769 664 771 q 674 757 686 769 q 656 742 661 744 z "},"ご":{"ha":1389,"x_min":271,"x_max":1186,"o":"m 1157 821 q 1179 841 1172 826 q 1175 872 1186 856 q 1138 904 1164 889 q 1090 925 1113 919 q 1013 938 1044 938 q 999 937 1007 938 q 990 931 992 936 q 990 917 986 925 q 1003 906 993 908 q 1053 879 1033 892 q 1088 847 1072 867 q 1122 824 1101 832 q 1157 821 1143 817 m 1049 764 q 1071 783 1064 768 q 1068 814 1078 797 q 1033 847 1058 832 q 985 869 1007 863 q 908 888 943 886 q 897 887 904 888 q 886 881 889 886 q 897 856 878 868 q 943 822 924 838 q 978 790 963 806 q 1013 767 992 775 q 1049 764 1033 760 m 307 282 q 299 301 306 292 q 285 310 293 311 q 274 297 278 308 q 274 268 271 286 q 285 224 276 249 q 311 182 293 200 q 363 146 329 164 q 447 113 397 128 q 563 85 508 94 q 682 74 617 76 q 813 77 750 71 q 918 96 876 83 q 969 121 958 108 q 979 143 981 133 q 964 166 976 154 q 936 185 951 178 q 858 185 903 201 q 790 164 839 178 q 697 147 742 150 q 589 151 653 144 q 467 175 525 158 q 397 200 431 186 q 336 238 364 214 q 317 261 322 249 q 307 282 311 274 m 657 743 q 651 733 653 738 q 656 721 650 728 q 688 729 667 713 q 717 750 700 738 q 747 772 733 763 q 770 790 761 783 q 792 803 779 796 q 823 822 810 813 q 831 849 836 831 q 815 874 826 867 q 781 879 804 881 q 717 866 754 876 q 649 849 681 856 q 540 838 585 838 q 497 840 519 838 q 463 847 475 843 q 440 854 451 853 q 418 846 428 856 q 422 826 413 839 q 451 807 431 814 q 507 794 472 800 q 578 783 542 789 q 639 775 614 778 q 686 771 664 772 q 674 758 686 771 q 657 743 663 746 z "},"さ":{"ha":1389,"x_min":222,"x_max":1001,"o":"m 967 853 q 911 851 943 851 q 851 857 879 851 q 782 876 822 861 q 719 900 742 890 q 640 936 671 919 q 603 942 625 943 q 569 925 581 942 q 563 891 557 910 q 585 858 569 872 q 622 818 601 844 q 661 764 642 792 q 701 703 679 739 q 665 691 683 697 q 631 681 647 685 q 562 665 596 672 q 496 651 528 657 q 427 644 464 646 q 360 647 390 642 q 308 660 329 651 q 276 676 288 669 q 253 690 267 683 q 228 689 239 697 q 228 672 222 683 q 246 650 233 661 q 343 604 271 626 q 426 592 379 593 q 515 594 474 590 q 609 609 557 599 q 708 632 661 619 q 723 636 715 633 q 738 640 731 639 q 748 622 743 631 q 756 604 753 613 q 792 530 774 565 q 817 479 810 494 q 828 450 824 464 q 833 425 832 436 q 803 385 836 382 q 767 391 789 385 q 722 404 744 397 q 666 417 701 410 q 601 428 631 425 q 522 428 574 431 q 431 410 471 425 q 352 353 383 393 q 321 267 321 314 q 344 169 321 215 q 407 89 368 122 q 499 33 446 54 q 607 7 551 11 q 719 4 663 3 q 808 13 776 6 q 854 61 875 25 q 824 89 843 81 q 786 97 806 97 q 742 94 767 97 q 694 88 718 90 q 635 86 672 85 q 560 96 597 88 q 492 115 522 103 q 438 147 463 128 q 391 198 413 167 q 367 267 369 229 q 389 336 364 307 q 450 375 414 365 q 614 375 526 394 q 672 357 646 368 q 721 332 697 346 q 813 285 771 301 q 886 289 856 268 q 910 317 906 301 q 914 349 915 333 q 906 383 913 364 q 889 425 900 403 q 872 465 883 439 q 850 518 861 492 q 832 564 839 544 q 813 606 825 581 q 789 658 801 632 q 856 687 824 672 q 910 715 889 701 q 967 765 944 738 q 996 807 989 793 q 996 838 1001 822 q 967 853 990 854 m 872 783 q 836 763 861 778 q 778 733 811 747 q 767 728 772 731 q 754 724 761 726 q 720 786 739 751 q 693 832 701 821 q 672 858 683 844 q 667 879 661 872 q 683 881 672 886 q 707 868 693 875 q 739 852 719 860 q 783 836 758 844 q 835 819 810 828 q 872 808 860 811 q 883 797 883 806 q 872 783 883 789 z "},"ざ":{"ha":1389,"x_min":222,"x_max":1206,"o":"m 1069 882 q 1091 900 1083 886 q 1089 932 1099 914 q 1053 965 1078 950 q 1006 989 1028 981 q 931 1006 964 1003 q 917 1006 925 1006 q 907 1000 910 1006 q 918 972 899 986 q 999 908 969 939 q 1035 886 1014 894 q 1069 882 1056 878 m 1178 940 q 1199 959 1193 944 q 1196 990 1206 974 q 1158 1022 1185 1008 q 1110 1043 1132 1036 q 1033 1056 1067 1056 q 1022 1055 1029 1056 q 1011 1050 1014 1054 q 1010 1035 1007 1043 q 1024 1022 1014 1026 q 1108 965 1081 999 q 1143 942 1122 950 q 1178 940 1164 935 m 967 856 q 911 854 943 854 q 851 860 879 854 q 782 878 822 864 q 719 903 742 893 q 640 939 671 922 q 603 945 625 946 q 568 928 581 944 q 563 894 557 913 q 585 861 569 875 q 622 821 601 847 q 661 767 642 794 q 680 740 669 756 q 701 706 690 724 q 665 694 683 700 q 631 683 647 688 q 562 667 596 675 q 496 654 528 660 q 427 646 464 647 q 360 650 390 644 q 308 663 329 654 q 276 679 286 672 q 253 693 267 686 q 228 692 239 700 q 228 674 222 686 q 246 651 233 663 q 343 607 272 629 q 426 594 379 594 q 515 597 474 593 q 609 612 557 601 q 708 635 661 622 q 723 639 715 636 q 738 643 731 642 q 747 624 743 633 q 756 607 751 615 q 792 533 774 568 q 817 482 810 497 q 828 453 824 467 q 833 428 832 439 q 803 388 836 385 q 767 394 789 388 q 722 407 744 400 q 666 420 701 413 q 601 429 631 428 q 522 430 574 432 q 431 413 471 428 q 352 356 383 396 q 321 268 321 317 q 344 172 321 218 q 407 90 368 125 q 498 35 444 57 q 607 10 551 14 q 719 7 663 6 q 808 15 776 8 q 854 64 875 28 q 824 92 843 83 q 786 100 806 100 q 742 97 767 100 q 694 90 718 93 q 635 89 672 88 q 560 99 597 90 q 492 118 522 106 q 438 150 463 131 q 391 201 413 169 q 367 268 369 232 q 389 339 364 310 q 450 378 414 368 q 614 378 526 397 q 672 360 646 371 q 721 335 697 349 q 813 288 771 304 q 886 292 856 271 q 910 320 906 304 q 914 351 914 336 q 906 386 913 367 q 889 428 899 406 q 872 467 883 442 q 850 520 861 493 q 832 565 839 547 q 813 608 825 582 q 789 661 801 635 q 856 690 824 675 q 910 718 889 704 q 967 768 944 740 q 996 810 989 796 q 996 840 1001 825 q 967 856 990 856 m 872 786 q 836 765 861 781 q 778 736 811 750 q 767 731 772 733 q 754 726 761 728 q 720 789 739 754 q 692 835 701 824 q 672 861 682 847 q 667 882 661 875 q 683 883 672 889 q 707 871 693 878 q 739 855 719 863 q 783 839 758 847 q 835 822 810 831 q 872 811 860 814 q 883 800 883 808 q 872 786 883 792 z "},"し":{"ha":1389,"x_min":281,"x_max":1022,"o":"m 293 404 q 286 310 292 365 q 290 207 281 256 q 327 117 299 158 q 392 50 356 75 q 478 10 426 25 q 578 1 531 -4 q 683 28 625 7 q 794 89 740 49 q 891 165 849 128 q 956 221 933 203 q 991 256 976 239 q 1011 279 1006 272 q 1013 301 1022 292 q 989 294 1001 310 q 963 272 983 290 q 928 242 943 253 q 878 205 911 229 q 818 165 844 181 q 753 128 792 149 q 692 96 714 107 q 635 76 669 85 q 569 67 601 68 q 494 76 539 64 q 422 114 450 88 q 376 174 396 139 q 349 256 356 208 q 346 358 342 303 q 354 449 350 414 q 362 517 356 472 q 374 603 368 561 q 382 661 379 644 q 397 731 388 689 q 413 799 407 772 q 421 850 418 825 q 408 894 424 875 q 379 924 394 914 q 354 939 364 933 q 333 947 344 944 q 315 944 322 950 q 308 928 308 939 q 314 908 308 917 q 328 880 318 900 q 338 839 338 860 q 335 797 338 825 q 328 737 332 768 q 324 682 325 706 q 318 628 322 665 q 308 546 314 590 q 299 463 303 501 q 293 404 294 424 z "},"じ":{"ha":1389,"x_min":281,"x_max":1054,"o":"m 1026 681 q 1048 700 1042 686 q 1043 731 1054 714 q 1006 763 1032 749 q 958 783 981 778 q 881 796 915 797 q 869 796 876 796 q 858 790 861 796 q 871 764 851 772 q 922 738 903 750 q 956 706 942 725 q 990 683 969 690 q 1026 681 1011 675 m 918 622 q 940 641 933 626 q 936 674 947 656 q 901 706 926 690 q 854 729 875 721 q 813 741 832 736 q 778 746 794 746 q 765 746 772 746 q 756 742 758 746 q 767 714 746 726 q 812 681 793 696 q 846 650 831 665 q 882 626 861 635 q 918 622 903 618 m 294 404 q 286 310 292 365 q 290 207 281 256 q 328 117 299 158 q 393 50 358 75 q 479 10 428 25 q 579 1 531 -4 q 684 28 626 6 q 794 89 742 50 q 892 166 850 129 q 956 221 935 203 q 992 256 976 240 q 1013 279 1007 272 q 1014 301 1022 289 q 990 294 1001 308 q 963 272 983 290 q 928 242 943 254 q 878 205 913 229 q 818 165 844 181 q 753 128 792 149 q 693 96 714 107 q 636 76 669 85 q 571 67 603 68 q 494 76 539 64 q 424 114 450 88 q 376 174 397 140 q 350 256 356 208 q 348 358 344 303 q 356 449 351 414 q 363 517 358 472 q 374 603 368 561 q 382 661 379 644 q 398 731 388 689 q 414 799 408 772 q 422 851 419 825 q 410 894 425 876 q 380 924 394 914 q 356 939 365 933 q 333 948 344 944 q 315 944 322 951 q 308 928 308 939 q 314 908 308 917 q 328 880 318 900 q 339 839 339 860 q 336 797 339 825 q 331 737 333 768 q 325 682 328 706 q 319 628 324 665 q 310 546 315 590 q 301 463 306 501 q 294 404 297 424 z "},"す":{"ha":1389,"x_min":115,"x_max":1140,"o":"m 1106 742 q 1049 758 1078 751 q 1000 771 1019 765 q 900 813 963 781 q 833 849 869 828 q 785 881 797 871 q 753 906 771 892 q 725 929 736 919 q 717 935 722 932 q 705 955 713 944 q 686 972 697 965 q 647 992 664 986 q 615 992 629 999 q 606 970 606 986 q 617 933 607 954 q 635 886 626 913 q 649 833 644 860 q 653 801 650 819 q 657 764 656 783 q 581 751 624 758 q 507 740 539 744 q 438 730 472 736 q 379 721 403 724 q 329 713 356 717 q 267 714 303 708 q 210 722 231 718 q 171 735 189 726 q 149 742 161 740 q 125 735 136 744 q 117 710 115 726 q 133 678 118 694 q 169 651 147 660 q 232 643 192 642 q 322 655 272 644 q 410 672 372 665 q 489 688 447 678 q 574 700 531 697 q 614 703 592 701 q 661 707 636 706 q 661 698 661 703 q 661 689 661 693 q 659 632 660 661 q 657 572 658 603 q 647 578 651 575 q 635 585 642 582 q 569 595 607 600 q 511 582 531 590 q 472 543 488 572 q 454 464 456 514 q 462 376 453 414 q 496 299 471 338 q 553 240 521 260 q 621 232 585 221 q 667 271 642 240 q 667 219 667 244 q 664 175 667 194 q 643 110 658 142 q 608 56 628 79 q 563 14 589 32 q 506 -18 536 -4 q 483 -28 494 -22 q 474 -39 472 -33 q 513 -46 475 -50 q 565 -29 529 -44 q 632 21 601 -14 q 689 99 663 56 q 722 185 715 143 q 735 259 729 228 q 743 304 742 290 q 749 360 749 326 q 740 442 749 394 q 722 507 733 483 q 717 558 719 533 q 714 600 715 583 q 713 656 713 626 q 715 710 714 686 q 753 712 733 711 q 792 713 772 713 q 884 710 849 713 q 956 706 919 708 q 1026 696 992 703 q 1076 685 1061 689 q 1108 678 1090 679 q 1133 686 1125 676 q 1137 715 1140 697 q 1106 742 1133 733 m 642 350 q 589 300 622 300 q 544 315 569 300 q 508 350 518 329 q 488 417 492 386 q 483 476 483 449 q 502 524 483 504 q 544 544 521 544 q 583 538 561 544 q 624 515 606 532 q 647 468 642 499 q 651 442 650 454 q 654 421 653 431 q 642 350 653 374 m 718 772 q 720 824 719 794 q 722 875 721 854 q 747 855 733 865 q 769 838 760 844 q 803 810 781 828 q 842 781 825 792 q 778 780 810 783 q 718 772 746 776 z "},"ず":{"ha":1389,"x_min":113,"x_max":1200,"o":"m 1063 843 q 1085 861 1078 847 q 1082 893 1092 875 q 1047 926 1072 911 q 999 949 1021 942 q 924 967 958 964 q 910 966 918 967 q 900 961 903 965 q 911 933 892 947 q 992 869 963 900 q 1027 847 1007 856 q 1063 843 1047 839 m 1172 901 q 1193 920 1186 906 q 1189 951 1200 935 q 1151 983 1178 969 q 1104 1003 1125 997 q 1026 1017 1063 1017 q 1015 1016 1022 1017 q 1004 1010 1007 1015 q 1003 995 1000 1003 q 1017 983 1007 988 q 1067 957 1047 969 q 1101 926 1086 944 q 1137 903 1115 911 q 1172 901 1158 896 m 1101 744 q 1044 760 1075 754 q 996 772 1014 767 q 953 789 978 778 q 897 814 928 800 q 831 851 867 829 q 781 883 794 872 q 750 908 768 893 q 721 932 732 922 q 713 936 717 936 q 701 958 708 947 q 682 975 694 968 q 642 995 660 989 q 611 993 625 1001 q 602 972 600 986 q 614 936 604 957 q 633 888 624 914 q 644 836 642 863 q 650 804 647 822 q 654 765 653 786 q 578 754 619 761 q 504 743 536 747 q 435 732 469 738 q 375 722 400 726 q 324 715 351 719 q 263 715 297 711 q 207 725 228 721 q 167 738 186 729 q 144 744 156 742 q 122 738 133 746 q 113 713 113 729 q 129 679 114 697 q 167 653 144 663 q 229 646 189 644 q 319 657 269 647 q 406 674 368 667 q 485 690 443 681 q 569 703 528 699 q 611 706 589 704 q 657 710 633 708 q 657 700 657 704 q 657 692 657 696 q 656 635 657 664 q 653 574 654 606 q 642 580 647 576 q 632 586 638 583 q 565 597 604 601 q 508 585 526 593 q 467 545 483 575 q 450 467 451 515 q 458 378 449 417 q 492 301 467 340 q 549 242 518 261 q 618 235 581 222 q 641 248 629 238 q 663 272 653 258 q 663 222 664 247 q 660 178 663 197 q 638 113 654 144 q 604 58 622 82 q 560 17 586 35 q 503 -15 533 -1 q 481 -25 492 -19 q 471 -36 469 -31 q 508 -43 472 -47 q 562 -26 525 -42 q 628 24 599 -11 q 685 101 658 58 q 718 188 711 144 q 731 262 725 231 q 740 306 738 293 q 744 363 744 328 q 738 444 744 397 q 719 510 731 485 q 714 561 717 536 q 711 603 711 586 q 709 659 708 629 q 711 713 710 689 q 750 715 731 714 q 788 715 769 715 q 881 713 844 715 q 953 708 917 711 q 1023 698 988 704 q 1072 686 1058 692 q 1104 681 1086 682 q 1129 689 1122 679 q 1133 718 1136 700 q 1101 744 1129 736 m 639 353 q 586 301 617 301 q 541 316 567 301 q 506 351 515 331 q 485 419 489 388 q 481 479 481 451 q 499 527 481 507 q 542 547 518 547 q 580 541 558 547 q 620 518 601 535 q 643 471 639 501 q 651 424 647 447 q 639 353 647 376 m 714 774 q 717 827 715 797 q 719 878 718 857 q 744 857 731 867 q 765 840 757 847 q 800 813 778 831 q 838 783 822 794 q 774 781 806 785 q 714 774 742 778 z "},"せ":{"ha":1389,"x_min":81,"x_max":1171,"o":"m 825 640 q 826 678 825 658 q 828 715 826 699 q 865 676 843 696 q 906 646 886 657 q 878 644 906 646 q 825 640 850 642 m 1088 663 q 1031 662 1060 664 q 990 658 1003 660 q 962 663 978 658 q 933 674 946 667 q 902 694 922 681 q 864 724 882 708 q 847 740 856 731 q 831 758 838 750 q 831 764 831 761 q 831 768 831 767 q 831 810 832 789 q 818 853 829 831 q 767 911 796 900 q 738 921 753 917 q 717 914 724 925 q 715 890 711 906 q 729 860 718 875 q 760 781 753 829 q 765 718 763 761 q 767 633 767 675 q 685 622 732 629 q 603 613 639 614 q 526 605 572 611 q 440 593 481 599 q 442 631 442 613 q 442 661 442 649 q 443 735 440 693 q 438 800 446 776 q 414 838 431 822 q 379 860 397 853 q 350 869 367 864 q 318 875 333 875 q 296 863 303 875 q 299 843 292 854 q 318 824 307 832 q 343 791 332 815 q 358 740 354 767 q 364 672 363 714 q 365 599 365 631 q 367 585 365 590 q 292 581 328 582 q 238 579 257 579 q 203 582 218 578 q 174 592 189 586 q 142 604 158 597 q 118 613 125 611 q 92 603 103 613 q 88 567 81 594 q 118 526 94 539 q 174 512 139 514 q 250 514 208 510 q 305 521 274 517 q 367 531 336 525 q 367 463 367 496 q 367 415 367 431 q 366 368 367 397 q 366 308 365 339 q 368 258 367 278 q 404 147 371 197 q 449 102 421 122 q 504 71 478 82 q 567 51 531 60 q 642 39 604 43 q 717 31 678 33 q 789 28 756 29 q 860 49 854 25 q 858 75 865 60 q 835 97 850 90 q 796 108 821 104 q 743 108 771 111 q 674 108 715 106 q 599 114 633 110 q 525 134 564 118 q 467 172 486 150 q 433 234 446 196 q 421 307 421 272 q 424 366 421 329 q 431 438 428 403 q 435 486 433 472 q 436 508 436 494 q 438 539 436 522 q 441 540 439 540 q 443 540 443 540 q 535 549 478 542 q 636 557 592 556 q 695 561 663 558 q 761 565 728 564 q 756 500 758 531 q 750 454 754 469 q 736 422 744 433 q 721 406 728 411 q 690 411 708 394 q 658 434 682 418 q 624 456 635 450 q 603 458 611 461 q 593 449 594 456 q 614 419 593 436 q 639 396 625 411 q 660 364 653 381 q 675 328 667 349 q 693 297 683 307 q 758 314 717 278 q 810 376 801 350 q 815 413 815 388 q 815 444 815 438 q 817 490 815 450 q 822 568 819 529 q 839 569 831 568 q 856 569 847 569 q 933 569 903 569 q 992 567 964 568 q 1058 563 1019 564 q 1125 569 1097 561 q 1162 593 1153 578 q 1161 622 1171 608 q 1133 649 1151 636 q 1088 663 1114 661 z "},"ぜ":{"ha":1389,"x_min":82,"x_max":1186,"o":"m 1158 790 q 1180 809 1174 794 q 1176 842 1186 824 q 1140 872 1167 858 q 1092 893 1113 886 q 1050 903 1069 900 q 1015 906 1031 906 q 1001 905 1008 906 q 992 900 994 904 q 992 886 988 894 q 1004 874 996 878 q 1054 848 1035 860 q 1089 817 1074 836 q 1124 792 1103 799 q 1158 790 1144 785 m 1050 732 q 1071 750 1064 736 q 1068 782 1078 764 q 1033 816 1058 800 q 986 839 1008 832 q 945 851 964 846 q 910 856 926 856 q 898 856 906 857 q 888 850 890 856 q 899 824 878 839 q 981 758 950 789 q 1015 737 994 744 q 1050 732 1036 729 m 825 640 q 827 678 826 658 q 828 715 828 699 q 865 676 844 696 q 906 646 886 657 q 878 644 906 646 q 825 640 851 642 m 1088 663 q 1031 662 1060 664 q 992 658 1003 660 q 963 663 979 658 q 935 674 946 667 q 865 724 906 689 q 831 758 846 742 q 831 764 831 761 q 831 768 831 767 q 831 810 833 789 q 818 853 829 831 q 767 911 796 900 q 738 921 753 917 q 717 914 724 925 q 715 890 711 906 q 729 860 718 875 q 760 781 753 829 q 765 718 763 761 q 767 633 768 675 q 686 622 733 629 q 603 613 639 614 q 527 605 572 611 q 440 593 482 599 q 442 631 442 613 q 443 661 443 649 q 444 735 442 693 q 438 800 446 776 q 413 838 429 824 q 379 860 397 853 q 350 869 367 864 q 318 875 333 875 q 296 863 303 875 q 299 843 292 854 q 319 824 307 832 q 344 791 333 815 q 358 740 354 767 q 365 672 363 714 q 367 599 367 631 q 367 592 367 596 q 367 585 367 589 q 294 581 329 582 q 239 579 258 579 q 174 592 203 578 q 142 604 158 597 q 118 613 125 611 q 92 603 103 613 q 89 567 82 594 q 118 526 96 539 q 174 512 139 514 q 250 514 208 510 q 305 521 274 517 q 367 531 336 525 q 367 463 368 496 q 367 415 367 431 q 367 368 367 397 q 367 308 367 339 q 368 258 367 278 q 379 199 368 229 q 406 147 390 169 q 450 102 422 122 q 506 71 478 82 q 569 51 533 60 q 642 39 604 43 q 717 31 679 33 q 790 28 756 29 q 861 49 854 26 q 858 75 865 60 q 836 97 850 90 q 797 108 822 104 q 743 108 771 111 q 675 108 715 106 q 600 114 635 110 q 525 134 564 118 q 467 172 486 150 q 433 234 446 196 q 421 307 421 272 q 424 367 421 331 q 431 437 428 403 q 435 486 435 471 q 435 508 435 494 q 438 539 436 522 q 444 540 440 540 q 537 549 481 542 q 638 557 593 556 q 696 561 663 558 q 763 567 729 564 q 757 500 760 531 q 751 454 754 469 q 738 422 746 433 q 721 406 729 411 q 692 411 708 394 q 660 435 683 419 q 624 456 636 450 q 603 458 613 461 q 593 449 594 456 q 615 419 593 436 q 640 396 625 411 q 661 364 654 381 q 676 328 668 349 q 694 297 683 308 q 758 314 717 279 q 793 348 781 332 q 810 376 806 364 q 815 413 815 388 q 815 444 815 438 q 817 490 815 450 q 822 568 819 529 q 839 569 831 568 q 856 569 847 569 q 934 569 903 569 q 992 567 965 568 q 1058 563 1019 564 q 1125 569 1097 561 q 1163 594 1153 579 q 1163 622 1172 608 q 1133 649 1153 636 q 1088 663 1114 661 z "},"そ":{"ha":1389,"x_min":222,"x_max":1025,"o":"m 971 508 q 1019 526 1010 510 q 1024 548 1025 533 q 1007 575 1024 563 q 976 593 992 586 q 943 600 960 600 q 903 593 928 600 q 864 581 879 586 q 827 569 849 576 q 783 553 806 561 q 724 528 763 544 q 651 497 685 511 q 594 474 629 489 q 524 445 560 460 q 468 424 489 431 q 401 401 435 413 q 353 386 367 389 q 327 383 342 383 q 311 389 313 383 q 322 408 310 394 q 350 440 335 422 q 385 479 361 453 q 435 533 408 506 q 478 576 461 560 q 525 622 494 592 q 587 683 556 653 q 638 732 618 714 q 683 772 658 750 q 729 813 708 794 q 757 838 750 831 q 779 863 769 849 q 789 889 789 876 q 765 926 789 911 q 740 939 750 936 q 721 943 729 942 q 668 936 708 949 q 612 919 649 931 q 543 906 575 908 q 490 899 510 901 q 460 897 471 896 q 440 903 449 900 q 425 910 431 907 q 411 918 419 915 q 397 917 403 921 q 387 885 388 911 q 406 843 386 860 q 453 821 425 826 q 506 819 481 815 q 566 836 533 825 q 615 856 599 847 q 645 870 632 863 q 667 872 658 878 q 665 858 672 868 q 643 833 658 847 q 619 807 636 826 q 581 763 601 788 q 540 717 560 739 q 507 682 519 694 q 465 638 492 667 q 413 581 439 610 q 371 533 388 551 q 315 472 346 506 q 263 419 285 439 q 232 383 242 401 q 229 350 222 364 q 244 325 236 338 q 263 306 253 313 q 287 298 271 300 q 318 303 303 296 q 358 319 331 308 q 415 343 386 331 q 457 360 444 356 q 506 381 478 368 q 542 396 533 394 q 553 397 549 400 q 551 388 558 394 q 527 356 543 378 q 500 299 511 333 q 488 220 488 258 q 503 150 489 182 q 549 93 517 119 q 607 51 581 67 q 676 22 639 33 q 750 7 714 11 q 810 2 786 4 q 842 19 833 0 q 844 48 849 38 q 831 69 839 58 q 803 91 821 81 q 764 101 786 101 q 700 107 742 101 q 628 128 658 113 q 578 160 599 142 q 553 207 558 179 q 547 274 544 242 q 564 342 549 306 q 592 393 578 376 q 614 413 607 410 q 643 428 619 415 q 694 455 667 442 q 740 472 722 468 q 798 485 765 478 q 863 496 831 492 q 924 504 894 501 q 971 508 953 507 z "},"ぞ":{"ha":1389,"x_min":225,"x_max":1161,"o":"m 1133 743 q 1155 763 1149 749 q 1151 794 1161 778 q 1114 827 1140 813 q 1067 847 1088 842 q 1025 857 1044 854 q 989 860 1006 860 q 976 859 983 860 q 967 854 969 858 q 979 828 957 838 q 1030 801 1011 814 q 1064 769 1049 789 q 1099 746 1078 753 q 1133 743 1119 739 m 1025 686 q 1046 704 1039 690 q 1043 736 1053 718 q 1008 769 1033 754 q 961 793 983 785 q 885 810 917 808 q 873 809 881 810 q 863 804 865 808 q 874 778 854 790 q 919 744 900 760 q 954 713 939 728 q 990 690 969 697 q 1025 686 1011 682 m 975 508 q 1024 526 1014 510 q 1028 548 1029 533 q 1011 575 1028 563 q 947 600 978 600 q 908 593 933 600 q 868 581 883 586 q 831 569 853 576 q 788 553 810 561 q 727 527 765 544 q 656 497 689 510 q 598 474 633 489 q 528 445 563 460 q 471 424 493 431 q 405 401 439 413 q 356 386 371 389 q 331 383 346 383 q 315 389 317 383 q 325 408 314 394 q 353 440 336 422 q 388 479 364 453 q 438 533 411 506 q 481 576 464 560 q 528 622 497 592 q 590 683 558 653 q 642 732 622 714 q 685 772 661 750 q 731 813 710 794 q 761 838 753 831 q 783 863 774 849 q 793 889 793 876 q 768 926 793 911 q 744 939 754 936 q 725 943 733 942 q 671 936 711 949 q 615 919 650 931 q 546 906 579 908 q 494 899 514 901 q 463 897 474 896 q 444 903 453 899 q 429 910 436 907 q 414 918 422 915 q 400 917 406 921 q 391 885 392 911 q 410 843 390 860 q 456 821 429 826 q 510 819 483 815 q 569 836 536 825 q 618 856 601 847 q 648 870 635 863 q 668 872 661 878 q 669 858 676 868 q 646 833 661 847 q 622 807 639 826 q 584 763 606 788 q 543 717 563 739 q 511 682 524 694 q 469 638 494 667 q 417 581 443 610 q 375 533 392 551 q 319 472 350 506 q 267 419 288 439 q 235 382 244 400 q 232 350 225 364 q 248 325 239 338 q 265 306 257 313 q 291 298 275 300 q 322 303 307 296 q 361 319 333 308 q 418 343 389 331 q 461 360 447 356 q 510 381 482 367 q 544 396 538 394 q 557 397 553 400 q 556 388 561 394 q 531 356 547 378 q 504 299 515 333 q 506 150 478 218 q 551 93 519 119 q 611 51 583 67 q 754 7 678 15 q 813 2 789 4 q 843 19 836 0 q 847 48 851 38 q 833 69 843 58 q 808 91 825 81 q 768 101 790 101 q 703 107 744 101 q 631 128 661 113 q 583 160 603 142 q 556 207 563 179 q 551 274 549 242 q 568 342 553 306 q 597 393 583 376 q 618 413 611 410 q 646 428 622 415 q 697 455 669 442 q 743 472 725 468 q 801 485 769 479 q 865 496 833 492 q 926 504 897 501 q 975 508 956 507 z "},"た":{"ha":1389,"x_min":181,"x_max":1079,"o":"m 990 94 q 940 90 969 94 q 885 81 911 85 q 768 85 828 75 q 661 150 700 97 q 656 276 631 192 q 681 344 669 319 q 700 381 693 369 q 706 407 714 403 q 683 393 699 413 q 664 362 678 386 q 631 293 650 338 q 602 208 611 250 q 614 119 593 165 q 672 48 635 75 q 786 8 710 21 q 922 -3 863 -3 q 1019 1 982 -3 q 1063 20 1046 3 q 1067 57 1079 38 q 1032 86 1053 78 q 990 94 1011 94 m 856 601 q 823 579 846 594 q 786 550 800 564 q 756 516 772 535 q 729 479 740 497 q 722 462 724 471 q 725 451 719 453 q 735 458 729 449 q 749 474 742 467 q 774 499 761 488 q 806 519 786 510 q 846 543 824 531 q 890 565 868 556 q 928 582 911 575 q 951 592 944 589 q 970 601 960 594 q 983 619 981 608 q 981 647 989 631 q 958 674 974 664 q 876 694 928 694 q 831 694 851 696 q 789 688 810 693 q 739 674 769 682 q 682 657 708 667 q 658 644 671 653 q 650 624 644 635 q 667 619 653 618 q 692 624 681 621 q 719 631 703 626 q 756 638 736 636 q 808 640 785 642 q 849 636 831 639 q 869 631 858 635 q 881 622 879 628 q 874 613 882 618 q 856 601 867 608 m 533 750 q 540 738 539 744 q 533 728 540 731 q 517 718 529 725 q 483 701 504 711 q 489 726 486 715 q 493 743 492 736 q 496 756 494 749 q 500 769 497 763 q 521 758 511 764 q 533 750 531 753 m 276 293 q 244 224 260 257 q 218 163 229 192 q 193 111 206 135 q 181 71 181 88 q 183 33 181 54 q 201 3 186 13 q 253 15 233 -17 q 268 47 257 22 q 292 103 279 71 q 317 168 306 136 q 336 221 329 200 q 358 290 344 249 q 383 369 372 332 q 400 424 394 407 q 415 472 406 440 q 436 534 425 503 q 451 583 447 565 q 456 601 453 592 q 463 624 460 611 q 495 628 479 625 q 525 635 511 632 q 592 662 560 644 q 639 696 624 679 q 656 746 667 726 q 634 762 650 756 q 599 772 618 768 q 554 785 579 776 q 508 806 529 794 q 513 838 511 821 q 508 869 514 856 q 488 915 499 900 q 464 938 478 929 q 435 951 450 947 q 408 947 419 954 q 401 923 397 939 q 414 894 406 907 q 431 860 422 883 q 442 811 439 836 q 440 752 443 789 q 426 679 436 715 q 371 666 393 669 q 326 661 349 663 q 264 665 282 660 q 240 673 250 668 q 228 679 231 678 q 215 683 222 682 q 204 679 208 685 q 203 656 197 672 q 229 632 210 640 q 286 619 256 622 q 356 615 317 615 q 380 616 367 615 q 407 618 393 617 q 381 535 396 578 q 356 472 365 493 q 333 420 347 453 q 303 353 318 388 q 276 293 288 319 z "},"だ":{"ha":1389,"x_min":183,"x_max":1185,"o":"m 1156 758 q 1178 778 1171 764 q 1174 810 1185 792 q 1138 841 1164 826 q 1089 861 1111 856 q 1011 875 1046 875 q 999 874 1007 875 q 989 868 992 874 q 1001 843 981 853 q 1053 815 1033 828 q 1086 785 1072 803 q 1121 761 1100 768 q 1156 758 1142 754 m 1047 701 q 1069 719 1063 704 q 1067 751 1076 733 q 1031 785 1056 769 q 983 807 1006 800 q 907 824 942 824 q 895 824 903 825 q 885 818 888 824 q 896 792 875 804 q 942 758 922 774 q 976 728 961 742 q 1013 705 992 713 q 1047 701 1033 697 m 993 94 q 944 90 974 94 q 888 81 914 85 q 830 78 857 78 q 771 85 803 78 q 711 108 739 92 q 665 150 683 125 q 647 201 650 169 q 658 276 644 233 q 684 344 672 319 q 704 381 696 369 q 712 397 711 389 q 707 407 713 406 q 686 393 700 414 q 666 362 681 386 q 632 293 651 338 q 606 208 614 250 q 617 121 597 165 q 675 48 636 75 q 790 8 714 21 q 924 -3 865 -3 q 1022 1 983 -3 q 1065 20 1049 3 q 1068 57 1081 38 q 1035 86 1057 78 q 993 94 1014 94 m 858 601 q 826 579 847 594 q 790 550 804 564 q 758 517 775 535 q 731 479 742 499 q 726 463 728 472 q 728 451 724 453 q 738 458 731 449 q 751 474 744 467 q 776 499 764 488 q 807 519 789 510 q 848 543 825 531 q 893 565 871 556 q 931 582 915 575 q 954 592 947 589 q 974 601 964 594 q 988 619 983 608 q 985 647 992 631 q 963 674 978 664 q 879 694 931 694 q 832 694 853 696 q 792 688 811 692 q 740 675 769 683 q 685 657 711 667 q 660 644 675 653 q 653 624 646 635 q 669 619 656 618 q 694 624 683 621 q 723 631 706 626 q 760 638 740 635 q 810 640 788 642 q 853 636 833 639 q 872 631 863 635 q 883 622 882 628 q 876 613 885 618 q 858 601 868 608 m 536 750 q 542 738 542 746 q 536 728 542 731 q 519 718 532 725 q 486 701 507 711 q 492 726 490 715 q 496 743 494 736 q 499 756 497 749 q 503 769 500 763 q 524 758 514 764 q 536 750 533 753 m 279 293 q 247 224 263 257 q 219 163 232 192 q 196 111 208 135 q 183 71 183 88 q 186 33 183 54 q 204 3 189 13 q 256 15 236 -17 q 270 47 260 22 q 294 103 281 71 q 319 168 307 136 q 339 221 332 200 q 361 290 347 249 q 386 369 375 332 q 403 424 397 407 q 419 472 408 440 q 440 534 429 503 q 456 583 450 565 q 460 601 458 590 q 465 624 463 611 q 498 628 482 625 q 528 635 514 632 q 595 662 563 644 q 643 696 628 679 q 658 746 669 726 q 638 763 653 756 q 601 774 622 769 q 558 786 583 778 q 511 806 532 794 q 516 838 515 821 q 511 869 517 856 q 491 915 501 900 q 467 938 481 929 q 438 951 453 947 q 411 947 422 954 q 404 923 400 939 q 417 894 408 907 q 434 860 425 883 q 443 811 443 836 q 442 752 444 789 q 429 679 439 715 q 374 666 396 669 q 329 661 351 663 q 267 665 285 660 q 243 673 253 668 q 231 679 233 678 q 218 683 225 682 q 206 679 211 685 q 206 656 201 671 q 231 632 211 640 q 288 619 258 622 q 357 615 318 615 q 383 616 369 615 q 410 618 397 617 q 383 535 397 578 q 360 472 368 493 q 338 420 353 453 q 306 353 322 388 q 279 293 290 319 z "},"ち":{"ha":1389,"x_min":222,"x_max":1026,"o":"m 496 751 q 528 731 519 733 q 531 723 531 729 q 521 711 531 717 q 501 703 514 707 q 472 693 489 699 q 478 720 475 708 q 483 740 481 732 q 490 758 486 749 q 496 751 494 754 m 268 685 q 247 693 257 690 q 231 689 238 696 q 230 672 222 682 q 249 656 238 661 q 288 640 264 646 q 338 631 311 633 q 403 626 364 626 q 392 558 397 592 q 383 493 386 525 q 376 408 381 450 q 372 326 372 367 q 381 253 374 286 q 399 204 388 221 q 417 192 406 194 q 442 193 429 190 q 479 231 463 200 q 494 269 488 250 q 511 306 500 289 q 540 340 522 322 q 585 375 558 358 q 649 406 611 390 q 722 431 686 422 q 794 440 758 440 q 856 433 829 439 q 906 407 881 428 q 943 350 932 386 q 949 264 953 313 q 914 181 944 215 q 827 108 874 136 q 733 61 781 79 q 658 38 694 47 q 593 21 622 28 q 565 17 578 18 q 542 17 553 17 q 527 11 531 17 q 524 4 524 6 q 528 -1 524 3 q 544 -7 532 -6 q 579 -5 557 -7 q 632 0 601 -3 q 710 11 664 3 q 792 31 757 19 q 856 60 826 43 q 913 97 886 76 q 967 148 939 118 q 1008 208 994 178 q 1025 283 1024 239 q 1014 360 1026 326 q 900 464 985 439 q 810 478 856 478 q 726 469 765 478 q 647 449 686 463 q 568 417 607 436 q 494 376 514 389 q 464 383 479 364 q 440 464 440 414 q 446 529 440 489 q 456 600 451 569 q 460 631 456 611 q 472 631 467 631 q 481 633 476 631 q 563 651 518 640 q 635 672 608 661 q 661 691 650 678 q 665 718 672 704 q 640 737 657 732 q 606 744 622 742 q 565 758 592 747 q 521 779 539 769 q 510 785 515 782 q 503 790 506 788 q 510 815 507 801 q 514 842 514 829 q 476 929 513 892 q 433 952 460 946 q 396 949 406 958 q 391 925 388 939 q 404 899 394 911 q 421 866 414 888 q 428 818 428 844 q 423 758 426 794 q 413 679 419 722 q 378 674 394 676 q 339 674 361 672 q 268 685 289 678 z "},"ぢ":{"ha":1389,"x_min":222,"x_max":1029,"o":"m 1001 779 q 1023 799 1017 783 q 1018 831 1029 814 q 982 861 1008 847 q 933 882 956 875 q 892 892 911 889 q 856 894 874 894 q 844 894 851 894 q 833 889 836 893 q 833 875 831 883 q 846 863 836 867 q 897 837 878 850 q 931 806 917 824 q 965 781 944 789 q 1001 779 986 774 m 893 721 q 915 739 908 725 q 911 771 922 753 q 876 805 901 789 q 829 828 850 821 q 788 840 807 835 q 753 844 769 844 q 740 845 747 846 q 731 839 733 844 q 729 826 725 833 q 742 813 733 818 q 821 747 792 779 q 857 726 836 733 q 893 721 878 718 m 496 751 q 528 731 519 733 q 531 723 531 729 q 521 711 531 717 q 501 703 514 708 q 472 693 489 699 q 478 720 475 708 q 483 740 481 732 q 490 758 486 749 q 496 751 494 754 m 268 685 q 249 693 257 690 q 231 689 240 696 q 230 672 222 682 q 249 656 238 661 q 288 640 264 646 q 338 631 311 633 q 403 626 364 626 q 392 558 397 592 q 383 493 386 525 q 376 408 381 450 q 372 326 372 367 q 381 253 374 286 q 399 204 388 221 q 417 192 406 194 q 442 193 429 190 q 479 231 463 200 q 494 269 488 250 q 511 306 500 289 q 540 340 522 322 q 585 375 558 358 q 649 406 611 390 q 722 431 686 422 q 794 440 758 440 q 856 433 829 439 q 906 407 881 428 q 943 350 932 386 q 949 264 953 313 q 914 181 944 215 q 827 108 874 136 q 733 61 781 79 q 658 38 694 47 q 593 21 622 28 q 565 17 578 18 q 542 17 553 17 q 527 11 531 17 q 524 4 524 6 q 528 -1 524 3 q 544 -7 532 -6 q 579 -5 557 -7 q 632 0 601 -3 q 710 11 664 3 q 792 31 757 19 q 856 60 826 43 q 913 97 886 78 q 967 147 939 117 q 1008 208 994 178 q 1025 283 1024 239 q 1014 360 1026 326 q 900 464 985 439 q 810 478 856 478 q 726 469 765 478 q 646 450 686 463 q 568 418 606 438 q 522 392 542 403 q 494 376 503 382 q 464 383 479 364 q 440 464 440 414 q 446 529 440 489 q 456 600 451 569 q 460 631 456 611 q 472 631 467 631 q 481 633 476 631 q 563 651 518 640 q 635 672 608 661 q 661 691 650 678 q 665 718 672 704 q 640 737 657 732 q 606 744 622 742 q 565 758 592 747 q 521 779 539 769 q 510 785 515 782 q 503 790 506 788 q 510 815 507 801 q 514 842 514 829 q 476 929 513 892 q 433 952 460 946 q 396 949 406 958 q 391 925 388 939 q 404 899 394 911 q 421 866 414 888 q 428 818 428 844 q 423 758 426 794 q 413 679 419 722 q 378 674 394 676 q 339 674 361 672 q 268 685 289 678 z "},"っ":{"ha":1389,"x_min":239,"x_max":1017,"o":"m 906 233 q 860 181 890 211 q 799 133 829 150 q 728 99 768 117 q 651 71 689 81 q 599 60 614 61 q 576 58 585 58 q 557 43 557 56 q 579 33 557 33 q 613 36 589 32 q 668 47 638 40 q 747 74 708 58 q 821 106 786 89 q 898 149 857 122 q 965 214 939 176 q 1007 374 1017 289 q 987 449 1003 417 q 944 506 971 481 q 874 551 915 533 q 792 568 833 569 q 712 556 749 568 q 643 531 675 544 q 581 503 610 518 q 529 475 551 488 q 490 453 514 467 q 442 426 465 439 q 410 408 419 414 q 378 393 394 403 q 343 382 361 383 q 279 390 304 382 q 262 393 272 392 q 244 385 251 394 q 246 366 239 379 q 268 340 253 353 q 310 315 283 328 q 364 303 336 303 q 422 314 392 301 q 479 347 453 326 q 535 394 506 369 q 586 435 564 419 q 640 471 608 451 q 692 500 671 490 q 742 515 713 511 q 797 517 771 519 q 855 503 831 514 q 906 467 879 493 q 937 411 931 442 q 942 358 943 381 q 932 294 940 331 q 906 233 924 258 z "},"つ":{"ha":1389,"x_min":172,"x_max":1085,"o":"m 956 371 q 901 307 936 342 q 831 253 865 272 q 747 212 794 233 q 656 179 700 190 q 594 166 611 167 q 568 164 578 165 q 546 147 546 163 q 571 135 546 138 q 611 138 582 135 q 676 150 640 142 q 769 181 724 161 q 856 218 815 200 q 944 270 897 238 q 1024 347 992 303 q 1075 535 1085 436 q 1051 624 1069 586 q 1001 690 1033 661 q 919 743 967 722 q 819 764 871 764 q 727 749 771 763 q 644 719 683 736 q 572 687 607 704 q 511 654 538 669 q 466 628 494 644 q 410 597 438 611 q 372 576 383 582 q 335 557 354 568 q 293 544 315 546 q 252 547 271 544 q 218 554 233 550 q 197 557 208 556 q 178 549 186 558 q 180 525 172 542 q 206 494 188 508 q 255 466 224 481 q 318 451 286 451 q 454 504 388 449 q 518 557 483 528 q 581 606 553 586 q 642 648 606 625 q 704 682 678 671 q 763 700 728 693 q 829 704 797 707 q 896 687 867 700 q 956 643 925 674 q 990 580 983 615 q 996 517 997 544 q 985 442 994 485 q 956 371 975 399 z "},"づ":{"ha":1389,"x_min":175,"x_max":1192,"o":"m 1165 819 q 1186 840 1181 825 q 1182 871 1192 854 q 1146 903 1172 889 q 1097 924 1119 917 q 1019 936 1054 938 q 1008 936 1015 936 q 997 931 1000 936 q 997 915 994 924 q 1010 904 1000 907 q 1061 877 1042 890 q 1094 846 1081 864 q 1129 823 1108 831 q 1165 819 1150 815 m 1056 763 q 1078 781 1069 767 q 1075 814 1086 796 q 1040 846 1065 831 q 993 868 1014 861 q 917 886 951 883 q 903 886 911 886 q 893 881 896 886 q 906 854 885 867 q 951 821 932 836 q 985 790 969 806 q 1021 767 1000 775 q 1056 763 1042 758 m 958 375 q 903 311 939 347 q 832 256 868 275 q 750 216 797 236 q 658 183 703 196 q 597 170 614 172 q 569 168 581 168 q 553 163 558 168 q 549 151 549 157 q 574 139 549 139 q 681 156 604 136 q 772 185 726 167 q 858 224 818 204 q 948 275 900 243 q 1028 351 996 307 q 1078 540 1089 436 q 1053 628 1072 590 q 1004 693 1035 665 q 922 748 969 726 q 822 768 874 769 q 729 754 772 768 q 649 725 686 740 q 575 692 610 710 q 514 658 540 674 q 469 633 497 650 q 413 601 440 617 q 375 581 386 586 q 338 561 357 572 q 296 549 319 550 q 256 551 275 549 q 221 557 236 554 q 200 562 211 560 q 181 553 189 564 q 183 530 175 546 q 208 499 190 514 q 257 470 225 485 q 319 456 289 456 q 389 469 353 454 q 456 507 425 483 q 521 562 486 532 q 582 611 556 592 q 645 653 608 631 q 706 688 682 676 q 765 704 731 699 q 831 707 800 710 q 898 691 869 704 q 957 647 926 678 q 994 583 986 619 q 1000 521 1001 547 q 988 446 999 489 q 958 375 978 403 z "},"て":{"ha":1389,"x_min":167,"x_max":1083,"o":"m 308 643 q 381 660 344 646 q 451 688 418 675 q 538 722 485 700 q 631 758 592 744 q 666 771 649 765 q 701 781 683 776 q 666 753 686 769 q 635 724 646 736 q 598 674 615 703 q 574 611 581 644 q 558 539 567 579 q 543 443 550 499 q 544 243 531 335 q 567 168 553 199 q 607 115 581 138 q 679 76 642 89 q 757 61 717 64 q 833 58 797 58 q 892 61 868 58 q 922 76 914 64 q 922 101 931 89 q 898 126 914 114 q 865 142 882 139 q 826 146 849 144 q 768 144 803 147 q 703 149 733 142 q 654 172 674 156 q 600 276 608 211 q 595 397 593 336 q 604 496 597 457 q 617 574 611 536 q 633 638 622 611 q 667 696 649 672 q 710 742 685 719 q 747 772 728 757 q 782 799 767 788 q 786 799 783 799 q 792 800 789 800 q 878 811 835 806 q 946 817 921 817 q 992 812 972 815 q 1031 806 1013 808 q 1058 804 1046 803 q 1076 818 1069 806 q 1075 847 1083 832 q 1049 874 1067 863 q 995 888 1032 885 q 926 886 958 892 q 829 865 893 881 q 703 833 765 850 q 574 797 639 817 q 478 768 510 778 q 425 752 456 761 q 364 736 394 743 q 313 729 333 729 q 264 732 282 728 q 231 743 246 736 q 201 753 217 750 q 178 746 186 756 q 175 714 167 735 q 197 679 183 693 q 242 651 214 663 q 308 643 271 639 z "},"で":{"ha":1389,"x_min":169,"x_max":1139,"o":"m 1110 615 q 1132 635 1125 619 q 1128 667 1139 650 q 1090 698 1117 685 q 1043 718 1064 711 q 967 731 999 733 q 953 731 961 731 q 943 725 946 731 q 942 711 939 719 q 956 699 946 703 q 1006 673 986 685 q 1042 642 1026 661 q 1075 618 1054 626 q 1110 615 1096 610 m 1001 557 q 1024 576 1017 561 q 1021 607 1031 590 q 985 641 1011 625 q 938 664 960 657 q 897 676 915 671 q 863 681 878 681 q 849 681 857 682 q 839 676 842 681 q 850 649 829 664 q 931 583 904 613 q 966 561 946 569 q 1001 557 986 553 m 310 643 q 383 660 346 646 q 454 688 419 675 q 507 709 475 696 q 572 735 539 722 q 631 758 606 749 q 667 771 650 765 q 703 781 685 776 q 667 753 686 769 q 636 724 649 736 q 599 674 615 703 q 575 611 582 644 q 559 539 568 579 q 543 443 550 499 q 546 243 531 339 q 567 168 553 199 q 608 115 581 138 q 681 76 643 88 q 758 61 719 64 q 834 58 799 58 q 893 61 869 58 q 924 76 915 64 q 924 101 932 89 q 899 126 915 114 q 867 142 883 138 q 826 146 850 144 q 768 144 803 147 q 705 149 735 142 q 656 172 675 156 q 601 276 610 208 q 597 397 594 336 q 606 496 599 457 q 617 574 611 536 q 635 638 624 611 q 669 696 650 672 q 713 742 688 719 q 750 772 731 757 q 783 799 769 788 q 789 799 786 799 q 793 800 792 800 q 879 811 836 806 q 947 817 922 817 q 993 812 972 815 q 1031 806 1014 808 q 1060 804 1047 803 q 1079 818 1072 806 q 1077 847 1086 831 q 1051 874 1068 864 q 997 888 1033 885 q 928 886 960 892 q 831 865 894 881 q 704 833 767 850 q 575 797 639 817 q 479 768 511 778 q 426 752 457 761 q 365 736 396 743 q 314 729 335 729 q 265 732 283 728 q 232 743 247 736 q 203 752 218 749 q 179 746 188 756 q 177 714 169 735 q 199 679 185 693 q 244 651 215 663 q 310 643 272 639 z "},"と":{"ha":1389,"x_min":333,"x_max":958,"o":"m 943 121 q 906 143 932 139 q 849 143 879 147 q 796 132 818 139 q 709 113 764 122 q 599 104 654 104 q 490 116 543 103 q 410 160 438 129 q 388 246 375 199 q 467 340 401 293 q 631 433 535 389 q 864 542 726 478 q 889 572 886 553 q 883 609 892 590 q 863 638 875 628 q 832 658 847 651 q 806 665 817 664 q 779 659 789 667 q 779 639 769 651 q 792 608 789 625 q 779 581 796 590 q 650 515 718 550 q 521 443 582 481 q 497 475 504 461 q 490 507 489 489 q 496 580 492 535 q 506 660 500 625 q 519 726 511 696 q 535 778 528 756 q 544 824 542 799 q 538 868 546 850 q 511 912 529 888 q 479 947 493 936 q 447 965 465 958 q 421 956 429 972 q 424 932 417 946 q 440 906 431 918 q 455 868 449 893 q 460 813 461 843 q 455 744 458 782 q 449 668 451 706 q 441 583 446 632 q 442 507 436 533 q 501 431 451 458 q 420 372 454 401 q 361 303 386 342 q 336 211 333 260 q 368 126 339 163 q 464 73 399 89 q 600 56 529 57 q 753 58 671 56 q 892 68 836 61 q 940 83 921 71 q 943 121 958 96 z "},"ど":{"ha":1389,"x_min":333,"x_max":1131,"o":"m 943 121 q 906 143 932 139 q 849 143 879 147 q 796 132 818 139 q 709 113 764 122 q 599 104 654 104 q 490 116 543 103 q 410 160 438 129 q 388 246 375 199 q 467 340 401 293 q 631 433 535 389 q 864 542 726 478 q 889 572 886 553 q 883 609 892 590 q 863 638 875 628 q 832 658 847 651 q 806 665 817 664 q 779 659 789 667 q 779 639 769 651 q 792 608 789 625 q 779 581 796 590 q 650 515 718 550 q 521 443 582 481 q 497 475 504 461 q 490 507 489 489 q 496 580 492 535 q 506 660 500 625 q 519 726 511 696 q 535 778 528 756 q 544 824 542 799 q 538 868 546 850 q 511 912 529 888 q 479 947 493 936 q 447 965 465 958 q 421 956 429 972 q 424 932 417 946 q 440 906 431 918 q 455 868 449 893 q 460 813 461 843 q 455 744 458 782 q 449 668 451 706 q 441 583 446 632 q 442 507 436 533 q 501 431 451 458 q 420 372 454 401 q 361 303 386 342 q 336 211 333 260 q 368 126 339 163 q 464 73 399 89 q 600 56 529 57 q 753 58 671 56 q 892 68 836 61 q 940 83 921 71 q 943 121 958 96 m 1103 706 q 1124 725 1117 711 q 1119 757 1131 739 q 1083 789 1108 775 q 1035 808 1057 803 q 957 822 993 822 q 945 822 953 822 q 935 817 938 821 q 947 790 925 800 q 997 763 978 776 q 1032 732 1017 750 q 1068 708 1047 715 q 1103 706 1089 701 m 993 649 q 1015 667 1008 653 q 1013 699 1022 681 q 977 732 1003 717 q 931 756 951 747 q 854 771 885 771 q 841 772 849 772 q 831 767 833 771 q 843 739 821 751 q 889 706 869 722 q 922 675 908 689 q 958 652 938 660 q 993 649 978 644 z "},"な":{"ha":1389,"x_min":179,"x_max":1074,"o":"m 785 183 q 785 183 785 183 q 785 181 785 182 q 774 117 783 144 q 736 79 764 89 q 622 75 681 57 q 578 105 593 85 q 567 149 564 125 q 595 191 569 174 q 653 210 621 208 q 722 205 693 211 q 779 188 751 199 q 785 183 782 185 m 656 256 q 565 223 600 250 q 524 154 531 196 q 536 68 517 103 q 588 17 556 33 q 643 -1 608 6 q 717 -5 678 -7 q 789 13 756 -3 q 829 48 817 25 q 845 94 842 71 q 849 128 849 117 q 848 139 849 132 q 846 154 847 146 q 874 138 861 146 q 899 124 888 131 q 938 103 922 110 q 964 99 953 96 q 978 117 974 101 q 976 151 982 133 q 958 182 971 169 q 935 201 946 194 q 897 221 925 208 q 828 243 868 233 q 824 253 825 249 q 821 264 822 258 q 801 342 811 300 q 785 415 792 383 q 779 476 778 447 q 786 524 781 504 q 794 553 792 542 q 789 568 797 564 q 772 563 783 572 q 753 539 760 553 q 740 499 744 524 q 743 447 736 475 q 756 384 749 419 q 768 319 763 349 q 774 289 771 306 q 781 253 778 272 q 721 258 750 257 q 656 256 692 258 m 1015 707 q 972 739 996 725 q 922 764 947 753 q 853 792 878 785 q 823 795 836 796 q 804 789 810 794 q 819 768 796 778 q 883 725 840 763 q 922 690 904 707 q 947 660 939 674 q 929 633 965 636 q 896 628 911 632 q 872 619 881 624 q 856 606 856 614 q 893 594 856 596 q 928 594 911 594 q 957 593 944 594 q 982 588 971 592 q 1001 581 993 585 q 1024 576 1010 576 q 1047 582 1039 576 q 1065 600 1057 588 q 1067 635 1074 613 q 1015 707 1051 676 m 468 788 q 474 806 471 797 q 481 825 478 815 q 503 813 492 819 q 519 804 514 807 q 536 794 528 799 q 546 785 544 789 q 517 761 550 774 q 481 748 499 754 q 446 738 464 742 q 458 765 453 751 q 468 788 464 778 m 231 193 q 258 190 244 186 q 274 213 272 194 q 276 250 275 225 q 282 303 278 275 q 293 350 286 331 q 313 403 300 369 q 340 469 326 436 q 360 524 353 503 q 381 576 368 544 q 403 636 393 608 q 418 674 414 664 q 421 681 421 676 q 423 681 422 681 q 425 681 424 681 q 498 690 461 683 q 568 706 535 696 q 646 743 631 724 q 653 765 654 753 q 643 786 651 778 q 586 814 629 801 q 543 828 564 819 q 508 842 522 836 q 497 846 503 844 q 485 850 492 847 q 485 871 486 861 q 482 890 485 881 q 465 923 475 913 q 444 942 454 933 q 418 953 435 949 q 393 951 401 958 q 392 917 379 939 q 404 885 397 904 q 408 849 411 867 q 401 813 406 831 q 382 768 396 794 q 374 749 379 760 q 365 725 369 739 q 324 729 340 725 q 288 738 301 733 q 263 747 275 742 q 241 755 254 751 q 222 753 228 758 q 225 734 217 746 q 249 713 233 722 q 329 681 288 689 q 338 681 333 681 q 347 679 343 681 q 333 638 340 658 q 319 601 326 618 q 296 535 310 575 q 268 459 282 496 q 244 406 254 422 q 221 357 231 378 q 200 318 211 336 q 185 278 190 300 q 186 239 179 256 q 231 193 200 207 z "},"に":{"ha":1389,"x_min":178,"x_max":1078,"o":"m 578 268 q 573 249 569 264 q 590 219 576 235 q 629 183 603 206 q 685 147 656 161 q 754 123 715 133 q 832 110 793 113 q 915 109 872 107 q 994 119 957 111 q 1054 145 1031 129 q 1069 181 1078 161 q 1041 207 1063 201 q 997 214 1019 213 q 936 203 975 214 q 851 190 897 193 q 766 190 807 188 q 701 201 725 192 q 658 221 678 211 q 624 243 639 231 q 601 263 613 251 q 578 268 589 275 m 757 750 q 837 749 794 746 q 910 764 879 753 q 952 793 940 775 q 956 825 964 811 q 926 840 949 839 q 881 833 904 842 q 819 815 849 822 q 760 807 789 808 q 700 807 731 806 q 647 815 669 808 q 593 815 600 831 q 599 797 589 806 q 624 783 608 789 q 690 762 660 769 q 757 750 719 754 m 188 211 q 208 119 196 151 q 235 68 219 88 q 269 35 250 47 q 306 31 289 24 q 324 67 322 36 q 318 124 326 97 q 298 196 306 158 q 290 279 290 233 q 302 364 290 325 q 321 415 314 403 q 322 443 333 436 q 296 428 311 449 q 275 397 289 418 q 251 353 261 375 q 244 335 247 343 q 235 326 240 326 q 229 338 231 326 q 229 367 228 349 q 233 412 231 389 q 240 465 235 435 q 252 524 246 493 q 268 583 258 556 q 290 647 276 611 q 310 701 303 682 q 325 749 317 719 q 331 806 333 779 q 317 856 328 833 q 293 893 307 878 q 260 917 278 908 q 231 917 242 925 q 227 895 222 910 q 242 868 232 881 q 255 824 251 853 q 253 760 258 794 q 238 695 247 726 q 217 608 228 664 q 197 513 206 556 q 183 421 189 469 q 178 322 178 372 q 188 211 179 271 z "},"ぬ":{"ha":1389,"x_min":151,"x_max":1103,"o":"m 300 531 q 338 576 317 554 q 385 618 360 599 q 399 628 392 624 q 411 638 406 632 q 411 603 411 621 q 408 568 411 586 q 398 478 406 519 q 379 389 390 438 q 375 374 378 382 q 371 361 372 367 q 369 362 369 361 q 368 363 369 363 q 274 451 311 397 q 269 460 271 456 q 264 468 267 464 q 280 501 271 485 q 300 531 289 517 m 336 264 q 295 215 322 236 q 236 203 268 194 q 210 235 215 208 q 210 295 206 263 q 218 347 214 328 q 223 369 219 357 q 231 393 226 381 q 271 338 250 361 q 319 296 292 315 q 332 288 326 292 q 343 281 338 283 q 336 264 340 271 m 726 151 q 686 193 689 163 q 715 236 683 224 q 851 235 771 260 q 876 226 864 232 q 899 214 888 219 q 879 192 889 200 q 801 149 844 156 q 726 151 758 142 m 176 149 q 224 107 194 114 q 281 104 253 100 q 342 134 313 110 q 394 204 372 158 q 405 224 400 214 q 415 243 410 233 q 431 239 419 242 q 492 264 482 228 q 481 295 494 281 q 443 321 467 310 q 439 324 442 321 q 445 354 442 339 q 451 389 449 369 q 465 504 461 454 q 467 603 469 554 q 465 638 465 621 q 463 672 464 656 q 487 686 474 678 q 514 703 500 694 q 599 746 561 731 q 681 769 638 761 q 751 776 721 778 q 811 761 782 775 q 859 731 839 749 q 900 681 879 713 q 933 612 919 650 q 954 542 947 574 q 963 463 961 507 q 961 376 965 419 q 953 332 958 356 q 939 285 949 308 q 909 296 924 292 q 881 303 894 300 q 803 310 844 310 q 721 294 761 310 q 661 249 681 281 q 644 185 642 218 q 672 123 649 153 q 742 82 696 93 q 838 79 786 72 q 924 108 889 86 q 949 129 936 118 q 972 156 961 140 q 998 128 988 140 q 1018 106 1008 117 q 1050 81 1033 86 q 1078 82 1067 76 q 1096 107 1089 88 q 1086 160 1103 126 q 1058 203 1072 186 q 1018 240 1043 219 q 1026 267 1022 253 q 1033 296 1031 281 q 1049 426 1047 365 q 1039 547 1051 486 q 1006 663 1026 608 q 956 757 986 717 q 895 812 933 789 q 815 842 857 835 q 629 819 729 854 q 541 782 585 806 q 456 731 497 758 q 443 778 451 756 q 415 829 431 814 q 383 856 400 844 q 351 871 368 867 q 328 865 333 875 q 331 847 324 857 q 350 825 338 836 q 380 789 367 810 q 400 739 393 768 q 404 717 403 728 q 407 696 406 707 q 340 638 372 669 q 278 568 308 607 q 258 542 268 556 q 239 513 249 528 q 222 558 228 536 q 214 612 215 588 q 214 650 213 636 q 210 675 214 664 q 196 688 207 686 q 175 653 179 688 q 174 607 172 636 q 181 544 175 578 q 206 449 186 499 q 189 408 197 431 q 174 363 181 386 q 155 236 151 290 q 176 149 158 182 z "},"ね":{"ha":1389,"x_min":122,"x_max":1131,"o":"m 263 446 q 238 500 246 481 q 225 531 229 519 q 224 556 219 543 q 256 581 229 568 q 309 604 281 592 q 349 619 338 617 q 372 628 361 624 q 392 631 383 633 q 406 617 396 628 q 403 587 404 603 q 401 556 403 571 q 349 508 375 533 q 301 457 324 483 q 288 440 294 449 q 274 424 281 432 q 263 446 267 435 m 385 146 q 372 152 378 144 q 364 171 367 160 q 349 227 360 185 q 324 306 338 269 q 315 331 319 318 q 304 356 310 343 q 334 396 318 375 q 368 438 350 417 q 382 452 375 444 q 396 468 389 460 q 396 465 396 467 q 396 461 396 464 q 397 394 396 431 q 397 326 397 358 q 397 274 397 293 q 399 217 399 244 q 400 176 400 189 q 385 146 400 151 m 760 128 q 699 152 717 132 q 678 194 681 172 q 697 238 675 218 q 768 258 719 258 q 851 250 817 258 q 922 228 886 242 q 917 214 919 221 q 911 201 914 207 q 846 139 889 156 q 760 128 803 122 m 169 117 q 197 139 190 119 q 204 176 203 158 q 220 220 206 196 q 257 281 235 244 q 269 301 264 292 q 282 322 275 311 q 297 281 290 301 q 310 240 304 260 q 329 160 321 201 q 343 81 338 118 q 362 15 349 42 q 396 -8 375 -11 q 439 10 418 -6 q 467 54 460 26 q 470 117 472 81 q 465 206 468 153 q 463 302 463 258 q 461 386 463 346 q 460 457 460 418 q 463 533 461 496 q 494 563 478 547 q 531 593 511 578 q 632 663 586 636 q 714 706 678 690 q 788 729 750 722 q 851 729 825 736 q 905 699 878 722 q 942 613 932 675 q 951 495 950 550 q 951 390 953 440 q 940 288 951 347 q 897 298 918 293 q 856 306 875 303 q 767 307 808 311 q 681 279 725 303 q 640 235 651 263 q 631 180 628 208 q 649 131 633 151 q 711 84 669 101 q 806 65 753 67 q 905 85 860 64 q 982 149 950 106 q 991 163 988 156 q 999 181 994 171 q 1012 165 1006 172 q 1021 151 1018 158 q 1043 115 1031 136 q 1081 93 1056 94 q 1118 106 1106 92 q 1126 146 1131 121 q 1105 194 1122 172 q 1049 240 1088 215 q 1019 256 1033 250 q 1031 346 1028 300 q 1035 428 1033 392 q 1031 549 1036 492 q 1018 640 1026 606 q 989 707 1011 675 q 936 757 967 739 q 876 783 907 775 q 804 782 846 790 q 751 766 783 778 q 686 738 719 754 q 626 706 653 721 q 575 676 594 688 q 525 646 556 664 q 504 690 517 674 q 478 715 492 706 q 476 716 476 715 q 474 717 475 717 q 474 729 474 722 q 475 742 475 736 q 481 815 478 779 q 479 868 483 850 q 464 904 474 888 q 433 936 454 921 q 378 951 393 968 q 385 908 365 936 q 403 872 396 894 q 413 832 410 850 q 415 785 415 814 q 411 717 414 756 q 402 715 407 715 q 393 711 397 714 q 352 697 381 708 q 294 672 324 685 q 250 651 264 658 q 213 626 229 642 q 190 596 196 611 q 190 560 185 582 q 200 524 194 539 q 222 471 206 510 q 253 399 239 432 q 203 332 225 364 q 164 271 181 300 q 131 200 139 229 q 124 153 122 171 q 140 125 125 136 q 169 117 156 114 z "},"の":{"ha":1389,"x_min":142,"x_max":1108,"o":"m 561 631 q 531 508 551 563 q 481 407 511 454 q 415 332 450 358 q 340 293 381 306 q 266 288 299 279 q 218 332 233 297 q 206 427 204 368 q 229 543 207 486 q 294 654 250 600 q 394 747 339 708 q 569 828 472 801 q 571 737 572 786 q 561 631 569 688 m 1056 688 q 996 766 1033 728 q 910 833 958 804 q 689 892 819 889 q 556 877 625 893 q 426 831 486 861 q 326 763 368 800 q 249 685 283 726 q 156 492 181 607 q 146 383 142 431 q 174 285 150 336 q 315 179 221 179 q 411 212 364 179 q 497 296 458 244 q 560 415 536 349 q 594 540 583 481 q 611 647 607 599 q 615 731 615 696 q 614 787 614 757 q 611 838 614 817 q 630 840 621 839 q 647 843 639 842 q 778 836 713 850 q 889 792 843 822 q 963 722 933 763 q 1011 619 992 682 q 1033 507 1028 564 q 1029 390 1039 450 q 985 276 1019 329 q 910 193 951 222 q 824 144 868 164 q 740 111 781 124 q 657 94 700 100 q 574 88 614 89 q 529 89 549 88 q 500 92 510 90 q 481 81 481 94 q 500 67 478 69 q 595 57 536 60 q 724 68 654 54 q 847 101 793 82 q 953 151 900 119 q 1040 231 1007 183 q 1088 326 1072 278 q 1105 418 1101 375 q 1106 518 1108 461 q 1089 612 1101 575 q 1056 688 1076 649 z "},"は":{"ha":1389,"x_min":182,"x_max":1078,"o":"m 811 181 q 797 122 811 150 q 754 74 783 93 q 700 53 731 58 q 625 57 669 49 q 547 133 542 75 q 578 181 550 164 q 638 203 606 199 q 713 205 669 207 q 790 190 756 203 q 801 186 796 189 q 811 182 807 183 l 811 181 m 932 681 q 939 671 939 676 q 928 663 939 665 q 903 656 917 660 q 875 647 890 651 q 878 674 878 661 q 881 696 878 686 q 881 710 881 703 q 883 722 882 717 q 912 698 897 710 q 932 681 926 686 m 1051 124 q 999 166 1029 149 q 929 199 969 183 q 903 208 917 204 q 878 217 890 213 q 878 262 878 239 q 876 307 878 285 q 872 413 874 360 q 868 500 869 467 q 867 538 867 514 q 869 589 868 563 q 947 602 910 593 q 1006 628 983 611 q 1035 667 1031 646 q 1029 697 1039 689 q 997 710 1019 707 q 956 718 975 713 q 886 746 919 728 q 891 808 890 778 q 883 860 892 838 q 854 908 872 892 q 814 933 836 925 q 779 942 792 943 q 761 932 767 940 q 776 885 749 913 q 794 858 789 872 q 803 813 799 844 q 811 672 811 747 q 811 639 814 658 q 747 640 775 636 q 689 650 719 644 q 656 660 675 653 q 624 676 638 667 q 598 694 608 686 q 578 696 588 701 q 575 677 572 694 q 597 642 578 660 q 640 610 617 622 q 693 592 664 599 q 750 583 719 585 q 810 582 781 581 q 809 536 810 560 q 808 492 808 513 q 810 404 808 444 q 811 329 811 364 q 812 282 811 307 q 813 232 813 257 q 777 239 794 236 q 743 243 760 242 q 581 226 658 253 q 522 185 540 213 q 500 132 503 158 q 515 74 497 103 q 572 26 532 46 q 765 7 650 -12 q 843 52 815 15 q 874 121 871 89 q 874 135 874 128 q 875 151 875 142 q 899 137 888 144 q 921 121 911 129 q 976 78 949 101 q 1017 43 1003 56 q 1048 28 1031 28 q 1071 40 1065 29 q 1076 75 1078 51 q 1051 124 1074 99 m 392 551 q 377 548 385 556 q 364 529 369 540 q 332 466 343 486 q 307 418 321 446 q 278 349 293 390 q 257 288 264 308 q 247 277 256 278 q 238 294 238 276 q 238 335 238 306 q 243 403 239 365 q 256 476 247 440 q 285 575 269 529 q 308 649 300 621 q 319 710 318 678 q 310 768 319 743 q 285 815 297 797 q 261 843 272 833 q 235 859 250 854 q 213 854 219 864 q 208 833 206 844 q 221 808 211 822 q 239 771 231 794 q 246 708 247 747 q 239 631 244 669 q 224 550 233 592 q 205 465 214 508 q 192 383 196 422 q 185 300 188 344 q 185 208 182 256 q 195 118 188 161 q 218 46 203 75 q 248 12 233 18 q 279 7 263 6 q 297 34 294 10 q 294 81 300 58 q 286 141 289 101 q 296 225 283 181 q 325 322 310 269 q 351 404 340 375 q 374 470 363 433 q 392 518 386 507 q 392 551 401 547 z "},"ば":{"ha":1389,"x_min":182,"x_max":1236,"o":"m 811 181 q 797 122 811 150 q 754 74 783 93 q 700 53 731 58 q 625 57 669 49 q 547 133 542 75 q 578 181 550 164 q 638 203 606 199 q 713 205 669 207 q 790 190 756 203 q 801 186 796 189 q 811 182 807 183 l 811 181 m 932 681 q 939 671 939 676 q 928 663 939 665 q 903 656 917 660 q 875 647 890 651 q 878 674 878 661 q 881 696 878 686 q 881 710 881 703 q 883 722 882 717 q 912 698 897 710 q 932 681 926 686 m 1051 124 q 999 166 1029 149 q 929 199 969 183 q 903 208 917 204 q 878 217 890 213 q 878 262 878 239 q 876 307 878 285 q 872 413 874 360 q 868 500 869 467 q 867 538 867 514 q 869 589 868 563 q 947 602 910 593 q 1006 628 983 611 q 1035 667 1031 646 q 1029 697 1039 689 q 997 710 1019 707 q 956 718 975 713 q 886 746 919 728 q 891 808 890 778 q 883 860 892 838 q 854 908 872 892 q 814 933 836 925 q 779 942 792 943 q 761 932 767 940 q 776 885 749 913 q 794 858 789 872 q 803 813 799 844 q 811 672 811 747 q 811 639 814 658 q 747 640 775 636 q 689 650 719 644 q 656 660 675 653 q 624 676 638 667 q 598 694 608 686 q 578 696 588 701 q 575 677 572 694 q 597 642 578 660 q 640 610 617 622 q 693 592 664 599 q 750 583 719 585 q 810 582 781 581 q 809 536 810 560 q 808 492 808 513 q 810 404 808 444 q 811 329 811 364 q 812 282 811 307 q 813 232 813 257 q 777 239 794 236 q 743 243 760 242 q 581 226 658 253 q 522 185 540 213 q 500 132 503 158 q 515 74 497 103 q 572 26 532 46 q 765 7 650 -12 q 843 52 815 15 q 874 121 871 89 q 874 135 874 128 q 875 151 875 142 q 899 137 888 144 q 921 121 911 129 q 976 78 949 101 q 1017 43 1003 56 q 1048 28 1031 28 q 1071 40 1065 29 q 1076 75 1078 51 q 1051 124 1074 99 m 392 551 q 377 548 385 556 q 364 529 369 540 q 332 466 343 486 q 307 418 321 446 q 278 349 293 390 q 257 288 264 308 q 247 277 256 278 q 238 294 238 276 q 238 335 238 306 q 243 403 239 365 q 256 476 247 440 q 285 575 269 529 q 308 649 300 621 q 319 710 318 678 q 310 768 319 743 q 285 815 297 797 q 261 843 272 833 q 235 859 250 854 q 213 854 219 864 q 208 833 206 844 q 221 808 211 822 q 239 771 231 794 q 246 708 247 747 q 239 631 244 669 q 224 550 233 592 q 205 465 214 508 q 192 383 196 422 q 185 300 188 344 q 185 208 182 256 q 195 118 188 161 q 218 46 203 75 q 248 12 233 18 q 279 7 263 6 q 297 34 294 10 q 294 81 300 58 q 285 141 289 101 q 296 225 282 181 q 325 322 310 268 q 351 404 340 375 q 374 470 363 433 q 392 518 386 507 q 392 551 401 547 m 1207 868 q 1229 887 1222 872 q 1225 918 1236 901 q 1188 949 1214 935 q 1140 969 1163 964 q 1063 983 1097 983 q 1049 983 1057 983 q 1040 978 1042 982 q 1040 963 1036 971 q 1053 951 1044 956 q 1103 924 1083 936 q 1138 893 1122 911 q 1172 869 1151 876 q 1207 868 1193 863 m 1099 810 q 1121 828 1114 814 q 1118 860 1128 842 q 1083 893 1108 878 q 1035 917 1057 908 q 958 932 989 932 q 947 933 954 933 q 936 928 939 932 q 947 901 926 911 q 993 867 974 883 q 1028 836 1013 850 q 1063 814 1043 821 q 1099 810 1083 807 z "},"ぱ":{"ha":1389,"x_min":181,"x_max":1213,"o":"m 811 181 q 795 121 808 150 q 754 74 782 92 q 700 53 731 58 q 625 56 669 47 q 547 132 542 74 q 578 181 550 164 q 638 201 606 197 q 713 203 669 206 q 790 190 756 201 q 801 186 796 189 q 811 181 806 183 q 811 181 811 181 q 811 181 811 181 m 931 681 q 928 661 949 669 q 903 653 917 657 q 875 647 890 650 q 877 674 876 661 q 881 696 878 686 q 881 708 881 703 q 883 721 882 714 q 912 697 897 708 q 931 681 926 685 m 1050 124 q 999 166 1028 149 q 929 199 969 183 q 903 208 917 204 q 878 215 890 211 q 877 260 878 238 q 875 306 876 283 q 871 412 872 358 q 868 499 869 465 q 867 538 867 514 q 869 588 868 561 q 947 602 910 592 q 1006 628 983 613 q 1035 666 1031 644 q 1028 696 1039 688 q 997 708 1018 704 q 956 718 975 713 q 886 746 919 728 q 891 807 890 778 q 883 858 892 836 q 854 907 872 890 q 814 932 836 924 q 760 931 771 947 q 775 885 749 914 q 794 857 788 872 q 803 811 800 842 q 811 672 808 749 q 811 656 811 664 q 811 639 811 647 q 747 639 775 636 q 689 649 719 642 q 655 659 674 651 q 622 676 636 667 q 597 694 608 686 q 578 696 586 701 q 575 677 572 694 q 597 642 578 660 q 640 610 617 622 q 693 590 664 599 q 750 582 719 583 q 810 582 781 581 q 808 535 808 558 q 808 490 808 513 q 809 403 808 444 q 810 329 810 363 q 812 281 811 306 q 813 231 813 256 q 743 243 778 239 q 581 225 657 251 q 522 185 540 211 q 500 132 503 158 q 515 74 497 103 q 572 26 533 44 q 765 7 650 -12 q 842 52 815 15 q 872 119 869 89 q 874 133 874 125 q 875 150 874 142 q 899 136 888 144 q 921 119 911 128 q 975 76 947 99 q 1017 42 1003 54 q 1047 28 1029 28 q 1071 39 1065 28 q 1074 74 1076 50 q 1050 124 1072 99 m 392 551 q 377 547 385 554 q 364 528 369 539 q 332 465 343 483 q 307 418 321 446 q 278 348 293 389 q 257 286 264 307 q 245 276 254 276 q 236 293 236 275 q 238 335 236 306 q 243 401 239 364 q 256 475 247 439 q 285 574 269 529 q 308 649 300 619 q 319 710 317 678 q 310 768 321 742 q 284 815 297 796 q 261 843 271 833 q 235 858 250 853 q 211 854 219 864 q 208 834 204 846 q 221 807 211 822 q 238 769 231 793 q 246 707 246 746 q 240 630 246 668 q 224 550 233 592 q 204 465 214 507 q 190 382 194 422 q 183 298 186 342 q 183 208 181 254 q 194 117 186 161 q 218 44 201 74 q 248 11 233 17 q 279 7 263 6 q 297 33 294 10 q 294 79 300 57 q 285 141 289 101 q 296 225 282 181 q 325 322 310 269 q 351 404 340 374 q 374 470 363 433 q 392 518 386 507 q 392 551 400 543 m 1194 840 q 1183 938 1213 901 q 1096 978 1153 975 q 1031 959 1060 979 q 991 904 1001 939 q 1001 824 981 869 q 1023 794 1011 804 q 1043 790 1035 785 q 1048 806 1050 794 q 1040 829 1046 818 q 1033 883 1028 856 q 1067 917 1039 911 q 1111 910 1092 922 q 1131 867 1131 897 q 1097 821 1131 835 q 1077 805 1083 815 q 1076 785 1071 794 q 1100 771 1082 775 q 1142 778 1118 767 q 1194 840 1183 797 z "},"ひ":{"ha":1389,"x_min":165,"x_max":1085,"o":"m 843 721 q 857 694 844 714 q 885 651 869 674 q 917 613 901 628 q 965 557 939 588 q 1013 514 990 526 q 1074 501 1054 489 q 1085 534 1085 508 q 1058 585 1085 560 q 1001 639 1033 610 q 943 693 969 668 q 893 745 917 719 q 851 810 869 771 q 823 876 833 850 q 803 925 813 901 q 774 949 796 943 q 742 949 753 956 q 725 900 717 935 q 741 857 729 881 q 760 803 753 833 q 776 738 768 772 q 789 664 783 704 q 799 585 794 624 q 806 493 804 546 q 801 399 808 442 q 781 317 794 356 q 745 231 768 278 q 688 153 722 183 q 510 81 619 90 q 403 84 453 75 q 317 126 354 93 q 256 203 279 158 q 233 303 233 249 q 241 398 233 357 q 275 499 249 439 q 332 607 301 558 q 385 683 363 656 q 440 746 408 711 q 500 803 472 781 q 539 834 528 824 q 551 856 550 844 q 546 881 553 867 q 525 903 539 894 q 494 910 510 911 q 464 903 478 908 q 418 881 450 897 q 357 858 386 864 q 305 850 328 853 q 267 854 282 847 q 238 865 250 861 q 218 864 225 869 q 213 838 208 856 q 236 806 217 819 q 280 785 257 789 q 329 782 303 781 q 378 790 357 785 q 418 806 400 794 q 433 810 431 815 q 431 799 436 806 q 410 776 428 796 q 370 731 393 757 q 331 681 347 704 q 276 599 306 646 q 222 507 246 551 q 179 401 193 451 q 168 294 165 351 q 186 183 169 238 q 243 86 203 129 q 331 23 282 46 q 451 -3 379 0 q 597 17 522 -6 q 729 100 671 39 q 811 220 789 161 q 844 349 833 279 q 856 490 856 418 q 846 632 856 561 q 837 689 840 669 q 831 718 833 708 q 833 731 826 731 q 843 721 839 732 z "},"び":{"ha":1389,"x_min":169,"x_max":1224,"o":"m 1196 803 q 1217 822 1211 807 q 1213 854 1224 836 q 1176 885 1203 871 q 1128 906 1149 899 q 1051 918 1083 918 q 1038 917 1044 918 q 1029 913 1031 917 q 1028 898 1024 906 q 1042 886 1032 890 q 1092 860 1072 872 q 1126 829 1111 847 q 1160 805 1140 813 q 1196 803 1181 797 m 1086 744 q 1108 763 1100 749 q 1106 794 1117 776 q 1070 828 1096 814 q 1022 851 1044 843 q 982 863 1001 858 q 947 868 963 868 q 935 867 942 868 q 924 863 928 867 q 923 848 919 856 q 935 835 926 840 q 1017 771 985 803 q 1051 749 1031 756 q 1086 744 1072 742 m 844 721 q 860 694 847 714 q 889 651 872 674 q 919 613 906 628 q 969 557 943 588 q 1015 514 994 526 q 1076 501 1056 489 q 1087 535 1088 508 q 1063 585 1086 561 q 1005 639 1038 610 q 946 693 972 668 q 897 745 921 719 q 856 810 874 771 q 826 876 836 850 q 806 925 817 901 q 778 949 800 943 q 744 949 757 956 q 729 900 721 936 q 744 857 733 881 q 763 803 754 833 q 778 738 771 772 q 793 664 786 704 q 803 585 800 624 q 808 493 807 546 q 805 399 811 442 q 785 317 799 356 q 750 231 772 278 q 692 153 728 183 q 613 103 656 121 q 514 81 571 86 q 407 84 457 75 q 319 126 357 93 q 260 203 282 158 q 238 303 238 249 q 245 398 238 357 q 279 499 253 439 q 336 607 306 558 q 389 683 367 656 q 444 746 411 711 q 504 803 478 781 q 542 834 531 824 q 556 856 553 844 q 551 881 557 867 q 529 903 544 894 q 497 910 514 911 q 468 903 481 908 q 422 881 454 897 q 361 858 390 864 q 308 850 331 853 q 269 854 286 847 q 241 865 254 861 q 219 864 228 869 q 215 838 210 856 q 240 806 221 821 q 282 785 258 790 q 332 782 306 781 q 381 790 360 785 q 421 806 403 794 q 437 810 433 814 q 435 799 440 806 q 415 776 433 796 q 375 731 397 757 q 335 681 353 704 q 279 599 308 646 q 226 507 250 551 q 183 401 196 451 q 171 294 169 351 q 190 184 174 239 q 244 86 206 129 q 333 23 283 46 q 454 -3 382 0 q 600 17 526 -6 q 731 100 674 40 q 815 221 792 163 q 849 349 839 279 q 849 632 869 489 q 839 689 843 669 q 832 718 835 708 q 836 731 831 731 q 844 721 842 732 z "},"ぴ":{"ha":1389,"x_min":167,"x_max":1192,"o":"m 1176 783 q 1163 882 1192 846 q 1076 921 1135 918 q 1012 903 1042 922 q 972 848 982 883 q 982 768 961 813 q 1003 739 992 749 q 1022 733 1015 729 q 1028 750 1029 739 q 1021 772 1028 761 q 1014 826 1008 800 q 1047 860 1019 853 q 1092 854 1072 867 q 1111 810 1111 842 q 1078 765 1111 778 q 1057 728 1044 753 q 1081 715 1063 718 q 1121 721 1099 711 q 1176 783 1167 743 m 844 721 q 859 694 847 714 q 887 651 871 674 q 918 613 903 628 q 967 557 942 588 q 1015 514 993 526 q 1076 501 1057 489 q 1087 534 1088 508 q 1061 585 1086 560 q 1003 639 1036 610 q 944 693 971 668 q 896 745 919 719 q 854 810 872 771 q 825 876 836 850 q 806 925 814 901 q 777 949 799 943 q 743 949 756 956 q 728 900 719 935 q 742 857 731 881 q 763 803 754 833 q 778 738 771 772 q 792 664 785 704 q 801 585 797 624 q 808 493 806 546 q 804 399 811 442 q 783 317 797 356 q 748 231 771 278 q 690 153 725 183 q 513 81 622 90 q 406 84 456 75 q 318 126 356 93 q 258 203 281 158 q 236 303 236 249 q 243 398 236 357 q 278 499 250 439 q 334 607 304 558 q 388 683 364 656 q 443 746 411 711 q 503 803 475 781 q 542 834 531 824 q 554 856 553 844 q 549 881 556 867 q 528 903 542 894 q 496 910 513 911 q 467 903 479 908 q 421 881 453 897 q 360 858 389 864 q 307 850 329 853 q 268 854 285 847 q 240 865 253 861 q 219 864 228 869 q 215 838 210 856 q 239 806 219 819 q 281 785 260 789 q 331 782 303 781 q 381 790 360 785 q 419 806 401 794 q 436 810 433 815 q 433 799 439 806 q 413 776 431 796 q 373 731 396 757 q 333 681 350 704 q 278 599 308 646 q 225 507 249 551 q 181 401 194 451 q 169 294 167 351 q 189 183 172 238 q 244 86 206 129 q 332 23 283 46 q 454 -3 381 0 q 599 17 525 -6 q 731 100 674 39 q 813 220 790 161 q 847 349 836 279 q 858 490 858 418 q 849 632 858 561 q 839 689 843 669 q 832 718 835 708 q 835 731 829 731 q 844 721 842 732 z "},"ふ":{"ha":1389,"x_min":96,"x_max":1158,"o":"m 628 282 q 653 214 643 244 q 668 160 663 183 q 666 132 671 149 q 643 106 661 115 q 561 106 608 85 q 450 139 514 124 q 333 157 392 153 q 354 189 344 174 q 372 217 364 204 q 426 285 392 244 q 493 346 461 325 q 575 392 533 374 q 602 337 589 364 q 628 282 615 310 m 1006 368 q 932 411 963 396 q 863 439 901 426 q 792 456 833 449 q 697 460 750 463 q 613 444 657 458 q 592 484 601 465 q 574 521 582 503 q 549 592 557 560 q 556 644 542 625 q 632 689 590 693 q 677 679 654 686 q 721 676 700 672 q 758 731 764 683 q 708 832 753 778 q 664 881 686 863 q 622 915 642 900 q 579 940 600 931 q 549 943 558 950 q 546 928 540 936 q 558 913 551 919 q 583 889 565 906 q 615 849 600 872 q 638 806 629 825 q 644 764 647 786 q 629 731 643 742 q 594 718 615 721 q 521 671 549 708 q 502 621 503 647 q 508 561 501 594 q 526 500 515 529 q 556 431 536 471 q 558 425 556 431 q 531 414 544 419 q 506 401 517 408 q 432 350 464 381 q 364 283 400 319 q 300 228 328 247 q 240 192 272 210 q 185 162 208 174 q 140 140 163 150 q 108 124 119 131 q 96 106 96 117 q 110 81 96 94 q 156 58 125 68 q 269 81 215 42 q 292 103 281 90 q 315 131 304 117 q 384 122 356 128 q 436 106 413 115 q 493 81 464 96 q 551 46 522 67 q 611 12 581 26 q 681 7 642 -3 q 739 40 719 15 q 764 81 758 64 q 772 117 769 94 q 765 165 775 140 q 728 242 756 189 q 668 350 700 296 q 649 382 658 367 q 632 411 640 397 q 667 418 650 415 q 700 422 683 421 q 794 419 753 426 q 881 392 835 411 q 963 337 925 371 q 1022 250 1000 303 q 1045 167 1042 208 q 1047 97 1049 126 q 1093 47 1047 43 q 1132 72 1117 50 q 1153 124 1147 94 q 1149 187 1158 151 q 1118 257 1140 222 q 1069 317 1094 292 q 1006 368 1044 342 z "},"ぶ":{"ha":1389,"x_min":96,"x_max":1158,"o":"m 1107 543 q 1128 562 1122 547 q 1124 593 1133 576 q 1087 625 1113 611 q 1039 646 1061 639 q 963 658 994 661 q 949 658 957 658 q 940 653 942 658 q 939 638 935 646 q 951 626 943 629 q 1003 600 983 613 q 1038 568 1022 588 q 1072 544 1051 553 q 1107 543 1092 536 m 997 485 q 1020 503 1013 489 q 1018 536 1028 518 q 982 568 1008 553 q 933 592 956 583 q 893 603 911 599 q 858 608 875 608 q 846 609 853 610 q 835 604 839 608 q 846 576 826 589 q 893 543 872 558 q 928 513 914 528 q 963 489 942 497 q 997 485 983 481 m 628 282 q 653 214 643 244 q 668 160 663 183 q 666 132 671 149 q 643 106 661 115 q 561 106 608 85 q 450 139 514 124 q 333 157 392 153 q 354 189 344 174 q 372 217 364 204 q 426 285 392 244 q 493 346 461 325 q 575 392 533 374 q 602 337 589 364 q 628 282 615 310 m 1006 368 q 932 411 963 396 q 863 439 901 426 q 792 456 833 449 q 697 460 750 463 q 613 444 657 458 q 592 484 601 465 q 574 521 582 503 q 549 592 557 560 q 556 644 542 625 q 632 689 590 693 q 677 679 654 686 q 721 676 700 672 q 758 731 764 683 q 708 832 753 778 q 664 881 686 863 q 622 915 642 900 q 579 940 600 931 q 549 943 558 950 q 546 928 540 936 q 558 913 551 919 q 583 889 565 906 q 615 849 600 872 q 638 806 629 825 q 644 764 647 786 q 629 731 643 742 q 594 718 615 721 q 521 671 549 708 q 502 621 503 647 q 508 561 501 594 q 526 500 515 529 q 556 431 536 471 q 558 425 556 431 q 531 414 544 419 q 506 401 517 408 q 432 350 464 381 q 364 283 400 319 q 300 228 328 247 q 240 192 272 210 q 185 162 208 174 q 140 140 163 150 q 108 124 119 131 q 96 106 96 117 q 110 81 96 94 q 156 58 125 68 q 269 81 215 42 q 292 103 281 90 q 315 131 304 117 q 384 122 356 128 q 436 106 413 115 q 493 81 464 96 q 551 46 522 67 q 611 12 581 26 q 681 7 642 -3 q 739 40 719 15 q 764 81 758 64 q 772 117 769 94 q 765 165 775 140 q 728 242 756 189 q 668 350 700 296 q 649 382 658 367 q 632 411 640 397 q 667 418 650 415 q 700 422 683 421 q 794 419 753 426 q 881 392 835 411 q 963 337 925 371 q 1022 250 1000 303 q 1045 167 1042 208 q 1047 97 1049 126 q 1093 47 1047 43 q 1132 72 1117 50 q 1153 124 1147 94 q 1149 187 1158 151 q 1118 257 1140 222 q 1069 317 1094 292 q 1006 368 1044 342 z "},"ぷ":{"ha":1389,"x_min":96,"x_max":1158,"o":"m 1068 557 q 1056 656 1086 619 q 969 694 1026 692 q 904 677 933 697 q 865 622 875 657 q 875 542 854 586 q 897 513 885 522 q 917 507 908 503 q 922 524 924 513 q 914 546 919 535 q 907 600 901 572 q 940 633 913 628 q 985 626 965 639 q 1004 583 1004 614 q 971 539 1004 551 q 950 501 939 525 q 974 488 956 492 q 1015 494 992 483 q 1068 557 1057 517 m 628 282 q 653 214 643 244 q 668 160 663 183 q 666 132 671 149 q 643 106 661 115 q 561 106 608 85 q 450 139 514 124 q 333 157 392 153 q 354 189 344 174 q 372 217 364 204 q 426 285 392 244 q 493 346 461 325 q 575 392 533 374 q 602 337 589 364 q 628 282 615 310 m 1006 368 q 932 411 963 396 q 863 439 901 426 q 792 456 833 449 q 697 460 750 463 q 613 444 657 458 q 592 484 601 465 q 574 521 582 503 q 549 592 557 560 q 556 644 542 625 q 632 689 590 693 q 677 679 654 686 q 721 676 700 672 q 758 731 764 683 q 708 832 753 778 q 664 881 686 863 q 622 915 642 900 q 579 940 600 931 q 549 943 558 950 q 546 928 540 936 q 558 913 551 919 q 583 889 565 906 q 615 849 600 872 q 638 806 629 825 q 644 764 647 786 q 629 731 643 742 q 594 718 615 721 q 521 671 549 708 q 502 621 503 647 q 508 561 501 594 q 526 500 515 529 q 556 431 536 471 q 558 425 556 431 q 531 414 544 419 q 506 401 517 408 q 432 349 464 379 q 364 283 400 319 q 300 228 328 247 q 240 192 272 210 q 185 162 208 174 q 140 140 163 150 q 108 124 119 131 q 96 106 96 117 q 110 81 96 94 q 156 58 125 68 q 269 81 215 42 q 292 103 281 90 q 315 131 304 117 q 384 122 356 128 q 436 106 413 115 q 493 81 464 96 q 551 46 522 67 q 611 12 581 26 q 681 7 642 -3 q 739 40 719 15 q 764 81 758 64 q 772 117 769 94 q 765 165 775 140 q 728 242 756 189 q 668 350 700 296 q 649 382 658 367 q 632 411 640 397 q 667 418 650 415 q 700 422 683 421 q 794 419 753 426 q 881 392 835 411 q 963 337 925 371 q 1022 250 1000 303 q 1045 167 1042 208 q 1047 97 1049 126 q 1093 47 1047 43 q 1132 72 1117 50 q 1153 124 1147 94 q 1149 187 1158 151 q 1118 257 1140 222 q 1069 317 1094 292 q 1006 368 1044 342 z "},"へ":{"ha":1389,"x_min":114,"x_max":1136,"o":"m 1092 289 q 1051 295 1076 289 q 992 319 1025 301 q 917 371 957 339 q 849 429 876 403 q 764 509 806 471 q 692 581 722 547 q 628 646 660 617 q 578 694 597 675 q 540 729 558 714 q 501 743 521 744 q 467 731 482 742 q 432 697 453 721 q 401 662 413 675 q 371 629 389 649 q 332 588 353 610 q 289 547 311 567 q 249 516 267 529 q 217 496 231 503 q 186 488 200 490 q 161 486 172 485 q 135 488 147 489 q 119 478 124 488 q 124 449 114 465 q 156 424 135 433 q 201 409 175 414 q 256 411 226 404 q 294 435 275 417 q 331 474 314 453 q 356 511 347 496 q 383 554 367 528 q 417 606 400 581 q 443 643 433 631 q 472 675 457 661 q 506 688 486 689 q 542 670 524 686 q 581 631 560 654 q 633 565 597 610 q 713 468 669 519 q 808 361 754 417 q 904 271 861 306 q 990 219 947 238 q 1076 206 1033 200 q 1122 226 1108 208 q 1133 260 1136 244 q 1119 282 1132 276 q 1092 289 1106 288 z "},"べ":{"ha":1389,"x_min":114,"x_max":1136,"o":"m 1097 647 q 1118 667 1111 653 q 1114 699 1125 682 q 1076 731 1103 717 q 1029 751 1050 744 q 988 762 1007 758 q 953 764 968 765 q 940 764 947 764 q 929 757 932 764 q 929 742 925 750 q 942 731 933 735 q 992 705 972 718 q 1028 674 1013 692 q 1063 650 1042 658 q 1097 647 1083 642 m 988 590 q 1010 609 1003 594 q 1007 642 1017 624 q 972 674 997 658 q 924 696 946 689 q 849 714 882 711 q 836 714 843 714 q 825 708 829 714 q 836 681 815 696 q 883 648 863 663 q 918 618 903 633 q 953 594 933 603 q 988 590 972 586 m 1092 289 q 1051 297 1076 290 q 992 321 1025 303 q 917 371 957 339 q 850 429 878 403 q 764 509 806 471 q 692 582 722 547 q 628 647 661 617 q 578 694 596 676 q 540 731 558 714 q 501 744 521 747 q 467 733 482 743 q 432 699 451 722 q 401 662 413 675 q 371 629 389 649 q 331 589 353 611 q 289 549 310 567 q 249 517 267 531 q 217 496 232 503 q 161 488 185 485 q 136 488 149 489 q 119 478 124 488 q 124 450 114 465 q 156 425 135 435 q 201 410 175 415 q 256 413 226 404 q 294 436 275 418 q 331 476 314 454 q 356 513 347 497 q 383 554 367 528 q 417 606 400 581 q 443 643 433 631 q 472 674 457 661 q 506 688 486 688 q 542 671 524 688 q 581 631 560 654 q 633 565 597 611 q 713 468 669 519 q 808 361 756 417 q 904 271 860 306 q 990 220 947 239 q 1076 206 1033 201 q 1122 227 1108 210 q 1133 261 1136 244 q 1119 282 1132 276 q 1092 289 1106 288 z "},"ぺ":{"ha":1389,"x_min":114,"x_max":1136,"o":"m 1056 635 q 1042 734 1071 697 q 956 774 1013 771 q 890 755 919 775 q 851 699 861 735 q 861 619 840 664 q 882 590 871 600 q 901 586 893 581 q 907 601 908 590 q 900 625 906 613 q 893 679 888 653 q 926 713 899 706 q 970 706 950 718 q 990 663 990 694 q 956 617 990 628 q 936 601 942 611 q 936 581 931 590 q 960 567 942 571 q 1000 574 978 564 q 1056 635 1043 594 m 1092 289 q 1051 296 1076 289 q 992 321 1025 303 q 917 371 957 339 q 849 431 876 403 q 764 510 806 471 q 692 582 722 549 q 628 647 661 617 q 578 694 596 676 q 540 731 558 714 q 501 744 521 747 q 467 733 482 743 q 432 699 451 722 q 401 663 413 675 q 371 631 389 650 q 332 589 353 611 q 289 549 311 567 q 249 517 267 531 q 217 497 231 503 q 161 488 185 485 q 135 488 147 489 q 119 478 124 488 q 124 450 114 465 q 156 425 135 435 q 201 410 175 415 q 256 413 226 406 q 294 435 275 417 q 331 476 314 454 q 356 513 347 497 q 383 554 367 528 q 417 606 400 581 q 443 643 433 631 q 472 675 457 661 q 506 689 488 689 q 542 672 524 688 q 581 631 560 656 q 633 565 597 610 q 713 468 669 519 q 807 361 754 417 q 904 271 860 306 q 990 219 947 239 q 1076 206 1033 200 q 1122 227 1108 210 q 1133 261 1136 244 q 1119 282 1132 276 q 1092 289 1106 288 z "},"ほ":{"ha":1389,"x_min":175,"x_max":1078,"o":"m 646 88 q 578 121 603 97 q 558 175 553 144 q 604 222 565 206 q 685 239 643 239 q 766 231 731 239 q 829 208 801 222 q 811 163 822 185 q 786 128 800 142 q 726 90 763 103 q 646 88 689 78 m 897 664 q 908 656 903 660 q 917 651 914 653 q 924 641 924 647 q 913 631 925 635 q 906 628 910 629 q 897 625 903 628 q 897 646 897 636 q 897 664 897 656 m 1039 165 q 968 218 1003 197 q 903 250 933 239 q 902 266 903 258 q 901 282 901 274 q 897 402 899 340 q 896 499 896 464 q 896 518 896 507 q 896 540 896 529 q 907 542 903 542 q 917 543 911 543 q 989 559 956 549 q 1038 593 1022 569 q 1041 621 1049 608 q 1017 642 1033 633 q 989 656 1001 650 q 945 674 974 661 q 899 697 917 686 q 885 747 897 725 q 850 778 872 768 q 793 781 806 797 q 803 738 781 761 q 818 708 814 725 q 825 664 822 692 q 828 638 826 653 q 831 603 829 622 q 815 599 822 600 q 799 594 807 597 q 728 583 758 586 q 674 583 699 581 q 639 590 649 586 q 615 599 629 593 q 591 605 601 604 q 571 596 581 606 q 571 572 564 589 q 596 543 578 554 q 638 530 614 533 q 707 528 661 526 q 772 529 739 528 q 835 533 804 531 q 838 503 836 518 q 840 474 839 489 q 844 373 843 428 q 843 278 844 318 q 842 268 842 274 q 792 279 818 275 q 735 286 765 283 q 641 279 685 289 q 565 246 597 269 q 522 192 533 224 q 518 129 511 161 q 557 63 526 94 q 644 18 588 32 q 760 16 708 4 q 846 68 811 28 q 878 116 867 90 q 894 168 889 142 q 928 142 913 156 q 954 113 943 128 q 981 77 965 96 q 1014 49 996 58 q 1050 47 1032 39 q 1076 97 1078 61 q 1039 165 1074 133 m 644 857 q 695 842 668 847 q 763 835 722 838 q 842 836 803 832 q 921 849 882 840 q 989 874 961 858 q 1010 913 1017 890 q 984 938 1003 935 q 935 939 965 942 q 883 925 906 936 q 833 907 860 914 q 783 897 810 900 q 725 893 757 893 q 690 894 706 893 q 660 900 675 894 q 633 906 644 904 q 617 901 622 908 q 618 878 610 892 q 644 857 626 865 m 361 468 q 331 454 351 474 q 283 388 304 432 q 271 378 276 372 q 267 397 265 383 q 273 454 268 411 q 294 543 278 497 q 328 637 313 588 q 335 729 343 686 q 311 794 326 771 q 271 836 296 817 q 240 854 256 849 q 218 851 225 860 q 218 831 211 844 q 236 803 225 817 q 259 757 249 786 q 268 694 269 728 q 256 621 267 664 q 232 535 244 578 q 208 433 221 492 q 188 328 196 374 q 176 232 178 281 q 193 125 175 183 q 235 44 211 67 q 281 26 258 21 q 303 65 303 32 q 299 138 304 99 q 294 226 293 176 q 308 315 296 275 q 333 388 321 356 q 357 438 346 419 q 365 456 364 447 q 361 468 367 465 z "},"ぼ":{"ha":1389,"x_min":175,"x_max":1243,"o":"m 646 86 q 577 119 603 96 q 558 174 551 143 q 604 220 565 204 q 685 236 643 236 q 766 228 731 236 q 829 207 801 221 q 811 162 822 183 q 786 126 800 140 q 726 90 763 103 q 646 86 689 76 m 897 663 q 908 656 903 658 q 917 650 914 653 q 924 638 924 644 q 913 629 925 632 q 906 626 910 628 q 897 622 903 625 q 897 644 897 633 q 897 663 897 654 m 1039 164 q 968 216 1003 196 q 903 247 933 236 q 902 264 903 256 q 901 281 901 272 q 897 401 899 339 q 896 497 896 463 q 896 516 896 506 q 896 539 896 526 q 907 540 903 539 q 917 542 911 540 q 988 558 956 547 q 1038 592 1021 568 q 1041 620 1049 608 q 1017 640 1033 632 q 989 653 1001 647 q 945 672 974 658 q 899 696 917 686 q 850 776 896 756 q 793 778 804 796 q 803 736 781 760 q 818 706 814 724 q 825 661 822 689 q 828 635 826 650 q 831 601 829 619 q 815 597 822 600 q 799 593 807 594 q 674 581 721 576 q 639 588 649 583 q 615 597 629 592 q 591 603 601 603 q 571 593 581 604 q 571 569 564 586 q 596 542 578 553 q 638 527 614 531 q 707 525 661 524 q 772 528 739 526 q 835 532 804 531 q 838 501 836 517 q 840 472 839 486 q 844 371 843 425 q 843 275 844 317 q 842 267 842 272 q 792 278 818 272 q 735 285 765 283 q 565 244 631 293 q 522 191 533 222 q 518 126 511 160 q 556 61 526 92 q 644 17 586 31 q 846 67 774 -12 q 877 115 865 89 q 894 168 889 140 q 928 140 913 154 q 954 110 943 126 q 981 76 965 94 q 1014 47 996 57 q 1050 46 1032 38 q 1076 97 1078 60 q 1039 164 1074 133 m 644 856 q 695 840 668 844 q 763 832 722 836 q 842 834 803 829 q 921 847 881 839 q 989 873 961 857 q 1010 911 1017 889 q 984 936 1003 932 q 935 936 965 940 q 883 922 906 933 q 833 906 860 911 q 783 894 810 899 q 725 890 757 890 q 660 899 692 890 q 633 905 644 904 q 617 899 622 906 q 619 877 610 890 q 644 856 628 864 m 361 467 q 331 453 350 472 q 306 423 317 439 q 283 385 294 407 q 271 376 276 371 q 267 394 265 381 q 273 452 268 408 q 294 542 278 496 q 327 635 311 586 q 335 726 343 683 q 312 792 326 768 q 271 835 297 817 q 240 851 256 846 q 218 849 225 857 q 218 828 211 842 q 236 800 225 814 q 258 755 249 785 q 268 693 268 725 q 256 619 267 661 q 232 532 244 576 q 209 431 221 489 q 188 325 197 372 q 177 231 179 279 q 193 124 175 182 q 235 42 211 65 q 281 25 258 19 q 303 64 303 31 q 299 136 304 97 q 294 223 293 174 q 308 313 296 272 q 334 385 322 354 q 357 435 346 417 q 365 453 364 444 q 361 467 367 463 m 1215 753 q 1237 772 1231 757 q 1232 804 1243 788 q 1196 835 1222 821 q 1147 856 1169 849 q 1106 865 1125 863 q 1069 868 1088 868 q 1058 868 1065 868 q 1047 863 1050 868 q 1060 836 1038 846 q 1111 810 1092 822 q 1144 779 1131 797 q 1179 754 1158 761 q 1215 753 1200 747 m 1106 694 q 1128 713 1119 699 q 1125 744 1136 726 q 1090 778 1115 763 q 1043 801 1064 794 q 1002 813 1021 808 q 967 818 983 818 q 953 818 961 819 q 943 813 946 817 q 956 786 933 799 q 1035 721 1006 753 q 1071 699 1050 706 q 1106 694 1092 692 z "},"ぽ":{"ha":1389,"x_min":175,"x_max":1229,"o":"m 646 86 q 578 119 603 96 q 558 174 553 142 q 604 221 565 206 q 685 236 643 236 q 766 228 731 236 q 829 207 801 221 q 811 162 822 183 q 786 126 800 140 q 726 90 763 103 q 646 86 689 76 m 897 663 q 908 656 903 658 q 917 650 914 653 q 924 640 924 646 q 913 629 925 633 q 906 626 910 628 q 897 624 903 625 q 897 644 897 633 q 897 663 897 654 m 1039 164 q 903 247 967 228 q 902 264 903 256 q 901 281 901 272 q 897 401 899 339 q 896 497 896 463 q 896 516 896 506 q 896 539 896 526 q 907 540 903 540 q 917 542 911 540 q 988 558 956 547 q 1038 592 1021 568 q 1041 620 1049 608 q 1017 640 1033 632 q 989 654 1001 649 q 945 674 974 661 q 899 696 917 686 q 850 776 896 756 q 793 778 803 796 q 803 736 778 763 q 818 706 814 724 q 825 661 822 689 q 828 635 826 651 q 831 601 829 619 q 815 597 822 600 q 799 593 807 594 q 728 583 758 585 q 674 582 699 581 q 639 588 649 585 q 615 597 629 592 q 591 604 601 603 q 571 594 581 606 q 571 570 564 588 q 596 543 578 553 q 638 528 614 532 q 707 525 661 524 q 772 528 739 526 q 835 532 804 531 q 838 501 836 517 q 840 472 839 486 q 844 371 843 425 q 843 275 844 317 q 842 267 842 272 q 792 278 818 272 q 735 285 765 283 q 565 244 631 293 q 522 191 533 222 q 518 126 511 160 q 557 63 526 93 q 644 18 588 32 q 846 67 775 -12 q 878 115 867 89 q 894 168 889 140 q 928 140 913 154 q 954 110 943 126 q 981 76 965 94 q 1014 47 996 57 q 1050 46 1032 38 q 1076 97 1078 60 q 1039 164 1074 133 m 644 856 q 695 841 668 846 q 763 833 722 836 q 842 835 803 831 q 921 847 881 839 q 989 872 961 856 q 1010 911 1017 889 q 984 935 1003 932 q 935 936 965 939 q 883 922 906 933 q 833 906 860 911 q 783 894 810 899 q 725 890 757 890 q 660 899 692 890 q 633 905 644 904 q 617 899 622 906 q 618 877 610 890 q 644 856 626 864 m 361 467 q 331 453 350 472 q 306 423 317 439 q 283 385 294 407 q 271 376 276 371 q 267 394 265 381 q 273 452 268 408 q 294 542 278 496 q 328 635 313 586 q 335 726 343 683 q 311 793 326 769 q 271 835 296 817 q 240 853 256 847 q 218 849 225 858 q 218 828 211 842 q 236 800 225 815 q 258 756 247 785 q 268 693 269 726 q 256 619 267 661 q 232 533 244 578 q 208 431 221 489 q 188 326 196 372 q 176 231 178 279 q 193 124 175 182 q 235 42 211 65 q 281 25 258 19 q 303 64 303 31 q 299 136 304 97 q 294 224 293 175 q 308 314 296 272 q 333 385 321 354 q 357 435 346 417 q 365 454 364 444 q 361 467 367 464 m 1213 756 q 1200 853 1229 817 q 1114 893 1171 890 q 1049 876 1078 896 q 1008 820 1019 856 q 1018 740 997 785 q 1060 706 1040 696 q 1066 722 1068 711 q 1057 744 1064 732 q 1050 799 1044 772 q 1083 832 1056 826 q 1128 826 1108 838 q 1149 782 1149 814 q 1115 738 1149 750 q 1094 721 1100 732 q 1093 700 1089 710 q 1118 687 1100 690 q 1158 693 1136 683 q 1213 756 1203 715 z "},"ま":{"ha":1389,"x_min":254,"x_max":1026,"o":"m 624 146 q 615 107 622 125 q 586 74 608 89 q 538 50 564 58 q 481 42 511 42 q 424 47 450 40 q 376 63 399 53 q 344 92 356 72 q 339 132 333 113 q 363 165 344 154 q 404 181 381 176 q 494 185 449 186 q 553 181 519 183 q 613 171 586 178 q 625 168 621 168 q 624 156 625 161 q 624 146 624 151 m 969 132 q 896 165 936 150 q 818 192 856 179 q 755 210 788 201 q 692 226 722 219 q 684 277 688 250 q 678 326 681 304 q 674 378 675 349 q 674 436 674 408 q 724 442 699 439 q 768 449 750 446 q 844 466 803 454 q 906 488 885 478 q 944 510 926 497 q 963 538 961 522 q 953 560 964 553 q 926 569 942 568 q 838 590 890 572 q 785 612 806 600 q 750 635 765 624 q 730 638 736 644 q 729 622 724 632 q 743 603 733 614 q 768 583 753 593 q 815 556 790 569 q 828 540 826 549 q 813 526 829 532 q 772 516 797 521 q 724 508 747 511 q 699 506 711 507 q 672 504 686 506 q 674 567 674 533 q 678 631 675 600 q 678 651 678 642 q 681 672 679 661 q 750 687 711 678 q 825 704 789 696 q 903 722 864 713 q 961 738 942 731 q 988 758 979 744 q 981 786 996 772 q 904 811 949 818 q 854 797 881 808 q 801 775 828 786 q 747 757 779 767 q 686 740 715 747 q 690 781 689 765 q 698 844 693 811 q 692 901 703 878 q 663 946 681 925 q 622 978 644 967 q 583 990 600 989 q 560 981 567 990 q 558 956 553 969 q 575 931 563 943 q 608 856 604 903 q 613 801 611 832 q 615 736 615 769 q 615 732 615 733 q 614 728 614 731 q 557 718 586 722 q 506 713 528 714 q 438 713 471 710 q 383 721 406 715 q 343 734 361 726 q 310 747 325 742 q 283 759 296 753 q 261 756 271 765 q 263 732 254 747 q 289 707 272 717 q 331 685 308 696 q 379 665 353 675 q 437 649 406 656 q 504 643 468 642 q 555 649 525 644 q 613 660 585 654 q 611 615 611 636 q 611 579 611 594 q 611 543 611 564 q 613 500 611 522 q 596 500 604 500 q 578 500 588 500 q 490 503 533 501 q 418 514 447 506 q 378 524 392 521 q 354 532 364 528 q 332 537 342 536 q 317 531 322 538 q 314 510 308 522 q 332 492 319 497 q 456 446 394 460 q 522 436 483 440 q 597 432 560 432 q 606 431 603 431 q 615 432 610 432 q 616 420 615 425 q 617 410 617 415 q 619 336 617 378 q 622 263 621 294 q 624 251 624 257 q 624 238 624 244 q 546 247 586 243 q 471 249 506 250 q 388 235 431 247 q 318 204 344 222 q 282 161 292 186 q 275 111 272 136 q 296 61 278 89 q 343 18 314 33 q 406 -8 372 3 q 475 -21 439 -19 q 601 -12 547 -25 q 688 50 657 0 q 703 95 700 69 q 703 144 706 121 q 776 119 742 133 q 856 86 819 104 q 915 57 893 68 q 964 33 938 46 q 1008 35 990 19 q 1016 82 1026 50 q 969 132 1006 114 z "},"み":{"ha":1389,"x_min":138,"x_max":1129,"o":"m 939 381 q 944 399 942 390 q 949 419 947 408 q 964 378 956 400 q 982 346 972 357 q 939 381 963 364 m 304 313 q 255 279 279 292 q 217 272 231 267 q 213 317 194 283 q 276 381 231 350 q 389 432 318 410 q 345 360 365 390 q 304 313 325 331 m 1079 308 q 1038 351 1063 322 q 990 424 1014 379 q 974 455 983 438 q 958 490 965 472 q 960 511 960 500 q 961 532 961 522 q 947 585 961 565 q 917 613 932 604 q 881 624 900 621 q 851 617 861 628 q 849 590 843 606 q 861 558 856 574 q 872 521 867 544 q 876 469 878 497 q 872 419 876 449 q 831 441 851 431 q 789 460 810 451 q 694 490 742 479 q 586 501 647 500 q 537 501 563 501 q 483 499 511 500 q 528 579 506 539 q 569 654 551 619 q 628 754 596 703 q 676 831 661 806 q 704 906 708 881 q 692 928 701 921 q 668 943 683 936 q 635 951 653 950 q 604 943 617 951 q 562 922 589 935 q 503 894 535 908 q 441 871 471 882 q 392 861 411 860 q 346 868 369 863 q 313 856 322 874 q 314 830 306 846 q 338 806 322 814 q 379 792 353 794 q 429 799 406 790 q 471 816 444 804 q 525 842 497 828 q 572 868 553 856 q 596 872 586 875 q 599 851 606 868 q 581 813 594 842 q 551 752 568 785 q 521 693 535 719 q 475 602 503 658 q 418 489 447 546 q 376 478 397 485 q 335 465 356 472 q 231 410 271 442 q 171 347 192 379 q 147 294 157 326 q 138 232 138 263 q 156 185 139 201 q 208 166 176 165 q 271 182 239 167 q 329 225 303 197 q 395 315 367 264 q 450 428 424 367 q 455 439 453 433 q 460 450 457 444 q 472 452 467 451 q 485 453 478 453 q 592 453 544 458 q 685 431 639 449 q 768 394 721 418 q 856 342 815 369 q 852 331 854 336 q 849 319 850 325 q 808 232 833 281 q 739 143 782 183 q 649 72 697 103 q 556 28 600 42 q 531 15 542 24 q 521 1 519 7 q 533 -8 522 -6 q 568 -6 544 -11 q 695 49 640 17 q 790 124 750 82 q 860 206 831 164 q 911 300 889 247 q 977 243 947 269 q 1038 215 1007 217 q 1094 213 1069 213 q 1124 233 1119 214 q 1112 274 1129 253 q 1079 308 1094 294 z "},"む":{"ha":1389,"x_min":203,"x_max":1097,"o":"m 988 579 q 933 576 961 579 q 882 569 906 574 q 858 565 869 567 q 839 561 846 564 q 840 581 839 572 q 842 599 840 590 q 860 661 844 633 q 888 701 876 689 q 917 714 899 713 q 947 696 936 715 q 971 656 958 678 q 994 610 983 633 q 999 589 1000 599 q 988 579 997 579 m 325 360 q 290 386 314 367 q 263 438 267 406 q 266 499 258 471 q 290 531 274 528 q 368 513 332 538 q 397 478 388 499 q 393 435 394 456 q 389 401 392 414 q 368 342 381 347 q 349 345 361 338 q 325 360 338 353 m 472 819 q 476 843 476 832 q 503 826 490 833 q 526 817 517 819 q 496 797 511 806 q 464 781 481 788 q 468 801 467 792 q 472 819 469 811 m 1003 729 q 896 760 949 765 q 853 732 869 757 q 826 683 836 707 q 808 608 815 660 q 803 506 800 556 q 809 419 804 457 q 819 342 814 381 q 833 272 826 301 q 839 228 839 242 q 835 178 839 211 q 818 131 832 144 q 778 99 803 114 q 724 69 754 83 q 644 53 694 57 q 540 51 593 50 q 458 65 488 53 q 417 96 428 76 q 409 138 408 111 q 415 192 410 165 q 424 235 419 219 q 434 276 431 260 q 432 306 438 292 q 433 342 428 318 q 450 397 439 367 q 469 458 461 426 q 475 517 476 490 q 456 558 474 539 q 456 622 457 594 q 456 679 456 649 q 456 691 456 685 q 456 703 456 697 q 464 704 460 704 q 471 706 468 704 q 545 723 511 710 q 597 753 579 736 q 615 787 615 769 q 607 814 614 804 q 565 838 599 833 q 475 872 531 842 q 464 901 472 886 q 442 932 456 917 q 415 954 431 946 q 386 968 400 963 q 357 973 372 972 q 336 967 342 974 q 332 938 326 953 q 350 913 338 922 q 374 886 364 901 q 390 851 385 871 q 401 761 400 815 q 396 759 399 760 q 389 757 393 758 q 349 753 367 754 q 308 756 331 753 q 276 767 293 758 q 251 782 260 775 q 235 796 244 789 q 214 797 225 803 q 209 770 203 792 q 232 733 215 749 q 272 712 250 718 q 322 703 293 706 q 359 700 338 701 q 403 700 381 699 q 402 651 403 678 q 401 601 401 625 q 390 606 394 606 q 312 618 351 622 q 247 581 272 614 q 215 503 222 546 q 214 406 208 460 q 247 317 218 350 q 293 269 275 283 q 330 250 310 258 q 368 240 350 242 q 360 182 364 214 q 356 122 356 150 q 367 61 358 86 q 399 18 376 36 q 535 -21 440 -12 q 646 -23 583 -26 q 761 -3 708 -19 q 846 31 814 14 q 894 61 878 47 q 924 102 911 75 q 928 154 936 129 q 902 214 918 179 q 876 274 886 249 q 858 344 867 300 q 846 424 850 389 q 842 474 844 449 q 840 524 840 500 q 916 517 881 522 q 968 506 951 513 q 999 490 982 500 q 1026 475 1015 481 q 1054 475 1036 469 q 1079 499 1072 481 q 1092 552 1088 522 q 1085 619 1097 582 q 1050 685 1072 658 q 1003 729 1028 711 z "},"め":{"ha":1389,"x_min":164,"x_max":1088,"o":"m 240 465 q 331 592 267 532 q 349 524 342 556 q 365 468 356 493 q 397 413 375 442 q 443 364 418 383 q 465 349 454 356 q 486 335 476 342 q 471 306 479 319 q 456 283 463 293 q 339 210 413 221 q 273 224 303 206 q 231 279 243 242 q 219 367 217 317 q 240 465 221 417 m 625 708 q 619 692 622 701 q 614 674 617 683 q 581 573 596 618 q 546 475 565 528 q 535 446 540 461 q 524 417 529 431 q 493 435 511 419 q 463 474 481 446 q 433 535 444 503 q 411 587 425 561 q 386 633 397 613 q 397 640 392 638 q 407 646 401 643 q 508 688 454 671 q 625 708 563 704 m 256 114 q 334 90 293 88 q 404 111 375 93 q 464 167 435 131 q 515 243 493 203 q 533 277 524 258 q 550 315 542 296 q 572 331 563 319 q 588 354 581 343 q 603 393 596 369 q 608 436 610 417 q 608 448 608 442 q 607 460 608 454 q 626 515 617 485 q 646 581 636 544 q 665 649 656 617 q 682 711 674 681 q 826 683 760 710 q 935 606 892 656 q 994 479 978 553 q 992 322 1011 406 q 935 186 972 239 q 831 90 897 133 q 752 50 794 65 q 669 28 710 35 q 623 18 643 22 q 592 13 603 14 q 569 0 569 8 q 600 -10 569 -10 q 644 -8 614 -10 q 711 1 675 -6 q 789 19 751 8 q 857 47 826 31 q 930 95 896 68 q 990 154 964 122 q 1044 238 1025 197 q 1075 313 1064 278 q 1088 402 1088 354 q 1076 496 1088 450 q 1044 577 1065 543 q 993 644 1024 611 q 919 703 961 679 q 833 740 878 726 q 765 756 797 750 q 696 763 732 763 q 706 833 704 800 q 703 889 708 865 q 680 928 696 914 q 653 947 664 942 q 621 958 642 953 q 593 953 600 963 q 594 929 588 943 q 606 904 600 915 q 625 865 617 886 q 638 819 633 844 q 635 760 642 799 q 540 749 583 757 q 458 726 497 740 q 364 679 407 708 q 338 725 351 701 q 311 764 324 749 q 287 794 297 783 q 267 813 276 806 q 241 825 254 822 q 221 818 228 828 q 219 795 211 808 q 238 772 226 782 q 282 713 263 751 q 314 640 297 682 q 302 628 308 633 q 290 617 296 622 q 227 538 253 578 q 183 449 201 499 q 165 352 165 399 q 168 263 164 306 q 194 181 172 221 q 256 114 217 140 z "},"も":{"ha":1389,"x_min":292,"x_max":960,"o":"m 360 417 q 374 469 332 444 q 381 475 378 472 q 389 479 385 478 q 383 442 386 461 q 379 401 381 422 q 369 408 374 404 q 360 417 365 413 m 496 631 q 525 618 525 629 q 514 600 525 607 q 494 587 508 596 q 463 568 479 578 q 468 596 465 582 q 475 622 471 610 q 478 631 478 628 q 488 631 483 631 q 496 631 493 631 m 904 399 q 836 469 875 439 q 753 531 797 500 q 710 555 725 549 q 681 568 696 561 q 665 571 674 571 q 654 565 656 571 q 656 552 650 558 q 671 542 661 546 q 698 524 679 536 q 740 493 717 513 q 789 444 764 472 q 835 375 814 417 q 865 291 858 331 q 871 203 872 251 q 838 110 869 154 q 749 43 807 65 q 622 25 689 19 q 513 60 554 31 q 451 135 469 89 q 431 233 433 181 q 431 296 428 267 q 448 292 439 294 q 465 286 457 289 q 529 276 493 279 q 600 275 565 272 q 646 297 640 279 q 642 322 650 307 q 621 344 633 338 q 556 356 599 360 q 496 360 533 354 q 435 374 458 365 q 439 401 436 388 q 443 428 442 414 q 456 515 447 472 q 473 524 464 519 q 492 532 482 528 q 559 565 526 549 q 610 593 592 581 q 639 656 653 618 q 564 692 626 688 q 496 700 528 694 q 514 763 504 731 q 531 819 524 794 q 547 894 544 863 q 531 943 549 925 q 491 973 513 960 q 451 992 469 986 q 413 985 421 1000 q 426 951 406 972 q 444 927 436 942 q 456 900 451 913 q 460 869 458 886 q 458 835 461 853 q 452 799 456 817 q 443 758 449 781 q 439 737 442 747 q 433 714 436 726 q 361 747 390 725 q 335 775 346 761 q 307 783 324 789 q 300 761 299 781 q 314 718 301 742 q 346 680 326 694 q 393 654 365 665 q 406 650 400 653 q 418 644 411 647 q 407 592 413 622 q 394 524 401 563 q 362 501 376 511 q 338 482 347 490 q 307 452 322 472 q 293 407 292 432 q 308 367 293 383 q 354 332 322 350 q 363 328 358 331 q 371 322 367 325 q 369 297 369 310 q 368 271 368 283 q 406 64 360 151 q 471 -1 428 24 q 561 -36 514 -26 q 663 -42 608 -46 q 758 -25 717 -39 q 843 14 801 -11 q 908 71 885 39 q 958 219 960 138 q 946 310 958 263 q 904 399 933 358 z "},"ゃ":{"ha":1389,"x_min":196,"x_max":1056,"o":"m 894 664 q 810 669 851 671 q 718 650 768 667 q 619 613 672 636 q 528 569 567 589 q 505 560 517 565 q 481 550 493 556 q 460 602 469 578 q 443 647 450 626 q 437 701 435 674 q 450 742 439 729 q 483 761 464 756 q 531 761 503 767 q 575 743 553 757 q 611 718 597 729 q 638 695 625 706 q 665 675 651 685 q 695 665 679 665 q 722 669 711 664 q 735 688 733 675 q 738 714 738 700 q 719 761 738 743 q 702 781 710 772 q 683 800 694 789 q 669 815 676 808 q 654 819 661 822 q 643 808 644 818 q 642 789 642 799 q 644 769 643 779 q 640 754 644 760 q 626 752 635 749 q 608 760 617 756 q 584 773 600 765 q 543 786 568 781 q 449 790 496 799 q 409 769 426 785 q 386 735 392 753 q 381 683 379 711 q 390 632 382 656 q 410 585 397 613 q 435 529 422 558 q 386 507 408 518 q 351 490 364 496 q 305 474 328 481 q 261 469 282 468 q 224 470 240 471 q 201 456 208 469 q 203 437 196 447 q 219 418 210 426 q 244 401 231 410 q 279 392 258 392 q 319 399 299 390 q 372 424 340 407 q 460 471 406 443 q 506 342 485 413 q 537 247 521 290 q 565 156 553 203 q 575 46 579 101 q 581 1 572 19 q 608 -19 589 -18 q 640 -1 628 -22 q 654 54 651 19 q 649 122 656 89 q 631 192 643 156 q 608 249 622 215 q 578 313 593 282 q 556 363 564 344 q 531 424 546 386 q 503 494 515 461 q 541 517 522 506 q 574 535 560 528 q 660 581 617 558 q 758 615 703 603 q 867 616 814 626 q 956 569 921 606 q 983 488 989 533 q 947 418 978 442 q 874 385 918 393 q 783 393 829 378 q 705 426 736 407 q 650 471 674 444 q 636 480 644 478 q 624 481 628 482 q 626 456 613 472 q 687 396 653 419 q 763 356 721 372 q 844 335 804 338 q 922 340 883 333 q 990 368 961 347 q 1038 432 1019 389 q 1051 510 1056 475 q 1029 578 1047 544 q 969 638 1006 617 q 894 664 932 658 z "},"や":{"ha":1389,"x_min":118,"x_max":1128,"o":"m 939 763 q 839 769 888 772 q 731 744 790 765 q 615 701 678 728 q 506 653 553 674 q 481 640 494 647 q 451 628 467 633 q 425 689 436 660 q 407 743 414 718 q 400 806 399 774 q 415 854 401 839 q 454 878 432 872 q 511 878 476 885 q 563 856 536 872 q 606 825 590 839 q 637 798 621 810 q 668 775 653 786 q 705 764 686 764 q 736 769 724 764 q 750 791 749 776 q 753 821 751 806 q 732 878 753 854 q 713 900 722 890 q 692 922 703 910 q 672 940 682 932 q 656 944 663 947 q 642 931 644 943 q 642 908 640 919 q 642 886 642 897 q 639 868 643 875 q 624 865 633 861 q 603 875 614 869 q 573 890 592 881 q 526 906 554 899 q 414 911 469 922 q 368 888 389 906 q 340 846 347 869 q 333 785 331 818 q 344 726 335 753 q 369 671 354 703 q 399 604 383 639 q 340 576 367 589 q 299 557 314 564 q 193 535 246 532 q 151 535 169 536 q 124 518 133 533 q 126 494 118 508 q 144 471 133 481 q 173 452 156 461 q 214 443 190 443 q 263 451 238 442 q 324 481 288 461 q 369 503 342 489 q 428 536 397 518 q 455 463 442 501 q 481 382 468 425 q 519 271 500 322 q 551 165 538 219 q 562 99 560 131 q 563 35 564 67 q 571 -19 561 3 q 603 -43 581 -40 q 639 -19 625 -44 q 656 44 653 6 q 650 124 658 85 q 626 206 642 164 q 600 272 617 233 q 567 349 583 311 q 540 408 550 386 q 511 479 529 435 q 478 564 493 524 q 522 589 500 576 q 561 611 544 601 q 663 666 611 640 q 779 706 714 692 q 907 706 844 719 q 1010 651 969 693 q 1042 588 1036 622 q 1036 523 1047 554 q 1001 472 1025 492 q 915 435 967 443 q 807 443 864 428 q 716 483 753 460 q 650 536 679 506 q 633 546 643 544 q 619 544 624 547 q 616 533 615 542 q 622 517 617 525 q 694 447 653 476 q 783 399 735 418 q 879 376 833 379 q 971 381 925 372 q 1051 415 1017 390 q 1106 490 1085 439 q 1124 582 1128 542 q 1096 661 1119 622 q 1026 730 1069 706 q 939 763 983 754 z "},"ゅ":{"ha":1389,"x_min":239,"x_max":1011,"o":"m 556 331 q 525 423 533 371 q 518 529 517 475 q 538 626 519 579 q 576 653 556 640 q 618 676 596 667 q 645 689 632 683 q 671 700 658 694 q 687 688 679 694 q 700 669 694 681 q 728 589 719 633 q 740 493 738 544 q 741 422 742 465 q 732 335 740 378 q 716 267 725 297 q 693 207 707 236 q 610 258 646 222 q 556 331 575 294 m 821 706 q 905 647 868 694 q 950 543 942 600 q 949 417 958 486 q 907 296 939 347 q 835 224 875 246 q 743 201 794 203 q 774 264 763 235 q 797 336 786 293 q 810 425 808 375 q 810 517 813 475 q 797 602 807 564 q 767 682 788 640 q 757 700 761 692 q 746 717 753 708 q 781 714 763 717 q 821 706 800 711 m 531 7 q 522 -6 524 1 q 522 -15 519 -12 q 554 -10 533 -24 q 607 30 583 8 q 651 74 631 51 q 683 110 669 92 q 713 153 697 129 q 881 193 804 138 q 956 275 929 229 q 997 371 983 321 q 1010 467 1010 415 q 1001 568 1011 519 q 963 662 992 617 q 886 731 933 707 q 790 763 840 756 q 693 760 740 769 q 660 769 678 767 q 618 767 642 771 q 549 731 576 760 q 506 664 522 701 q 456 618 481 643 q 383 515 408 564 q 343 414 358 467 q 331 368 335 386 q 325 333 328 350 q 322 418 319 375 q 332 501 325 461 q 342 573 339 542 q 336 639 344 604 q 314 690 331 665 q 286 726 297 714 q 265 745 276 738 q 246 746 254 753 q 240 731 239 742 q 249 708 242 719 q 270 667 260 692 q 282 617 281 642 q 283 559 285 592 q 269 488 281 526 q 255 407 260 450 q 254 321 250 364 q 267 242 257 281 q 293 171 276 204 q 356 117 324 104 q 371 147 371 122 q 361 207 371 172 q 354 295 347 258 q 374 381 361 332 q 409 472 388 432 q 454 542 431 511 q 465 556 460 549 q 478 571 471 564 q 469 439 464 497 q 494 336 475 381 q 553 245 515 289 q 649 172 592 201 q 659 168 654 169 q 668 164 664 167 q 640 119 654 139 q 607 81 625 100 q 568 39 588 58 q 531 7 549 19 z "},"ゆ":{"ha":1389,"x_min":171,"x_max":1081,"o":"m 543 421 q 508 531 518 469 q 500 656 497 592 q 506 714 501 685 q 521 768 511 743 q 567 801 543 786 q 617 829 590 815 q 679 856 650 846 q 713 821 699 846 q 747 725 736 778 q 760 613 757 672 q 760 529 761 581 q 751 428 760 478 q 733 347 744 383 q 704 278 721 311 q 607 338 649 294 q 543 421 565 381 m 856 864 q 954 794 911 850 q 1007 672 997 739 q 1006 523 1017 604 q 957 381 996 442 q 873 297 921 322 q 764 269 825 272 q 800 343 786 308 q 828 429 814 378 q 842 534 839 476 q 843 640 846 592 q 828 742 839 696 q 792 836 817 788 q 781 856 786 847 q 768 875 775 865 q 808 872 786 875 q 856 864 831 869 m 515 43 q 503 27 506 36 q 506 15 501 18 q 519 12 508 10 q 542 21 531 14 q 603 67 575 42 q 656 119 631 92 q 728 211 694 163 q 831 215 779 203 q 926 261 882 228 q 1015 357 983 304 q 1064 468 1047 410 q 1079 583 1078 521 q 1068 701 1081 644 q 1021 811 1054 758 q 932 893 988 864 q 819 930 878 922 q 706 926 760 938 q 665 936 688 933 q 615 933 643 939 q 535 892 568 925 q 483 814 503 858 q 454 788 469 801 q 425 760 439 775 q 339 640 367 699 q 293 519 311 581 q 272 425 274 461 q 268 524 264 474 q 281 622 272 575 q 292 706 290 668 q 285 785 294 744 q 257 844 278 817 q 226 886 236 872 q 202 909 215 900 q 179 911 189 918 q 172 892 171 906 q 182 867 174 878 q 207 817 196 847 q 221 758 218 788 q 221 690 224 729 q 206 606 218 651 q 189 512 194 561 q 188 411 183 463 q 233 235 196 314 q 308 169 272 157 q 326 206 326 175 q 314 276 325 236 q 306 380 297 336 q 329 481 314 424 q 371 587 344 540 q 424 669 397 633 q 438 687 431 678 q 451 704 444 696 q 443 550 436 619 q 472 429 450 481 q 541 322 497 374 q 653 236 585 269 q 676 226 664 231 q 642 173 660 197 q 606 128 625 149 q 557 78 581 100 q 515 43 533 57 z "},"ょ":{"ha":1389,"x_min":303,"x_max":946,"o":"m 596 69 q 528 45 569 50 q 456 47 488 40 q 385 72 415 57 q 356 118 356 88 q 389 168 356 153 q 469 188 422 183 q 550 185 514 190 q 618 175 586 181 q 628 173 624 174 q 636 171 632 172 q 626 112 633 136 q 596 69 618 88 m 565 244 q 468 243 517 249 q 381 218 419 238 q 307 111 303 181 q 335 49 310 79 q 408 0 361 18 q 480 -17 440 -11 q 557 -18 519 -22 q 622 3 594 -14 q 703 128 703 49 q 703 140 703 133 q 703 153 703 146 q 726 142 714 147 q 751 131 739 138 q 796 102 778 117 q 828 78 814 88 q 859 61 842 67 q 901 57 876 56 q 937 68 928 58 q 944 89 946 78 q 927 117 943 100 q 883 150 911 135 q 813 185 853 168 q 736 213 772 203 q 699 221 719 217 q 697 255 697 239 q 694 278 696 271 q 690 338 692 296 q 688 410 689 379 q 685 456 686 431 q 682 507 683 481 q 719 499 701 503 q 751 494 738 496 q 790 492 768 493 q 826 494 811 490 q 856 510 843 500 q 871 528 868 519 q 879 547 876 536 q 874 567 882 558 q 850 578 865 575 q 822 574 835 581 q 790 563 810 567 q 747 558 771 558 q 711 560 728 560 q 682 564 694 561 q 688 636 683 597 q 693 699 692 675 q 667 782 693 754 q 633 806 651 799 q 592 817 614 814 q 564 819 575 819 q 547 810 553 819 q 568 779 542 792 q 594 760 581 772 q 614 729 608 747 q 624 684 619 711 q 629 618 628 657 q 633 526 631 581 q 638 413 636 471 q 640 321 639 364 q 639 235 640 278 q 602 240 621 238 q 565 244 583 243 z "},"よ":{"ha":1389,"x_min":219,"x_max":978,"o":"m 567 85 q 488 56 536 61 q 400 58 439 50 q 319 88 353 69 q 285 143 285 107 q 323 202 285 183 q 418 225 361 221 q 512 223 469 229 q 593 208 554 217 q 603 206 599 207 q 614 206 608 206 q 601 134 611 164 q 567 85 592 104 m 531 292 q 417 290 475 296 q 313 260 358 283 q 226 133 219 214 q 260 60 229 94 q 346 4 290 25 q 430 -15 383 -10 q 522 -16 476 -21 q 597 7 567 -11 q 692 154 692 64 q 692 168 692 161 q 692 182 692 175 q 720 171 706 176 q 749 157 735 165 q 801 123 779 142 q 839 93 824 104 q 874 76 854 83 q 926 69 894 68 q 967 83 957 72 q 976 107 978 94 q 956 141 975 121 q 906 181 938 161 q 821 222 868 200 q 731 254 774 244 q 710 258 721 256 q 688 265 699 261 q 685 303 686 286 q 681 331 683 321 q 679 372 681 344 q 676 431 678 400 q 674 485 675 461 q 670 540 672 510 q 668 600 668 569 q 713 591 692 594 q 749 586 733 588 q 793 583 768 585 q 838 586 818 581 q 870 602 856 590 q 890 624 885 614 q 899 647 896 633 q 893 669 903 660 q 865 683 882 681 q 832 679 847 686 q 794 665 817 671 q 743 660 772 660 q 703 663 722 661 q 668 668 683 664 q 674 752 669 707 q 681 826 679 797 q 649 924 681 890 q 560 965 614 958 q 528 967 542 967 q 508 956 514 967 q 512 935 504 944 q 533 919 519 926 q 564 898 547 914 q 588 861 581 882 q 599 807 594 839 q 604 731 603 775 q 609 622 606 686 q 615 489 613 558 q 617 381 617 432 q 617 281 618 329 q 574 286 596 283 q 531 292 553 289 z "},"ら":{"ha":1389,"x_min":242,"x_max":1013,"o":"m 788 113 q 574 31 693 56 q 497 20 533 24 q 433 18 460 17 q 408 17 419 19 q 394 7 396 15 q 408 -6 394 -3 q 435 -11 421 -10 q 488 -12 450 -12 q 579 -7 526 -12 q 699 15 631 -1 q 817 58 768 32 q 912 124 864 85 q 992 233 960 164 q 1003 338 1013 279 q 951 440 993 397 q 848 506 906 489 q 706 517 790 522 q 550 465 635 511 q 469 417 506 442 q 406 376 433 392 q 365 358 381 361 q 333 363 349 356 q 321 393 319 369 q 325 442 322 417 q 333 513 328 464 q 343 604 339 561 q 353 676 349 647 q 360 719 358 706 q 374 744 361 735 q 406 760 386 754 q 457 769 425 767 q 513 768 489 772 q 558 758 536 765 q 592 747 579 751 q 613 747 603 744 q 631 757 624 750 q 642 781 639 764 q 638 822 646 799 q 572 911 618 876 q 524 941 551 928 q 467 958 496 954 q 438 961 451 961 q 414 960 424 961 q 394 957 403 958 q 385 946 386 956 q 393 932 383 938 q 414 922 403 926 q 455 905 433 915 q 493 881 476 894 q 523 848 513 865 q 529 819 533 831 q 502 804 525 808 q 460 799 479 800 q 404 788 442 797 q 344 768 367 778 q 311 737 322 757 q 294 681 300 717 q 286 596 290 644 q 274 504 282 547 q 259 423 265 460 q 247 363 253 386 q 249 317 242 339 q 271 271 257 294 q 292 238 285 247 q 322 228 300 228 q 359 231 343 228 q 390 247 375 233 q 438 292 404 261 q 503 350 471 324 q 585 411 542 382 q 667 451 629 440 q 760 460 710 464 q 854 431 810 457 q 908 368 894 406 q 918 286 921 331 q 788 113 910 188 z "},"り":{"ha":1389,"x_min":328,"x_max":921,"o":"m 699 119 q 606 58 656 81 q 496 21 556 36 q 451 13 472 15 q 411 8 431 11 q 392 3 397 7 q 386 -6 388 0 q 417 -18 386 -18 q 456 -17 431 -19 q 519 -8 482 -15 q 597 9 558 -3 q 681 42 636 21 q 763 92 724 61 q 839 169 803 124 q 889 257 874 215 q 913 347 904 299 q 921 443 921 396 q 904 556 921 490 q 859 655 889 618 q 799 717 829 692 q 708 758 757 750 q 611 761 660 767 q 522 732 563 756 q 457 688 481 708 q 428 654 439 672 q 411 619 417 636 q 423 694 408 656 q 450 767 438 732 q 463 842 463 800 q 442 914 464 883 q 403 953 418 944 q 375 965 389 961 q 349 967 363 969 q 332 956 335 965 q 354 917 328 939 q 379 881 369 903 q 386 826 389 858 q 363 689 382 758 q 349 608 353 654 q 346 513 344 561 q 359 419 349 465 q 390 340 369 372 q 437 290 411 307 q 486 285 463 272 q 506 329 510 299 q 489 381 503 360 q 456 435 475 403 q 436 513 436 468 q 451 591 436 554 q 499 660 465 628 q 551 697 521 681 q 619 718 581 713 q 698 715 658 724 q 771 676 738 706 q 819 613 804 649 q 840 529 833 578 q 844 420 847 481 q 818 297 840 360 q 771 199 800 240 q 699 119 742 158 z "},"る":{"ha":1389,"x_min":215,"x_max":1036,"o":"m 1031 319 q 997 423 1025 381 q 929 493 969 465 q 844 538 889 521 q 746 560 800 554 q 649 558 693 565 q 564 536 604 550 q 519 517 536 525 q 488 497 503 508 q 561 575 536 549 q 586 601 586 601 q 643 666 611 628 q 703 733 675 704 q 758 785 731 761 q 801 818 786 810 q 831 850 828 835 q 831 870 833 860 q 814 894 828 881 q 781 921 800 910 q 740 931 761 932 q 697 917 721 929 q 638 886 672 906 q 564 849 603 867 q 493 818 525 831 q 445 801 461 804 q 415 799 429 797 q 390 802 401 799 q 368 807 378 806 q 351 808 360 810 q 338 796 342 806 q 338 775 335 789 q 353 751 342 761 q 381 731 364 742 q 425 721 399 721 q 475 728 451 721 q 529 751 499 736 q 574 778 549 763 q 622 806 600 793 q 651 824 644 819 q 676 835 661 831 q 696 835 690 840 q 681 794 706 826 q 657 764 675 786 q 616 714 639 742 q 572 661 593 686 q 540 622 551 636 q 498 573 525 606 q 441 505 471 540 q 388 444 411 469 q 325 369 353 406 q 278 308 297 333 q 238 256 258 285 q 217 214 218 228 q 218 181 215 200 q 232 153 221 163 q 260 141 249 139 q 278 146 272 143 q 319 211 304 160 q 350 283 328 239 q 403 367 372 326 q 478 440 433 408 q 588 493 522 472 q 835 485 718 535 q 926 407 893 458 q 958 308 960 356 q 939 216 958 261 q 879 138 919 171 q 801 96 846 111 q 706 74 756 81 q 716 123 718 99 q 688 169 714 147 q 617 199 656 194 q 543 196 578 203 q 476 167 508 189 q 444 113 443 144 q 472 59 444 81 q 563 24 499 38 q 678 12 625 13 q 785 25 732 11 q 884 65 838 39 q 969 135 931 92 q 1021 219 1006 175 q 1031 319 1036 263 m 621 71 q 551 81 578 72 q 517 101 525 90 q 519 139 503 122 q 569 157 536 156 q 619 146 597 157 q 644 115 642 135 q 621 71 647 94 z "},"れ":{"ha":1389,"x_min":83,"x_max":1168,"o":"m 1138 232 q 1100 199 1125 221 q 1053 163 1075 178 q 999 133 1032 147 q 933 121 965 119 q 882 144 901 122 q 864 218 863 167 q 868 328 865 269 q 878 449 871 388 q 885 549 883 500 q 885 622 886 599 q 878 677 885 650 q 854 726 871 704 q 814 760 836 750 q 768 769 792 769 q 710 760 743 769 q 642 726 678 750 q 580 685 615 708 q 514 639 544 661 q 469 604 483 617 q 451 592 458 593 q 442 596 444 592 q 444 608 439 597 q 458 631 450 618 q 467 662 465 643 q 464 692 469 681 q 433 715 458 704 q 437 734 435 725 q 442 751 439 743 q 451 806 450 778 q 440 861 453 835 q 410 912 428 888 q 368 950 392 936 q 299 964 322 983 q 295 942 290 958 q 314 910 300 925 q 344 871 331 892 q 360 824 357 850 q 363 781 361 806 q 365 732 365 757 q 333 727 349 732 q 297 715 317 722 q 235 685 269 703 q 176 649 200 668 q 143 609 153 629 q 146 571 133 589 q 172 516 158 551 q 197 450 186 481 q 210 417 203 436 q 225 376 217 399 q 215 360 219 368 q 206 346 210 353 q 153 269 178 306 q 110 200 128 232 q 88 150 92 167 q 93 115 83 133 q 139 90 114 82 q 178 160 163 96 q 205 229 186 194 q 251 304 224 264 q 253 304 253 304 q 253 304 253 304 q 260 283 257 294 q 268 260 264 271 q 300 163 286 204 q 322 92 314 122 q 333 38 329 61 q 338 1 336 14 q 349 -19 339 -11 q 376 -24 358 -26 q 404 -10 394 -19 q 419 14 414 0 q 431 72 431 36 q 432 131 432 108 q 430 210 431 176 q 426 278 429 243 q 421 365 424 314 q 417 469 418 417 q 417 481 417 475 q 417 493 417 486 q 491 562 461 535 q 551 611 521 589 q 624 658 583 638 q 696 685 664 678 q 754 689 728 692 q 794 671 781 686 q 810 617 808 656 q 808 532 811 579 q 804 444 806 490 q 800 346 803 397 q 794 241 797 294 q 799 158 790 188 q 823 109 807 128 q 863 76 839 90 q 904 60 882 65 q 958 61 926 56 q 1017 81 990 67 q 1075 121 1044 94 q 1126 175 1104 147 q 1158 219 1149 203 q 1159 239 1168 235 q 1138 232 1150 243 m 336 181 q 313 244 329 199 q 278 340 297 290 q 314 385 294 363 q 356 432 333 408 q 356 278 353 342 q 358 213 358 235 q 360 176 358 190 q 351 162 360 163 q 336 181 343 161 m 360 563 q 347 539 354 550 q 328 513 339 528 q 295 469 317 497 q 251 411 274 442 q 226 474 238 446 q 204 526 214 503 q 206 587 189 560 q 239 622 224 614 q 281 639 254 629 q 325 649 307 649 q 349 644 340 649 q 361 633 357 639 q 360 599 361 618 q 360 563 360 581 z "},"ろ":{"ha":1389,"x_min":211,"x_max":1036,"o":"m 926 483 q 828 519 885 508 q 711 526 772 531 q 603 498 650 521 q 524 457 556 475 q 465 417 492 439 q 426 382 439 394 q 497 488 461 439 q 571 585 533 536 q 643 675 610 633 q 690 736 676 717 q 721 776 703 756 q 749 803 739 796 q 773 817 758 808 q 793 838 788 825 q 799 868 797 849 q 786 903 800 888 q 731 935 757 938 q 697 922 719 933 q 643 893 675 910 q 573 858 611 875 q 511 835 535 842 q 467 829 488 828 q 428 838 446 831 q 392 851 410 844 q 363 846 375 857 q 357 819 354 839 q 372 789 360 800 q 438 756 399 767 q 478 752 456 750 q 518 763 500 754 q 558 784 536 771 q 593 806 581 797 q 627 829 606 815 q 656 847 649 843 q 668 857 661 853 q 681 858 675 861 q 679 833 692 851 q 658 802 675 828 q 620 747 640 776 q 586 696 600 717 q 557 655 576 681 q 515 598 538 629 q 471 538 492 567 q 436 490 450 510 q 383 410 408 451 q 331 335 358 368 q 283 275 303 301 q 247 228 264 249 q 219 132 211 181 q 233 91 225 108 q 254 68 240 74 q 294 81 283 57 q 310 129 301 94 q 339 207 319 164 q 389 291 358 251 q 450 357 419 331 q 532 417 492 392 q 618 460 572 443 q 707 480 664 476 q 790 479 750 483 q 873 453 831 474 q 932 393 915 433 q 946 299 950 354 q 894 197 942 243 q 800 122 842 146 q 708 78 758 97 q 646 56 672 64 q 601 43 619 49 q 583 35 594 42 q 574 22 572 29 q 617 14 581 10 q 680 24 646 17 q 756 43 714 31 q 824 69 794 57 q 892 103 854 81 q 958 150 931 125 q 1007 210 985 175 q 1032 285 1028 242 q 1024 368 1036 328 q 987 436 1011 411 q 926 483 963 461 z "},"ゎ":{"ha":1389,"x_min":186,"x_max":1061,"o":"m 425 131 q 404 174 419 140 q 374 243 389 207 q 365 262 369 251 q 356 283 361 272 q 372 303 364 293 q 389 325 379 314 q 415 356 401 339 q 443 386 428 372 q 443 335 443 360 q 443 293 443 311 q 443 230 443 267 q 443 179 443 193 q 444 152 443 164 q 444 131 444 140 q 438 122 444 122 q 425 131 431 121 m 307 385 q 294 418 296 408 q 296 433 293 428 q 311 446 299 439 q 336 460 324 453 q 365 474 347 465 q 398 492 382 483 q 421 503 414 500 q 434 494 429 508 q 429 467 439 479 q 404 436 422 458 q 367 390 386 414 q 339 354 349 367 q 333 349 336 353 q 329 343 331 344 q 317 365 322 354 q 307 385 313 376 m 857 606 q 749 611 792 619 q 654 583 706 603 q 592 555 632 576 q 518 506 551 533 q 532 586 547 554 q 501 624 522 615 q 507 690 504 663 q 506 735 510 718 q 487 778 499 758 q 456 811 475 797 q 413 829 436 825 q 382 822 390 833 q 383 801 375 813 q 400 781 390 789 q 422 758 411 771 q 440 721 433 744 q 449 676 447 699 q 449 614 450 653 q 447 608 449 610 q 420 591 435 600 q 394 574 406 582 q 353 544 375 560 q 307 515 331 528 q 268 490 286 503 q 249 464 250 478 q 267 400 244 432 q 285 364 276 385 q 306 313 293 343 q 283 281 294 297 q 264 253 272 264 q 237 214 250 232 q 217 188 224 196 q 197 158 208 179 q 196 119 186 136 q 216 94 206 104 q 238 86 226 83 q 256 104 249 89 q 268 138 264 119 q 283 175 274 156 q 307 218 292 194 q 320 234 314 225 q 333 253 326 243 q 355 198 344 225 q 374 147 365 171 q 396 85 386 113 q 413 25 406 57 q 433 -19 419 -7 q 458 -29 447 -31 q 482 -16 469 -28 q 500 13 494 -4 q 506 56 506 28 q 503 118 506 85 q 497 204 500 153 q 493 317 493 256 q 493 376 493 344 q 494 439 493 407 q 501 444 497 442 q 507 451 504 447 q 588 507 542 483 q 682 549 633 531 q 799 569 735 569 q 908 529 864 568 q 974 424 964 481 q 974 318 983 367 q 939 217 964 269 q 867 129 914 165 q 779 68 819 93 q 685 22 739 43 q 651 8 665 15 q 639 -6 636 1 q 694 0 642 -17 q 778 32 722 8 q 890 92 833 56 q 984 171 947 128 q 1042 267 1021 214 q 1058 368 1061 319 q 1038 464 1056 417 q 974 555 1015 519 q 857 606 932 590 z "},"わ":{"ha":1389,"x_min":108,"x_max":1136,"o":"m 390 156 q 366 206 383 167 q 331 289 349 246 q 319 312 325 300 q 308 336 314 324 q 326 361 317 349 q 347 385 336 374 q 378 421 363 403 q 410 457 393 439 q 410 397 410 426 q 411 349 411 368 q 411 301 411 328 q 411 249 411 274 q 411 214 411 225 q 412 182 411 197 q 413 157 413 167 q 405 146 413 147 q 390 156 397 144 m 251 456 q 235 496 236 483 q 238 514 233 508 q 256 528 242 519 q 286 544 269 536 q 318 560 297 550 q 358 581 339 571 q 385 594 378 590 q 400 584 394 601 q 393 553 406 567 q 365 517 386 543 q 322 462 344 490 q 288 419 300 433 q 282 413 285 417 q 276 406 279 410 q 263 433 269 419 q 251 456 257 446 m 897 715 q 808 724 847 725 q 735 715 769 724 q 658 690 700 706 q 585 655 633 681 q 497 597 538 629 q 517 693 535 656 q 501 720 510 708 q 481 736 492 732 q 488 815 483 781 q 485 868 492 849 q 463 918 476 896 q 425 957 449 940 q 376 978 403 972 q 340 969 350 983 q 340 945 332 960 q 360 921 349 931 q 388 894 375 910 q 407 851 400 878 q 417 798 415 825 q 418 725 418 771 q 417 722 418 724 q 417 719 417 721 q 354 679 382 700 q 304 644 331 663 q 251 610 278 625 q 205 580 226 594 q 181 549 183 565 q 203 474 176 514 q 224 431 214 456 q 250 371 235 406 q 224 334 236 353 q 200 301 211 315 q 167 256 182 278 q 143 224 153 233 q 122 189 135 214 q 119 144 108 164 q 144 114 131 125 q 168 106 157 103 q 191 125 182 107 q 206 165 200 143 q 222 209 211 186 q 251 258 232 232 q 266 278 258 268 q 282 300 274 289 q 308 235 296 268 q 329 176 319 203 q 356 103 344 136 q 375 32 368 69 q 399 -18 382 -4 q 429 -31 415 -32 q 457 -16 442 -31 q 479 18 472 -1 q 485 69 486 36 q 481 143 483 103 q 474 244 476 183 q 471 376 471 304 q 471 445 471 408 q 471 518 471 482 q 478 526 475 522 q 486 533 482 531 q 582 599 528 571 q 693 649 636 626 q 782 669 733 664 q 877 665 831 675 q 958 625 924 656 q 1021 544 1003 586 q 1041 458 1039 501 q 1036 378 1043 415 q 994 260 1025 322 q 908 156 964 197 q 806 83 853 113 q 696 31 760 53 q 656 13 672 21 q 642 -3 639 6 q 660 -8 644 -11 q 707 4 675 -6 q 804 41 739 14 q 938 110 869 68 q 1048 203 1006 151 q 1114 317 1090 254 q 1135 435 1136 378 q 1111 549 1133 492 q 1035 656 1085 614 q 897 715 986 697 z "},"ゐ":{"ha":1389,"x_min":179,"x_max":1075,"o":"m 733 103 q 663 108 700 97 q 618 143 625 118 q 633 192 611 169 q 699 218 656 214 q 765 197 740 222 q 804 119 789 171 q 770 110 788 114 q 733 103 753 106 m 396 335 q 346 237 364 268 q 318 192 328 206 q 296 176 308 178 q 272 193 283 174 q 236 283 250 239 q 234 317 231 301 q 256 346 238 332 q 300 379 271 358 q 364 423 329 400 q 432 465 399 446 q 449 474 440 469 q 468 483 458 479 q 396 335 433 408 m 1064 428 q 1017 553 1053 493 q 893 653 982 614 q 772 674 836 678 q 653 642 708 669 q 624 626 639 635 q 593 611 608 618 q 597 622 594 617 q 601 632 600 628 q 648 722 622 679 q 686 783 674 764 q 709 826 701 806 q 703 868 717 846 q 671 907 689 888 q 631 928 653 926 q 588 915 610 928 q 543 886 567 903 q 501 855 521 869 q 467 831 481 840 q 434 821 451 822 q 396 831 417 819 q 361 848 375 842 q 336 843 347 854 q 335 814 329 833 q 358 776 342 794 q 449 753 389 743 q 492 770 467 756 q 540 803 518 785 q 568 825 556 815 q 586 831 581 835 q 588 793 597 826 q 567 732 583 779 q 519 608 550 685 q 510 585 515 597 q 500 560 506 574 q 458 535 479 547 q 418 511 436 524 q 306 439 349 468 q 231 385 264 410 q 190 338 200 360 q 186 286 179 315 q 201 224 193 258 q 213 161 208 189 q 221 110 218 133 q 224 68 224 86 q 241 43 225 50 q 276 39 257 36 q 351 81 319 43 q 372 115 365 96 q 383 156 378 133 q 407 222 389 178 q 461 336 425 267 q 508 431 483 379 q 556 531 533 483 q 614 559 585 546 q 668 583 643 572 q 864 593 781 629 q 990 413 974 543 q 983 302 997 353 q 924 197 968 251 q 871 151 899 168 q 824 240 853 211 q 758 279 794 269 q 676 269 722 289 q 597 213 629 250 q 551 139 567 175 q 556 72 535 103 q 625 29 578 42 q 746 26 672 17 q 879 71 819 36 q 993 168 939 106 q 1058 296 1042 228 q 1064 428 1075 364 z "},"ゑ":{"ha":1389,"x_min":161,"x_max":1096,"o":"m 493 446 q 505 476 489 464 q 553 488 521 488 q 598 475 583 488 q 610 443 613 463 q 586 406 607 426 q 527 419 556 408 q 493 446 499 431 m 1015 242 q 899 279 964 272 q 778 263 833 286 q 706 226 739 246 q 656 190 672 206 q 606 163 624 161 q 584 172 596 163 q 558 194 572 181 q 524 218 544 208 q 476 229 503 228 q 443 238 443 232 q 486 271 442 244 q 541 307 508 285 q 611 363 574 329 q 669 363 639 361 q 792 385 733 367 q 893 438 851 403 q 951 526 944 479 q 939 615 957 574 q 896 661 926 643 q 827 688 865 679 q 756 697 789 697 q 667 696 706 700 q 603 686 628 692 q 560 677 572 679 q 544 682 549 675 q 553 701 542 689 q 581 731 564 714 q 631 776 603 753 q 681 815 658 799 q 729 834 704 831 q 768 839 754 838 q 799 847 782 840 q 817 872 817 853 q 797 905 817 890 q 761 928 776 919 q 717 935 746 935 q 647 925 689 936 q 572 905 607 914 q 514 893 536 896 q 467 894 492 892 q 431 906 442 896 q 401 925 418 917 q 372 925 385 933 q 368 896 361 918 q 392 856 375 874 q 433 828 410 836 q 492 829 456 819 q 563 851 528 839 q 617 869 599 863 q 634 876 625 874 q 646 875 643 879 q 644 863 649 871 q 633 849 640 856 q 589 808 625 840 q 518 744 553 776 q 445 677 483 714 q 376 610 407 640 q 319 550 346 581 q 293 488 293 519 q 314 433 292 456 q 351 417 336 411 q 365 437 367 422 q 361 471 363 451 q 369 515 360 490 q 406 558 379 539 q 493 615 450 593 q 594 651 536 636 q 690 660 642 663 q 782 646 738 658 q 849 609 829 633 q 871 556 869 585 q 845 488 872 517 q 774 439 818 458 q 717 418 744 425 q 657 408 689 411 q 679 443 672 425 q 685 479 686 461 q 667 513 683 500 q 628 534 650 526 q 590 542 606 542 q 517 533 550 543 q 457 500 485 524 q 440 445 431 476 q 472 401 450 414 q 550 369 510 379 q 535 357 543 364 q 518 343 526 350 q 452 296 483 314 q 392 261 421 278 q 335 234 363 244 q 282 214 308 224 q 230 188 260 206 q 181 150 200 171 q 162 108 161 129 q 165 71 163 86 q 175 47 168 58 q 201 36 182 35 q 231 52 219 38 q 256 82 242 67 q 399 179 319 158 q 519 158 482 199 q 557 89 549 129 q 576 51 563 68 q 613 36 590 35 q 651 41 635 38 q 676 60 667 44 q 697 104 686 75 q 729 157 708 133 q 778 201 750 182 q 847 222 807 219 q 981 167 957 228 q 969 119 990 139 q 907 81 947 99 q 860 55 881 68 q 833 36 840 42 q 830 20 826 31 q 858 17 833 10 q 915 29 883 22 q 982 35 947 36 q 1048 46 1017 33 q 1088 89 1079 58 q 1081 165 1096 119 q 1015 242 1067 210 z "},"を":{"ha":1389,"x_min":218,"x_max":1036,"o":"m 907 543 q 817 497 864 519 q 725 456 769 475 q 707 447 715 451 q 689 439 699 442 q 678 464 683 453 q 710 526 689 494 q 753 579 731 558 q 805 620 776 601 q 869 646 833 639 q 928 647 906 654 q 956 629 950 640 q 956 592 963 617 q 907 543 950 567 m 596 890 q 589 925 596 907 q 596 924 592 924 q 604 922 600 924 q 638 910 631 918 q 635 898 640 907 q 614 881 629 889 q 606 876 610 878 q 596 871 601 874 q 596 890 597 882 m 1001 664 q 912 687 965 690 q 811 661 858 683 q 731 610 764 639 q 663 536 697 581 q 653 526 657 532 q 644 514 649 519 q 571 556 615 550 q 476 547 522 565 q 461 541 469 544 q 444 535 453 538 q 452 545 449 540 q 458 556 456 550 q 502 626 485 596 q 543 701 519 657 q 576 781 564 738 q 601 793 589 785 q 647 833 625 808 q 675 874 668 858 q 687 901 683 890 q 681 918 690 911 q 656 929 672 925 q 629 935 639 933 q 607 939 622 936 q 578 944 592 942 q 558 963 569 957 q 527 971 542 972 q 506 964 513 969 q 501 941 500 956 q 514 914 501 926 q 531 890 525 903 q 532 847 538 876 q 522 845 526 846 q 511 843 517 844 q 451 838 479 836 q 401 846 424 839 q 360 860 378 854 q 331 850 343 867 q 328 812 322 838 q 357 771 335 786 q 410 753 381 757 q 472 753 440 750 q 489 755 481 754 q 506 757 497 756 q 488 716 499 738 q 463 668 478 694 q 394 567 431 615 q 318 490 358 518 q 281 467 299 476 q 247 450 263 458 q 226 424 233 440 q 218 389 218 407 q 223 358 218 369 q 251 344 228 346 q 353 417 301 344 q 378 451 365 435 q 406 485 392 467 q 431 499 419 493 q 519 513 474 519 q 567 498 542 510 q 608 463 592 486 q 622 437 618 450 q 626 407 625 424 q 588 388 607 397 q 550 368 568 378 q 478 324 513 347 q 419 275 444 300 q 377 221 393 249 q 360 154 361 193 q 372 82 358 114 q 419 29 385 50 q 508 -7 458 6 q 606 -22 558 -19 q 711 -19 653 -25 q 806 -10 769 -14 q 858 -2 842 -6 q 881 6 874 1 q 896 28 896 13 q 879 56 896 43 q 843 75 861 69 q 794 78 825 81 q 754 72 779 76 q 701 60 729 67 q 643 51 672 54 q 571 46 614 47 q 492 63 531 44 q 435 107 454 81 q 424 171 415 136 q 450 231 432 206 q 501 283 472 263 q 561 321 529 303 q 592 337 575 329 q 626 351 608 344 q 626 347 626 350 q 626 343 626 344 q 619 272 625 307 q 606 215 613 236 q 608 181 600 194 q 638 168 615 167 q 694 214 676 175 q 710 264 706 233 q 711 335 715 294 q 708 360 710 347 q 706 383 707 372 q 728 394 717 389 q 750 403 739 399 q 835 436 789 419 q 911 468 881 453 q 970 505 942 485 q 1014 546 999 525 q 1030 581 1024 560 q 1031 624 1036 601 q 1001 664 1026 646 z "},"ん":{"ha":1389,"x_min":147,"x_max":1108,"o":"m 1093 376 q 1080 368 1086 378 q 1069 346 1074 358 q 1058 315 1067 339 q 1040 262 1050 290 q 1018 214 1029 233 q 978 158 1001 185 q 918 111 954 132 q 831 90 883 90 q 742 124 778 89 q 694 203 704 160 q 692 303 685 247 q 700 418 700 367 q 664 500 700 469 q 604 528 640 519 q 531 533 568 536 q 464 514 493 529 q 397 472 429 496 q 328 408 364 447 q 347 444 338 426 q 365 478 356 463 q 412 551 386 511 q 465 629 438 592 q 513 693 492 667 q 572 763 544 733 q 611 804 599 793 q 628 837 625 815 q 618 874 631 858 q 595 899 607 889 q 574 915 583 908 q 551 925 564 922 q 531 919 538 928 q 527 903 525 914 q 535 883 529 892 q 545 861 540 875 q 535 825 550 847 q 507 784 525 811 q 467 726 489 757 q 428 668 446 694 q 368 578 400 629 q 315 493 336 528 q 279 428 300 469 q 238 342 258 388 q 201 258 217 297 q 163 151 179 200 q 149 83 147 103 q 158 43 150 64 q 186 10 167 22 q 218 -2 204 -1 q 235 4 232 -3 q 242 22 240 8 q 242 68 244 36 q 242 153 238 103 q 260 250 246 203 q 264 263 261 256 q 268 276 267 269 q 330 349 296 314 q 390 406 364 383 q 456 450 421 433 q 531 465 492 467 q 598 438 569 464 q 619 356 626 413 q 612 278 615 318 q 616 198 608 238 q 653 121 624 158 q 747 49 696 65 q 854 36 797 33 q 956 74 911 40 q 1032 164 1001 108 q 1078 265 1064 219 q 1101 343 1093 311 q 1093 376 1108 371 z "},"ァ":{"ha":1389,"x_min":261,"x_max":989,"o":"m 660 693 q 740 703 697 697 q 799 710 783 708 q 822 708 814 711 q 833 701 831 706 q 830 686 836 696 q 813 664 824 676 q 783 635 799 650 q 742 604 768 619 q 703 580 721 590 q 667 564 685 569 q 667 576 667 569 q 665 588 667 582 q 660 623 664 606 q 640 653 656 640 q 616 671 628 664 q 588 685 604 678 q 660 693 624 690 m 363 664 q 431 666 397 663 q 496 674 464 669 q 511 676 503 675 q 528 678 519 676 q 543 646 528 663 q 578 594 565 622 q 594 522 590 565 q 600 438 600 482 q 592 343 600 394 q 569 248 582 292 q 528 164 556 204 q 472 95 500 122 q 413 44 444 68 q 381 22 394 32 q 358 6 368 11 q 355 -9 349 0 q 375 -8 361 -18 q 459 44 422 19 q 521 93 496 68 q 566 147 547 119 q 607 222 585 175 q 642 315 629 269 q 661 413 656 361 q 667 478 665 444 q 668 539 668 511 q 754 564 711 550 q 832 599 797 578 q 908 647 872 622 q 963 685 944 671 q 984 707 981 700 q 989 721 988 714 q 982 735 989 728 q 965 749 975 743 q 941 760 957 756 q 907 763 925 764 q 856 757 889 761 q 785 750 824 753 q 699 743 746 747 q 629 736 653 739 q 551 728 589 732 q 461 718 514 724 q 420 715 439 717 q 383 717 401 714 q 350 727 367 719 q 319 743 333 735 q 296 758 311 750 q 268 751 281 765 q 265 730 261 744 q 279 701 268 715 q 310 676 292 686 q 363 664 328 665 z "},"ア":{"ha":1389,"x_min":197,"x_max":1053,"o":"m 667 849 q 729 856 696 851 q 790 863 763 860 q 829 868 817 867 q 869 857 863 869 q 867 840 874 851 q 846 814 860 828 q 811 778 831 796 q 761 743 792 761 q 716 715 738 728 q 674 694 694 703 q 673 711 674 703 q 672 725 672 719 q 665 765 669 744 q 643 800 661 786 q 614 822 628 813 q 581 839 600 832 q 625 844 603 842 q 667 849 647 847 m 317 814 q 395 816 357 813 q 474 825 433 819 q 490 828 481 828 q 510 831 500 829 q 529 793 510 815 q 569 732 554 767 q 589 649 583 697 q 594 548 594 599 q 585 436 594 497 q 559 324 575 376 q 510 225 543 272 q 444 146 476 178 q 375 86 411 114 q 338 58 353 71 q 311 39 322 44 q 306 23 300 33 q 331 22 313 13 q 429 85 386 56 q 503 143 472 114 q 556 206 533 174 q 604 294 578 239 q 645 404 631 350 q 668 518 660 458 q 674 595 672 557 q 675 667 675 633 q 777 694 726 678 q 869 736 828 711 q 958 793 917 764 q 1022 839 1000 822 q 1049 864 1044 856 q 1053 881 1053 872 q 1044 899 1053 890 q 1025 914 1036 907 q 996 927 1014 921 q 957 931 978 933 q 897 923 938 928 q 813 915 857 918 q 713 906 768 911 q 631 899 658 900 q 538 890 583 894 q 432 879 492 885 q 383 874 404 876 q 342 875 361 872 q 301 888 322 878 q 267 908 281 899 q 238 924 256 915 q 206 917 219 932 q 201 890 197 907 q 218 857 204 872 q 254 827 233 839 q 317 814 275 815 z "},"ィ":{"ha":1389,"x_min":213,"x_max":899,"o":"m 232 268 q 285 286 261 276 q 335 308 310 296 q 386 335 360 321 q 456 376 413 350 q 546 436 499 403 q 624 494 593 469 q 640 509 632 501 q 656 524 647 517 q 670 517 664 521 q 681 506 676 513 q 692 474 689 492 q 694 431 694 456 q 695 380 696 407 q 693 314 694 353 q 690 233 692 275 q 688 157 689 192 q 682 90 686 122 q 676 42 678 57 q 684 0 675 25 q 715 -26 693 -25 q 748 -9 738 -28 q 757 42 758 10 q 755 115 757 72 q 753 193 753 157 q 753 268 753 231 q 754 335 753 306 q 756 397 756 365 q 760 443 757 428 q 769 467 764 458 q 772 490 775 475 q 724 535 767 515 q 703 542 714 540 q 682 547 692 544 q 711 573 697 560 q 739 600 725 586 q 795 650 768 628 q 836 686 822 672 q 864 710 851 700 q 883 732 876 721 q 872 790 899 760 q 833 818 861 804 q 788 821 806 832 q 781 806 781 817 q 788 786 782 796 q 792 763 794 775 q 775 731 790 750 q 734 682 761 711 q 668 614 707 653 q 581 533 628 574 q 481 450 533 492 q 389 381 428 408 q 301 328 350 354 q 260 306 275 314 q 225 290 244 297 q 216 274 213 285 q 232 268 219 264 z "},"イ":{"ha":1389,"x_min":153,"x_max":949,"o":"m 176 318 q 240 340 211 328 q 296 367 268 353 q 357 397 325 381 q 439 446 389 414 q 544 517 488 478 q 636 586 600 556 q 655 603 646 594 q 675 619 664 611 q 703 600 694 614 q 716 562 713 583 q 719 511 719 540 q 720 450 721 482 q 718 374 719 418 q 715 278 717 328 q 711 189 713 229 q 706 110 710 147 q 699 53 701 72 q 701 22 697 40 q 716 -12 706 3 q 743 -28 726 -26 q 782 -7 769 -29 q 793 53 794 15 q 791 138 793 90 q 789 231 789 186 q 788 319 788 275 q 790 397 789 364 q 792 471 792 433 q 797 525 793 508 q 808 553 801 542 q 811 581 815 564 q 793 610 808 597 q 756 633 778 622 q 730 642 743 639 q 706 647 717 644 q 739 678 722 663 q 771 708 756 694 q 838 767 806 740 q 888 810 869 794 q 919 838 906 825 q 942 867 933 851 q 945 899 949 881 q 929 933 942 918 q 901 956 919 944 q 864 973 883 968 q 829 969 844 978 q 822 952 821 965 q 829 928 822 939 q 835 901 836 917 q 814 864 833 886 q 765 807 794 842 q 688 725 735 772 q 584 629 640 678 q 468 532 528 581 q 360 451 407 483 q 257 389 314 419 q 208 362 226 371 q 168 343 189 353 q 157 326 153 338 q 176 318 161 314 z "},"ゥ":{"ha":1389,"x_min":269,"x_max":931,"o":"m 306 -25 q 349 -22 318 -25 q 425 -7 381 -19 q 513 25 469 7 q 606 76 556 43 q 695 148 654 108 q 776 240 736 188 q 838 342 817 292 q 874 444 858 392 q 885 490 881 467 q 892 532 889 513 q 901 567 894 553 q 918 593 908 582 q 929 613 928 603 q 918 633 931 622 q 894 653 906 644 q 875 667 883 663 q 832 661 856 674 q 803 650 822 656 q 765 642 783 644 q 726 638 749 639 q 671 635 704 636 q 657 634 664 635 q 644 633 650 633 q 648 686 646 660 q 651 728 650 713 q 658 764 653 746 q 647 794 663 782 q 617 814 632 808 q 590 824 601 819 q 554 817 563 831 q 555 796 549 807 q 574 776 561 785 q 592 750 588 767 q 596 710 596 733 q 594 669 596 693 q 593 631 593 644 q 574 631 583 631 q 554 631 564 631 q 523 631 536 631 q 501 631 510 631 q 481 643 489 631 q 442 669 467 660 q 412 677 428 675 q 392 671 396 679 q 392 655 386 664 q 407 639 399 646 q 419 619 417 632 q 425 589 422 607 q 431 537 428 572 q 436 468 433 501 q 441 435 438 450 q 456 411 444 419 q 475 401 467 403 q 489 401 483 400 q 510 431 506 404 q 510 458 513 444 q 504 493 507 471 q 497 535 500 517 q 493 575 494 554 q 501 586 493 585 q 526 588 506 586 q 574 590 547 589 q 618 590 600 590 q 694 593 644 590 q 781 599 743 596 q 807 576 804 600 q 809 534 808 565 q 800 460 810 503 q 781 388 790 417 q 747 313 771 358 q 618 142 701 219 q 526 75 576 103 q 418 28 475 47 q 363 13 394 19 q 300 0 332 6 q 274 -18 269 -4 q 284 -26 275 -25 q 306 -26 293 -28 l 306 -25 z "},"ウ":{"ha":1389,"x_min":211,"x_max":989,"o":"m 254 -26 q 306 -22 269 -25 q 393 -4 342 -19 q 498 33 447 11 q 606 93 549 56 q 710 178 661 132 q 807 286 760 225 q 879 407 856 349 q 921 528 903 465 q 935 580 929 554 q 943 631 940 606 q 953 671 944 654 q 975 703 961 688 q 987 725 985 714 q 974 750 989 736 q 946 774 958 764 q 922 788 933 783 q 874 781 900 797 q 837 766 860 774 q 793 757 814 758 q 749 754 775 756 q 683 751 722 753 q 667 749 675 750 q 653 749 660 749 q 656 811 654 781 q 660 860 657 842 q 669 902 664 881 q 656 939 674 924 q 619 962 636 954 q 588 972 603 969 q 544 964 557 981 q 547 941 539 954 q 569 918 556 928 q 589 888 583 908 q 594 839 594 867 q 594 791 594 819 q 592 746 593 763 q 569 744 581 744 q 546 744 558 744 q 510 744 526 744 q 483 744 494 744 q 458 760 472 746 q 414 793 443 778 q 379 801 399 800 q 354 793 360 803 q 354 774 347 783 q 372 756 361 764 q 394 697 390 739 q 400 635 397 676 q 406 556 403 594 q 413 515 408 533 q 431 488 417 497 q 452 476 443 478 q 468 475 461 474 q 493 513 489 479 q 494 543 496 528 q 488 583 492 558 q 480 635 483 613 q 474 681 476 657 q 475 689 474 685 q 483 693 476 693 q 513 694 489 693 q 568 696 538 694 q 619 697 599 697 q 676 699 642 697 q 747 703 710 700 q 813 708 783 706 q 835 703 828 711 q 843 682 843 694 q 845 633 844 669 q 835 544 846 596 q 820 485 828 511 q 802 433 813 460 q 774 371 792 407 q 621 171 719 264 q 513 92 572 125 q 386 36 453 58 q 321 18 358 26 q 247 4 283 10 q 215 -17 211 -3 q 228 -26 217 -24 q 254 -28 239 -28 l 254 -26 z "},"ェ":{"ha":1389,"x_min":208,"x_max":1047,"o":"m 1022 161 q 976 181 999 178 q 933 181 954 185 q 885 174 913 178 q 825 168 858 169 q 747 163 793 167 q 656 157 701 160 q 653 157 654 157 q 651 157 653 157 q 656 225 654 197 q 660 283 658 253 q 663 348 661 315 q 667 392 664 381 q 672 412 668 403 q 678 426 675 421 q 681 442 681 432 q 672 458 681 451 q 657 469 667 464 q 635 479 647 474 q 665 482 650 481 q 693 485 681 483 q 764 491 728 488 q 819 493 800 494 q 860 489 840 493 q 894 482 879 485 q 931 497 926 478 q 925 520 933 508 q 903 542 917 532 q 831 551 872 560 q 769 541 808 546 q 699 532 731 536 q 635 526 667 529 q 568 519 603 522 q 499 515 533 517 q 442 513 464 514 q 404 514 419 511 q 379 522 389 517 q 355 532 367 528 q 335 529 343 536 q 333 510 328 522 q 353 485 339 497 q 385 465 367 472 q 425 456 403 457 q 474 458 449 456 q 536 467 500 461 q 551 468 543 468 q 568 469 558 468 q 584 456 576 464 q 593 438 592 447 q 599 399 596 421 q 606 346 603 378 q 607 277 607 314 q 606 218 607 240 q 606 183 606 200 q 606 156 606 167 q 528 151 567 153 q 467 147 490 149 q 385 142 432 146 q 310 144 339 138 q 281 155 292 150 q 261 163 271 160 q 238 168 251 165 q 214 161 225 171 q 213 143 208 156 q 229 119 217 131 q 257 98 244 106 q 288 85 269 90 q 326 82 307 79 q 372 90 346 85 q 435 99 399 96 q 496 104 471 103 q 578 108 522 106 q 692 114 635 111 q 808 117 749 117 q 903 119 867 118 q 965 120 938 121 q 1004 118 993 119 q 1024 114 1014 115 q 1040 117 1033 113 q 1047 133 1047 119 q 1022 161 1046 146 z "},"エ":{"ha":1389,"x_min":139,"x_max":1126,"o":"m 1097 285 q 1044 308 1069 304 q 993 307 1018 311 q 937 299 969 303 q 865 293 904 294 q 773 288 828 292 q 665 281 718 283 q 663 281 664 281 q 661 281 663 281 q 667 360 665 328 q 671 429 669 393 q 674 505 672 467 q 678 556 675 543 q 692 596 682 582 q 695 614 694 603 q 686 633 696 625 q 642 657 671 649 q 678 661 661 658 q 710 665 694 664 q 792 673 750 669 q 858 676 835 676 q 906 670 885 675 q 947 663 928 665 q 990 681 985 657 q 956 731 994 707 q 871 743 921 753 q 801 732 846 738 q 717 721 756 726 q 642 714 679 717 q 563 707 604 711 q 481 701 521 704 q 415 697 442 699 q 371 699 389 696 q 340 710 353 703 q 313 721 325 717 q 289 718 300 725 q 287 695 281 710 q 310 667 293 681 q 347 642 326 651 q 394 631 367 632 q 453 634 422 631 q 525 643 483 638 q 543 645 535 644 q 561 647 551 646 q 592 610 586 633 q 600 565 596 589 q 606 503 604 540 q 609 421 608 465 q 608 350 610 376 q 607 309 607 328 q 607 278 607 290 q 517 272 561 275 q 443 268 472 269 q 382 263 417 267 q 315 259 347 260 q 260 265 282 258 q 224 277 236 272 q 201 285 213 282 q 174 292 192 289 q 146 285 157 294 q 144 263 139 278 q 164 235 150 247 q 197 210 183 219 q 233 194 211 201 q 278 192 256 189 q 332 201 301 194 q 406 211 364 207 q 479 217 449 215 q 574 222 508 218 q 707 229 640 225 q 846 233 775 232 q 956 235 917 233 q 1028 236 996 236 q 1075 233 1061 236 q 1100 228 1089 231 q 1118 231 1111 226 q 1126 251 1126 235 q 1097 285 1125 267 z "},"ォ":{"ha":1389,"x_min":157,"x_max":1043,"o":"m 713 132 q 703 118 713 119 q 683 124 694 117 q 626 162 660 140 q 561 200 593 183 q 511 225 533 214 q 465 246 489 236 q 496 270 481 258 q 526 296 511 282 q 582 351 556 322 q 631 407 608 381 q 662 447 650 433 q 681 469 674 461 q 706 472 696 488 q 706 468 706 469 q 706 464 706 467 q 710 332 710 400 q 711 271 711 300 q 713 200 711 242 q 713 166 713 186 q 713 132 713 146 m 1011 597 q 981 610 999 606 q 949 611 964 614 q 906 603 932 608 q 854 596 881 599 q 776 592 824 594 q 778 645 778 621 q 781 686 779 669 q 785 734 783 710 q 779 774 786 758 q 759 797 772 789 q 732 810 746 806 q 701 819 714 817 q 676 825 689 822 q 658 822 664 828 q 650 810 651 817 q 672 781 650 797 q 691 756 685 771 q 700 721 697 742 q 703 669 703 700 q 704 629 704 639 q 704 604 704 619 q 704 588 704 589 q 628 585 669 586 q 550 583 586 585 q 462 581 507 582 q 389 581 417 579 q 344 585 361 581 q 315 596 326 589 q 290 609 304 603 q 268 608 276 615 q 265 591 261 603 q 279 567 269 579 q 302 542 289 554 q 338 525 315 531 q 384 523 358 519 q 428 529 410 526 q 473 534 447 532 q 524 538 499 536 q 575 539 554 539 q 611 540 596 539 q 628 533 625 540 q 624 517 631 525 q 592 472 617 508 q 536 396 568 436 q 460 310 504 356 q 368 224 417 264 q 280 156 318 183 q 215 113 242 129 q 192 97 206 106 q 168 82 179 89 q 162 67 157 75 q 182 64 167 58 q 214 80 197 69 q 256 106 231 90 q 323 144 282 119 q 401 197 364 169 q 422 213 411 206 q 440 228 432 221 q 531 176 496 201 q 599 118 565 150 q 650 63 633 85 q 678 25 667 42 q 696 -6 688 8 q 711 -22 704 -19 q 739 -23 725 -28 q 768 3 753 -18 q 788 38 783 22 q 786 75 792 54 q 777 119 781 96 q 772 169 774 142 q 772 235 772 197 q 772 321 772 272 q 775 428 774 378 q 776 528 776 479 q 776 535 776 531 q 776 543 776 539 q 836 544 800 543 q 890 544 872 544 q 935 546 914 546 q 968 546 956 546 q 996 542 983 546 q 1017 535 1008 538 q 1034 536 1025 533 q 1042 554 1043 539 q 1031 580 1039 569 q 1011 597 1024 590 z "},"オ":{"ha":1389,"x_min":103,"x_max":1146,"o":"m 757 160 q 747 142 757 144 q 722 149 736 139 q 656 193 694 167 q 579 239 617 219 q 520 269 546 257 q 467 293 494 282 q 503 322 486 308 q 539 351 519 335 q 605 418 574 383 q 660 482 636 453 q 698 530 685 514 q 719 556 711 546 q 736 565 728 564 q 749 558 744 567 q 749 554 749 556 q 750 550 750 553 q 753 473 753 511 q 754 394 753 435 q 756 322 754 356 q 757 239 757 288 q 758 198 758 221 q 757 160 757 175 m 1107 706 q 1073 720 1093 714 q 1033 724 1053 726 q 985 715 1014 721 q 924 706 956 708 q 881 701 904 703 q 832 699 857 700 q 835 763 833 733 q 838 810 836 792 q 842 868 840 839 q 835 914 844 897 q 811 940 826 931 q 781 956 796 950 q 744 968 758 964 q 715 974 729 972 q 683 956 683 978 q 708 921 682 942 q 731 894 724 911 q 743 851 739 876 q 746 791 746 826 q 746 743 746 756 q 746 714 746 732 q 746 694 746 696 q 657 692 706 693 q 565 690 608 692 q 462 686 515 689 q 376 685 408 683 q 324 692 344 686 q 289 706 303 699 q 260 721 275 714 q 233 719 244 728 q 230 699 225 714 q 247 669 235 685 q 275 642 260 656 q 315 621 290 628 q 370 618 340 614 q 422 626 400 622 q 475 631 444 629 q 535 636 506 633 q 594 639 569 639 q 638 640 619 639 q 658 631 656 640 q 654 611 661 621 q 616 558 646 601 q 549 469 586 515 q 459 369 510 422 q 351 268 408 315 q 248 188 293 219 q 172 135 203 156 q 117 100 147 118 q 108 83 103 93 q 132 79 114 72 q 170 97 150 86 q 219 126 190 108 q 299 174 250 144 q 392 236 347 203 q 415 254 404 246 q 438 271 426 263 q 542 211 501 240 q 622 143 583 182 q 684 77 664 103 q 717 32 704 51 q 738 -3 728 14 q 756 -22 747 -19 q 787 -22 771 -28 q 821 7 803 -17 q 844 50 839 32 q 843 93 850 68 q 833 144 838 117 q 829 204 829 172 q 827 281 828 236 q 828 382 826 325 q 829 507 828 447 q 831 624 831 567 q 831 633 831 629 q 831 642 831 638 q 903 644 860 643 q 965 644 946 644 q 1018 647 993 646 q 1058 646 1043 647 q 1090 641 1075 646 q 1115 633 1106 636 q 1135 633 1124 631 q 1143 656 1146 636 q 1132 686 1142 675 q 1107 706 1122 697 z "},"カ":{"ha":1389,"x_min":150,"x_max":1050,"o":"m 176 -43 q 222 -18 197 -33 q 269 14 247 -3 q 431 171 357 79 q 494 260 468 218 q 546 350 519 301 q 593 446 572 397 q 638 556 614 494 q 644 575 640 567 q 650 592 647 583 q 749 604 711 600 q 817 614 786 608 q 862 622 849 619 q 882 626 875 625 q 897 627 889 626 q 911 626 904 628 q 926 622 918 625 q 938 615 935 618 q 942 601 942 613 q 940 569 942 589 q 930 463 935 508 q 915 369 925 418 q 899 295 906 322 q 881 249 892 268 q 808 229 864 213 q 760 244 781 238 q 721 257 739 251 q 692 254 696 265 q 708 231 688 243 q 743 208 726 219 q 774 181 760 196 q 814 117 803 153 q 847 76 825 82 q 879 80 864 72 q 910 111 894 88 q 968 268 940 157 q 991 374 982 328 q 1006 464 1000 419 q 1014 534 1011 507 q 1019 578 1017 561 q 1026 599 1022 588 q 1036 614 1031 610 q 1046 631 1042 619 q 1044 654 1050 642 q 993 713 1033 682 q 961 726 975 726 q 938 718 947 726 q 913 702 928 711 q 879 688 897 693 q 837 677 861 682 q 772 667 813 672 q 719 659 744 663 q 667 653 693 656 q 679 724 674 689 q 692 794 685 758 q 698 824 694 811 q 704 843 701 836 q 692 897 717 871 q 628 938 669 924 q 571 936 582 953 q 586 888 563 919 q 603 851 596 874 q 610 806 611 828 q 603 737 608 782 q 589 647 597 692 q 588 645 589 646 q 588 644 588 644 q 519 640 553 642 q 446 639 486 638 q 368 645 400 640 q 318 656 336 650 q 276 667 300 661 q 243 657 251 672 q 244 631 236 647 q 272 594 251 614 q 326 568 294 575 q 381 560 357 561 q 429 563 403 558 q 479 569 456 567 q 520 575 496 572 q 574 581 544 578 q 551 506 564 544 q 525 431 539 467 q 478 324 504 375 q 418 222 451 274 q 340 127 383 172 q 243 35 297 82 q 203 2 225 19 q 164 -26 182 -15 q 156 -42 150 -35 q 176 -43 161 -50 z "},"ガ":{"ha":1389,"x_min":151,"x_max":1118,"o":"m 1089 838 q 1110 857 1103 843 q 1106 889 1118 871 q 1069 919 1094 906 q 1021 940 1043 933 q 980 951 999 947 q 943 954 961 954 q 931 953 939 954 q 921 946 924 953 q 921 931 918 939 q 933 919 924 924 q 983 894 964 906 q 1018 864 1003 883 q 1054 840 1033 847 q 1089 838 1075 833 m 981 781 q 1001 798 994 785 q 999 831 1008 811 q 964 863 989 849 q 917 886 939 878 q 876 898 894 894 q 840 903 857 901 q 828 903 835 903 q 818 897 821 903 q 817 883 813 892 q 829 869 821 875 q 875 837 856 853 q 908 806 894 821 q 944 784 924 792 q 981 781 965 776 m 179 -43 q 224 -18 199 -33 q 271 14 249 -3 q 355 85 314 44 q 432 171 396 125 q 496 260 469 218 q 549 350 522 303 q 596 447 575 397 q 639 557 617 496 q 645 574 642 565 q 651 592 649 583 q 750 605 713 600 q 818 614 788 610 q 864 622 850 619 q 883 626 878 625 q 898 627 890 626 q 913 626 906 628 q 928 622 921 625 q 940 617 936 619 q 943 569 946 610 q 932 463 938 508 q 917 369 926 418 q 899 295 907 322 q 882 249 892 268 q 855 225 872 229 q 810 229 838 221 q 762 244 783 236 q 722 258 740 253 q 693 254 699 268 q 710 231 688 242 q 744 208 728 219 q 775 181 761 196 q 799 151 789 167 q 817 117 810 136 q 850 76 828 82 q 913 111 883 68 q 942 173 929 136 q 969 268 956 210 q 992 374 983 328 q 1007 464 1000 419 q 1017 535 1014 507 q 1022 578 1021 563 q 1028 598 1024 588 q 1039 614 1033 608 q 1049 630 1044 618 q 1046 654 1053 642 q 994 713 1035 682 q 963 726 976 726 q 939 718 949 726 q 915 703 929 711 q 881 688 900 694 q 838 676 861 681 q 774 667 814 672 q 721 659 747 663 q 668 653 694 656 q 681 724 675 689 q 693 794 686 758 q 699 824 694 811 q 706 843 703 836 q 693 897 718 871 q 667 920 682 911 q 629 938 651 929 q 574 936 583 954 q 588 888 564 918 q 606 850 597 872 q 611 806 614 828 q 603 738 608 782 q 590 647 599 693 q 590 646 590 646 q 590 644 590 646 q 522 640 556 642 q 447 639 488 638 q 369 645 401 640 q 318 656 338 650 q 276 667 300 661 q 243 657 253 672 q 245 631 238 647 q 275 594 253 614 q 327 569 296 576 q 381 560 358 561 q 431 563 404 558 q 481 569 458 567 q 522 575 497 572 q 575 581 546 578 q 553 506 565 544 q 526 431 540 468 q 418 222 486 322 q 342 127 385 172 q 246 35 300 82 q 206 2 228 19 q 165 -26 183 -15 q 158 -42 151 -33 q 179 -43 164 -50 z "},"キ":{"ha":1389,"x_min":169,"x_max":1083,"o":"m 758 732 q 690 713 729 722 q 608 693 651 703 q 603 722 606 708 q 600 747 601 736 q 586 826 594 786 q 568 899 578 867 q 542 943 558 931 q 501 963 525 956 q 458 968 479 969 q 431 951 436 967 q 433 927 425 940 q 461 904 442 914 q 492 881 481 894 q 513 843 504 867 q 528 788 519 819 q 546 703 536 757 q 548 692 547 697 q 550 681 549 686 q 456 658 506 669 q 368 642 406 647 q 249 635 279 628 q 219 642 232 640 q 196 636 206 643 q 194 614 189 631 q 221 585 200 597 q 265 574 239 575 q 328 578 292 572 q 414 596 364 583 q 508 618 464 608 q 534 625 521 621 q 560 632 547 629 q 574 558 567 596 q 592 479 582 521 q 600 439 596 457 q 607 403 604 421 q 586 398 597 400 q 563 393 575 396 q 467 374 511 383 q 374 356 422 365 q 315 345 344 350 q 264 343 285 340 q 233 353 243 347 q 214 365 224 360 q 195 374 206 369 q 176 372 185 378 q 172 351 169 367 q 192 317 175 336 q 224 286 206 297 q 268 274 242 275 q 319 277 294 272 q 381 293 344 282 q 472 319 418 303 q 581 347 525 336 q 599 351 590 350 q 617 356 608 353 q 625 317 621 336 q 633 275 629 297 q 651 179 644 222 q 664 100 658 136 q 677 42 669 64 q 696 3 685 21 q 719 -16 704 -10 q 747 -18 733 -22 q 769 1 764 -11 q 772 32 774 14 q 763 76 771 56 q 746 125 756 97 q 721 200 736 153 q 694 289 706 247 q 686 326 690 306 q 678 368 682 347 q 741 383 708 376 q 806 397 774 390 q 901 417 867 411 q 963 421 935 422 q 1007 419 986 421 q 1050 418 1028 418 q 1078 429 1072 419 q 1079 456 1083 439 q 1058 481 1075 469 q 1026 494 1042 492 q 987 494 1011 499 q 938 481 963 490 q 858 456 911 469 q 758 433 806 443 q 713 424 736 429 q 668 415 690 419 q 658 456 663 436 q 651 490 654 475 q 633 575 642 536 q 618 646 625 614 q 662 656 640 651 q 704 665 683 661 q 788 676 749 674 q 850 676 828 679 q 896 669 872 674 q 938 672 919 665 q 954 695 956 679 q 943 721 953 711 q 912 741 933 731 q 867 754 890 751 q 817 750 842 757 q 758 732 792 743 z "},"ギ":{"ha":1389,"x_min":169,"x_max":1142,"o":"m 1114 860 q 1135 880 1128 865 q 1131 911 1142 894 q 1093 943 1119 928 q 1044 964 1067 958 q 968 976 1003 976 q 956 976 963 976 q 946 969 949 975 q 945 956 942 964 q 957 943 949 947 q 1043 886 1015 919 q 1078 863 1057 871 q 1114 860 1100 856 m 1004 803 q 1026 822 1019 807 q 1024 853 1033 836 q 988 886 1014 871 q 940 908 961 901 q 899 920 918 915 q 865 926 881 925 q 851 926 858 926 q 842 919 844 925 q 853 893 832 908 q 899 860 879 875 q 933 829 919 844 q 968 806 947 814 q 1004 803 989 799 m 760 733 q 692 713 731 724 q 610 693 653 703 q 601 747 603 725 q 588 826 596 786 q 569 899 581 867 q 542 943 558 931 q 504 963 525 956 q 458 968 481 969 q 431 951 436 967 q 464 904 421 925 q 514 843 499 886 q 529 788 522 819 q 547 703 536 757 q 549 692 549 697 q 551 681 550 686 q 457 658 507 669 q 368 642 407 647 q 251 635 282 628 q 221 642 233 640 q 199 636 208 644 q 195 615 190 629 q 224 586 200 600 q 329 578 257 568 q 416 596 365 583 q 510 619 467 608 q 535 626 522 622 q 561 632 547 629 q 576 558 568 596 q 593 479 583 521 q 601 439 597 457 q 608 403 606 421 q 564 393 588 399 q 468 374 513 383 q 375 356 424 365 q 316 345 346 350 q 265 343 286 340 q 235 353 244 347 q 215 365 225 360 q 197 375 207 369 q 178 374 186 381 q 174 352 169 368 q 193 317 178 336 q 226 286 208 297 q 269 274 243 275 q 321 277 296 272 q 382 293 346 282 q 473 319 418 303 q 581 347 528 336 q 599 351 590 350 q 618 356 608 353 q 626 317 622 336 q 635 275 631 297 q 653 179 646 222 q 665 100 660 136 q 697 3 675 33 q 721 -17 706 -10 q 750 -18 736 -24 q 771 1 765 -12 q 775 32 776 14 q 765 77 772 56 q 747 125 758 99 q 722 200 736 153 q 697 290 708 247 q 688 326 693 306 q 679 368 683 347 q 742 383 710 376 q 808 397 775 390 q 902 417 868 411 q 964 422 936 424 q 1008 420 986 422 q 1051 418 1029 418 q 1079 430 1074 419 q 1081 456 1085 440 q 1060 481 1076 469 q 1028 494 1043 492 q 988 494 1013 499 q 939 481 964 490 q 860 456 913 469 q 760 433 808 443 q 715 424 738 429 q 668 415 692 419 q 660 456 664 436 q 653 490 656 475 q 633 575 642 536 q 618 646 625 614 q 663 657 642 653 q 706 665 685 661 q 789 676 750 674 q 851 676 828 679 q 897 669 875 674 q 939 672 919 665 q 956 695 958 679 q 944 721 954 711 q 913 741 933 731 q 868 756 892 751 q 819 751 844 758 q 760 733 793 744 z "},"ク":{"ha":1389,"x_min":222,"x_max":1032,"o":"m 944 800 q 878 801 907 818 q 845 785 863 792 q 803 775 828 778 q 707 775 750 771 q 688 778 697 776 q 671 781 678 779 q 685 810 678 797 q 693 831 692 822 q 703 873 701 854 q 693 904 704 892 q 664 926 683 915 q 626 943 644 936 q 592 953 608 950 q 567 946 575 956 q 564 926 560 939 q 578 906 568 914 q 596 886 588 897 q 606 865 604 875 q 605 836 607 854 q 593 792 603 818 q 569 732 583 764 q 533 665 554 700 q 481 589 513 631 q 418 517 450 547 q 350 459 385 485 q 274 411 315 433 q 260 401 267 407 q 256 388 253 394 q 267 381 258 381 q 285 383 276 381 q 374 427 336 404 q 456 486 413 450 q 533 560 499 522 q 599 650 567 599 q 622 690 610 669 q 643 729 633 710 q 678 729 658 729 q 711 731 697 729 q 774 731 735 731 q 831 731 813 731 q 847 731 836 731 q 861 728 857 731 q 866 715 864 725 q 865 693 868 704 q 856 653 863 682 q 829 581 849 625 q 788 499 810 538 q 735 415 767 460 q 665 325 704 371 q 582 240 626 279 q 504 174 550 211 q 413 107 458 136 q 330 60 365 78 q 244 24 294 42 q 229 16 236 21 q 224 6 222 11 q 256 -3 229 -11 q 333 26 300 13 q 397 56 365 40 q 468 92 428 71 q 580 160 529 122 q 671 233 631 197 q 745 309 711 269 q 821 406 779 349 q 892 510 864 464 q 938 593 921 557 q 963 646 950 619 q 992 681 975 672 q 1028 717 1024 701 q 1006 757 1032 735 q 980 779 994 768 q 944 800 965 790 z "},"グ":{"ha":1389,"x_min":226,"x_max":1167,"o":"m 1142 881 q 1161 901 1156 886 q 1157 932 1167 915 q 1121 964 1147 950 q 1072 985 1094 978 q 1031 995 1050 992 q 996 997 1013 999 q 983 997 990 997 q 972 992 976 997 q 972 977 968 986 q 985 965 976 968 q 1036 939 1017 951 q 1071 907 1056 926 q 1106 883 1085 892 q 1142 881 1126 875 m 1031 824 q 1053 842 1046 828 q 1051 875 1061 857 q 1015 907 1042 892 q 968 931 989 922 q 927 942 946 938 q 893 947 908 947 q 879 947 886 947 q 868 943 872 947 q 881 915 860 926 q 927 882 907 897 q 961 851 947 867 q 997 828 976 836 q 1031 824 1017 819 m 949 801 q 881 803 910 818 q 848 785 865 793 q 806 776 831 778 q 711 776 756 772 q 692 779 701 778 q 675 781 682 781 q 688 811 682 799 q 697 832 694 824 q 707 874 706 856 q 697 906 708 893 q 668 926 686 917 q 631 943 650 936 q 594 953 611 950 q 569 947 578 957 q 568 928 563 939 q 581 907 574 917 q 599 888 590 899 q 608 867 607 878 q 608 838 610 856 q 597 793 607 819 q 573 733 588 765 q 538 667 558 701 q 485 590 517 631 q 419 518 453 550 q 354 461 389 486 q 278 413 319 436 q 263 402 271 408 q 258 389 256 396 q 270 383 261 383 q 289 385 279 382 q 377 428 339 404 q 458 488 415 451 q 535 561 501 522 q 603 651 569 600 q 625 690 614 669 q 647 731 636 711 q 681 731 661 731 q 715 731 700 731 q 754 731 731 731 q 800 732 778 732 q 832 732 822 732 q 850 731 839 732 q 865 729 861 731 q 869 716 867 726 q 868 693 871 706 q 859 655 867 683 q 832 582 851 626 q 792 500 814 539 q 739 417 769 461 q 669 326 708 372 q 586 242 631 281 q 508 174 553 211 q 417 108 463 138 q 334 61 369 79 q 249 25 299 43 q 233 18 240 22 q 228 7 226 14 q 238 -3 229 0 q 258 -1 247 -6 q 336 27 303 14 q 401 56 369 40 q 472 93 432 72 q 585 161 533 124 q 675 235 636 199 q 747 310 714 271 q 824 407 781 350 q 895 510 867 464 q 942 593 924 557 q 967 647 954 621 q 994 682 979 674 q 1019 700 1008 692 q 1031 718 1029 708 q 1010 758 1033 738 q 983 781 997 771 q 949 801 969 792 z "},"ケ":{"ha":1389,"x_min":193,"x_max":1058,"o":"m 424 725 q 390 654 410 694 q 335 572 369 614 q 274 503 300 529 q 218 451 249 476 q 200 432 207 442 q 196 415 193 422 q 243 432 206 404 q 329 503 297 472 q 396 574 361 533 q 435 623 415 597 q 472 676 454 649 q 496 668 479 672 q 538 661 514 663 q 593 661 561 660 q 608 663 600 663 q 624 664 615 663 q 658 611 653 649 q 663 551 664 583 q 656 468 663 519 q 632 372 647 417 q 593 282 617 328 q 544 197 569 238 q 488 121 519 157 q 420 58 451 81 q 346 14 389 36 q 321 1 331 7 q 314 -11 311 -6 q 330 -17 317 -17 q 358 -12 343 -18 q 403 4 375 -6 q 469 43 431 14 q 540 97 510 71 q 604 165 569 122 q 648 224 629 197 q 683 279 667 250 q 717 349 700 308 q 750 458 743 411 q 757 547 757 506 q 748 613 758 590 q 722 646 738 636 q 701 658 713 653 q 679 668 690 664 q 720 671 699 669 q 765 672 742 672 q 856 670 817 674 q 933 663 896 667 q 1039 668 1004 654 q 1056 688 1053 675 q 1043 714 1058 701 q 1008 736 1024 728 q 972 751 992 744 q 931 753 954 757 q 889 743 908 750 q 815 726 853 732 q 742 718 778 719 q 665 717 706 717 q 585 717 625 718 q 503 729 526 715 q 513 749 508 739 q 524 771 518 760 q 558 856 550 825 q 560 904 567 886 q 540 933 553 922 q 508 954 528 944 q 468 966 489 963 q 436 956 447 969 q 433 940 431 950 q 446 922 436 929 q 468 843 485 894 q 448 783 457 810 q 424 725 439 756 z "},"ゲ":{"ha":1389,"x_min":194,"x_max":1168,"o":"m 1140 888 q 1162 908 1156 893 q 1157 939 1168 922 q 1121 969 1147 956 q 1072 990 1094 983 q 994 1004 1031 1004 q 983 1003 990 1004 q 972 997 975 1003 q 985 971 963 981 q 1035 945 1015 957 q 1069 914 1056 933 q 1104 890 1083 897 q 1140 888 1125 883 m 1031 831 q 1053 847 1044 833 q 1050 881 1061 861 q 1014 914 1039 899 q 968 936 989 929 q 927 948 946 943 q 892 954 908 953 q 878 953 886 954 q 868 947 871 953 q 881 921 858 933 q 960 856 931 888 q 996 834 975 842 q 1031 831 1017 826 m 426 726 q 391 655 411 694 q 338 574 371 615 q 277 503 303 531 q 221 451 251 476 q 202 432 210 442 q 199 417 194 422 q 247 432 208 404 q 332 502 300 472 q 399 574 364 532 q 438 624 418 597 q 475 678 457 650 q 485 673 479 675 q 500 668 492 671 q 596 663 531 660 q 611 664 603 664 q 626 665 619 664 q 649 644 639 658 q 663 611 660 631 q 667 552 668 585 q 657 468 665 519 q 634 374 649 417 q 596 283 619 331 q 548 197 572 238 q 490 121 524 157 q 423 59 454 81 q 349 15 392 38 q 325 1 333 8 q 318 -11 317 -6 q 332 -17 318 -17 q 361 -11 346 -17 q 406 6 378 -6 q 472 43 433 17 q 542 97 513 72 q 607 167 572 122 q 669 251 646 214 q 718 350 693 289 q 753 459 744 413 q 761 549 761 506 q 751 614 763 592 q 725 647 740 636 q 682 668 707 661 q 723 671 701 669 q 768 672 744 672 q 860 670 819 674 q 936 664 900 667 q 1000 662 974 660 q 1042 669 1026 664 q 1060 689 1057 676 q 1044 715 1063 701 q 1010 739 1025 731 q 976 753 994 747 q 935 754 958 758 q 892 743 911 750 q 817 726 856 732 q 743 719 779 721 q 668 719 708 718 q 588 718 628 719 q 538 719 556 717 q 506 731 519 722 q 517 751 511 740 q 528 771 522 761 q 562 856 554 826 q 563 906 569 886 q 543 935 556 925 q 511 956 531 946 q 471 968 492 964 q 439 957 450 972 q 450 924 426 942 q 469 843 488 893 q 449 784 458 810 q 426 726 440 758 z "},"コ":{"ha":1389,"x_min":247,"x_max":1006,"o":"m 954 550 q 972 578 963 564 q 989 601 981 592 q 1001 629 997 611 q 992 668 1006 647 q 963 705 978 689 q 935 731 947 721 q 912 742 924 739 q 882 735 900 744 q 839 719 865 726 q 782 707 813 711 q 726 703 763 706 q 644 699 689 700 q 557 696 600 697 q 439 694 493 694 q 360 700 385 694 q 329 710 342 704 q 306 724 317 717 q 282 735 294 731 q 258 731 269 740 q 251 705 247 724 q 268 668 254 686 q 301 635 281 649 q 353 621 322 621 q 438 625 383 622 q 536 631 492 628 q 639 639 581 633 q 733 646 697 644 q 803 649 769 647 q 851 653 836 651 q 878 644 865 653 q 890 614 892 636 q 883 547 889 592 q 871 461 878 501 q 859 386 864 419 q 847 318 854 353 q 821 296 843 297 q 772 294 814 296 q 675 292 731 293 q 569 290 619 290 q 435 292 496 290 q 357 299 375 294 q 328 309 339 303 q 310 319 317 315 q 292 326 303 325 q 271 317 281 326 q 267 290 263 308 q 290 257 271 272 q 367 217 332 225 q 406 215 386 213 q 453 218 426 217 q 499 221 469 219 q 560 224 528 222 q 618 225 593 225 q 679 227 642 225 q 753 231 717 229 q 808 232 789 233 q 856 228 835 232 q 890 218 876 224 q 928 208 903 211 q 964 215 953 204 q 972 246 975 228 q 943 279 968 264 q 918 295 928 289 q 908 308 908 301 q 918 383 911 339 q 931 456 925 426 q 941 511 936 486 q 954 550 946 536 z "},"ゴ":{"ha":1389,"x_min":253,"x_max":1192,"o":"m 1163 813 q 1185 831 1178 817 q 1181 864 1192 846 q 1143 894 1169 881 q 1093 915 1117 908 q 1053 926 1072 922 q 1018 929 1035 929 q 1005 928 1013 929 q 994 922 997 928 q 1007 894 985 907 q 1058 869 1038 881 q 1093 839 1078 858 q 1127 815 1107 822 q 1163 813 1147 807 m 1053 756 q 1075 773 1067 760 q 1072 806 1083 786 q 1037 838 1061 824 q 990 861 1013 853 q 914 878 947 878 q 901 878 908 878 q 892 872 894 878 q 890 858 886 867 q 901 844 893 850 q 982 781 953 811 q 1017 759 997 767 q 1053 756 1038 751 m 958 556 q 975 581 967 568 q 993 606 983 594 q 1006 634 1003 617 q 994 674 1008 651 q 966 710 982 694 q 940 733 950 725 q 917 746 929 743 q 888 740 904 749 q 788 713 850 719 q 691 706 757 710 q 561 701 625 703 q 443 700 497 700 q 365 706 389 700 q 334 716 346 710 q 311 729 322 722 q 287 741 300 736 q 263 736 274 746 q 256 710 253 729 q 272 671 258 690 q 306 639 286 653 q 357 625 326 625 q 442 629 388 625 q 542 636 496 633 q 644 644 586 639 q 739 651 703 650 q 808 654 775 653 q 856 656 842 656 q 882 649 869 657 q 893 618 894 642 q 886 551 892 596 q 875 465 881 506 q 864 391 869 424 q 853 324 858 358 q 826 301 849 301 q 776 299 818 300 q 678 296 735 297 q 574 294 622 294 q 440 297 500 294 q 363 304 381 300 q 333 314 344 308 q 315 325 322 319 q 297 330 308 331 q 276 321 285 329 q 272 295 268 313 q 294 263 275 278 q 333 236 314 247 q 371 221 353 225 q 410 219 389 217 q 457 224 432 222 q 504 226 475 225 q 565 229 533 228 q 622 231 597 231 q 685 232 647 231 q 758 235 722 233 q 814 238 794 238 q 860 233 839 238 q 893 222 882 228 q 932 213 907 217 q 968 219 957 208 q 975 251 978 232 q 949 283 972 269 q 923 300 933 293 q 913 314 913 307 q 922 388 917 344 q 935 461 928 431 q 947 517 942 492 q 958 556 951 542 z "},"サ":{"ha":1389,"x_min":111,"x_max":1149,"o":"m 1031 676 q 982 672 1003 675 q 935 664 961 668 q 883 658 911 660 q 821 656 856 656 q 824 710 822 683 q 826 758 825 738 q 831 839 828 803 q 819 899 835 875 q 739 971 785 953 q 710 979 726 976 q 683 971 694 982 q 683 953 676 964 q 701 935 690 943 q 728 911 717 925 q 743 868 739 897 q 752 800 749 838 q 753 713 756 763 q 751 683 751 697 q 749 653 750 668 q 647 648 700 650 q 558 644 594 646 q 549 644 554 644 q 542 643 544 643 q 540 694 540 669 q 538 738 539 719 q 535 801 536 776 q 528 844 535 826 q 504 876 519 864 q 469 896 489 889 q 433 904 450 904 q 408 893 417 904 q 425 856 394 875 q 449 835 439 849 q 464 803 460 822 q 471 664 472 763 q 471 653 471 658 q 471 642 471 647 q 417 639 444 640 q 357 636 389 638 q 272 637 300 635 q 218 644 243 639 q 165 660 193 651 q 122 656 138 669 q 118 629 111 644 q 136 603 125 614 q 170 581 149 592 q 228 568 192 569 q 306 568 265 567 q 390 575 347 569 q 432 581 413 578 q 471 585 451 583 q 469 504 469 544 q 468 442 469 464 q 466 399 467 425 q 474 353 465 374 q 508 333 482 333 q 542 352 535 333 q 549 397 550 371 q 546 443 547 422 q 544 494 546 458 q 543 556 543 529 q 543 572 543 563 q 543 593 543 582 q 554 594 547 594 q 642 601 597 599 q 746 603 688 603 q 742 540 744 572 q 738 476 739 508 q 716 335 733 411 q 667 197 699 258 q 594 97 632 133 q 504 32 556 60 q 456 7 474 17 q 426 -7 439 -3 q 417 -24 414 -12 q 433 -31 419 -35 q 501 -3 469 -19 q 569 36 532 13 q 646 94 608 60 q 714 172 683 129 q 761 256 743 215 q 793 346 779 297 q 813 440 808 394 q 818 539 818 486 q 819 569 819 553 q 819 603 818 586 q 901 601 864 601 q 974 599 939 600 q 1047 594 1021 597 q 1093 585 1074 590 q 1113 582 1103 583 q 1129 586 1122 581 q 1117 640 1149 600 q 1031 676 1086 676 z "},"ザ":{"ha":1389,"x_min":113,"x_max":1188,"o":"m 1158 826 q 1181 846 1174 832 q 1176 878 1188 860 q 1140 908 1167 894 q 1092 929 1113 922 q 1050 940 1069 936 q 1014 943 1031 943 q 1001 942 1008 943 q 992 936 994 942 q 992 922 988 929 q 1004 908 996 914 q 1054 884 1035 896 q 1089 853 1074 872 q 1124 828 1103 835 q 1158 826 1144 822 m 1050 768 q 1071 787 1064 774 q 1068 818 1078 800 q 1033 851 1058 836 q 986 875 1008 867 q 910 892 944 892 q 898 891 906 892 q 888 886 890 890 q 899 858 879 874 q 981 794 949 826 q 1015 772 994 781 q 1050 768 1035 764 m 1031 676 q 983 672 1003 675 q 936 664 964 668 q 885 658 913 660 q 822 656 858 656 q 825 710 824 683 q 828 758 826 738 q 833 839 831 803 q 821 899 836 875 q 740 971 786 953 q 711 979 728 976 q 685 971 694 982 q 685 953 678 964 q 703 935 692 943 q 728 911 718 925 q 744 868 739 897 q 753 800 750 838 q 754 713 756 763 q 752 683 753 697 q 750 653 751 668 q 649 648 701 650 q 560 644 596 646 q 551 644 556 644 q 543 643 546 643 q 540 694 542 669 q 539 738 539 719 q 537 801 538 776 q 529 844 536 826 q 505 876 521 864 q 471 896 489 889 q 435 904 451 904 q 410 893 418 904 q 426 856 396 875 q 450 835 439 849 q 465 803 461 822 q 472 664 474 763 q 472 653 472 658 q 472 642 472 647 q 418 639 446 640 q 358 636 390 638 q 272 637 300 635 q 218 644 244 639 q 167 660 194 651 q 124 656 139 669 q 119 629 113 644 q 138 603 126 614 q 172 581 150 592 q 229 568 193 569 q 307 568 267 567 q 392 575 347 569 q 433 581 413 578 q 471 585 453 583 q 470 504 471 544 q 468 442 469 464 q 466 399 467 425 q 474 353 465 374 q 510 333 483 333 q 544 352 536 333 q 549 397 551 371 q 547 443 547 422 q 546 494 547 458 q 544 556 544 529 q 544 572 544 563 q 543 593 544 582 q 556 594 547 594 q 644 601 600 599 q 747 603 689 603 q 743 540 744 572 q 739 476 742 508 q 717 335 735 411 q 668 197 700 258 q 595 97 633 133 q 506 32 557 60 q 457 7 475 17 q 428 -7 439 -3 q 418 -24 415 -12 q 435 -31 421 -35 q 501 -3 469 -19 q 571 36 533 13 q 647 94 610 60 q 715 172 685 129 q 763 256 744 215 q 794 346 781 297 q 814 440 808 394 q 819 539 819 486 q 820 569 821 553 q 821 603 819 586 q 902 601 864 601 q 975 599 940 600 q 1049 594 1022 597 q 1093 585 1075 590 q 1114 582 1103 583 q 1131 586 1125 581 q 1118 640 1150 600 q 1031 676 1088 676 z "}}}
